<?xml version="1.0" encoding="UTF-8"?>
<svg version="1.1" xmlns="http://www.w3.org/2000/svg" width="630" height="187">
<path d="M0 0 C207.9 0 415.8 0 630 0 C630 61.71 630 123.42 630 187 C422.1 187 214.2 187 0 187 C0 125.29 0 63.58 0 0 Z " fill="#232323" transform="translate(0,0)"/>
<path d="M0 0 C0.66 0 1.32 0 2 0 C2.67154933 1.28913487 3.33708859 2.58140204 4 3.875 C4.37125 4.59429688 4.7425 5.31359375 5.125 6.0546875 C6 8 6 8 6 10 C6.99 9.67 7.98 9.34 9 9 C8.855625 9.763125 8.71125 10.52625 8.5625 11.3125 C7.9591221 14.81948103 7.9591221 14.81948103 7.88671875 17.671875 C7.52395699 25.34169506 7.52395699 25.34169506 4.5625 29.0625 C3.716875 29.701875 2.87125 30.34125 2 31 C1.34 31.66 0.68 32.32 0 33 C-2.6988117 34.10120647 -5.38578831 35.13623447 -8.125 36.125 C-8.87910156 36.40214844 -9.63320312 36.67929687 -10.41015625 36.96484375 C-12.27163121 37.64817 -14.13558602 38.32473389 -16 39 C-16 39.33 -16 39.66 -16 40 C-15.10796875 39.82082031 -14.2159375 39.64164063 -13.296875 39.45703125 C-12.12640625 39.24433594 -10.9559375 39.03164063 -9.75 38.8125 C-8.58984375 38.59207031 -7.4296875 38.37164062 -6.234375 38.14453125 C-3 38 -3 38 -0.82446289 39.16821289 C1 41 1 41 1.4699707 43.36572266 C1.45538818 44.2891748 1.44080566 45.21262695 1.42578125 46.1640625 C1.41804688 47.19668213 1.4103125 48.22930176 1.40234375 49.29321289 C1.35787109 50.94244751 1.35787109 50.94244751 1.3125 52.625 C1.29703125 53.74189209 1.2815625 54.85878418 1.265625 56.00952148 C1.11034067 65.02183555 0.69221544 74.01356033 0 83 C0.7425 82.835 1.485 82.67 2.25 82.5 C7.50409401 81.79945413 12.70751749 81.92292501 18 82 C17.98952637 81.23147705 17.97905273 80.4629541 17.96826172 79.67114258 C17.77941187 63.6296623 18.04939827 47.93571952 20 32 C23.18472361 31.64614182 24.56838943 31.68035652 27.18626404 33.61911011 C29.6195917 36.81333758 29.24854424 38.40422933 28.76977539 42.34423828 C28.0131882 49.74640099 27.78381568 57.05510998 27.68359375 64.4921875 C27.6524221 66.46011765 27.6524221 66.46011765 27.62062073 68.46780396 C27.56624309 71.90349902 27.51647365 75.33924481 27.46777344 78.77502441 C27.41692992 82.3018834 27.36157694 85.82867157 27.30664062 89.35546875 C27.20009552 96.23691748 27.09843454 103.11843059 27 110 C21.23208618 110.15103149 21.23208618 110.15103149 19.14331055 108.79174805 C17.6725142 106.48677807 17.65498329 105.05587469 17.70703125 102.33203125 C17.71669922 101.43935547 17.72636719 100.54667969 17.73632812 99.62695312 C17.76146484 98.69818359 17.78660156 97.76941406 17.8125 96.8125 C17.82603516 95.87212891 17.83957031 94.93175781 17.85351562 93.96289062 C17.88886397 91.64168265 17.94267085 89.32076912 18 87 C12.06 87 6.12 87 0 87 C0 95.58 0 104.16 0 113 C-6 113 -6 113 -9 111 C-9.34057617 108.75341797 -9.34057617 108.75341797 -9.29296875 105.9921875 C-9.28330078 105.00605469 -9.27363281 104.01992187 -9.26367188 103.00390625 C-9.23853516 101.97136719 -9.21339844 100.93882813 -9.1875 99.875 C-9.16719727 98.31458984 -9.16719727 98.31458984 -9.14648438 96.72265625 C-9.11105228 94.14792373 -9.06165221 91.5742167 -9 89 C-10.98 89 -12.96 89 -15 89 C-14.505 87.02 -14.505 87.02 -14 85 C-12.35 84.67 -10.7 84.34 -9 84 C-9 70.47 -9 56.94 -9 43 C-10.65 44.65 -12.3 46.3 -14 48 C-15.485 48.495 -15.485 48.495 -17 49 C-16.99476318 49.81267334 -16.98952637 50.62534668 -16.98413086 51.46264648 C-16.96343006 55.12092322 -16.95036197 58.77918767 -16.9375 62.4375 C-16.92912109 63.71689453 -16.92074219 64.99628906 -16.91210938 66.31445312 C-16.90888672 67.52939453 -16.90566406 68.74433594 -16.90234375 69.99609375 C-16.89710693 71.12200928 -16.89187012 72.2479248 -16.88647461 73.40795898 C-17 76 -17 76 -18 77 C-18.0800007 78.52001321 -18.13872436 80.04116466 -18.1875 81.5625 C-18.62425179 86.6506583 -20.22536302 89.39783936 -23.52734375 93.2109375 C-27.77243572 98.36810493 -27.23685491 103.10933107 -26.9375 109.5 C-26.86849487 110.98632935 -26.86849487 110.98632935 -26.7980957 112.50268555 C-26.31196514 120.17323465 -24.65176938 126.20899027 -21 133 C-20.25947751 134.68254769 -19.52947788 136.36978532 -18.8125 138.0625 C-17.68909685 140.62959572 -16.57518976 142.63721536 -15 145 C-18.125 145.5 -18.125 145.5 -22 145 C-26.26051891 141.56657957 -28.17047973 137.36072007 -28.8828125 132.02734375 C-29.98497722 125.33766849 -32.20287944 119.21205362 -34.5625 112.875 C-34.97435547 111.740625 -35.38621094 110.60625 -35.81054688 109.4375 C-37.2963047 104.36686323 -37.2963047 104.36686323 -40 100 C-42.32817964 99.63239269 -44.6618385 99.29758419 -47 99 C-47.18175781 100.50240234 -47.18175781 100.50240234 -47.3671875 102.03515625 C-47.53617151 103.3776403 -47.70545858 104.72008623 -47.875 106.0625 C-47.95363281 106.71927734 -48.03226563 107.37605469 -48.11328125 108.05273438 C-48.68549234 112.52038248 -49.69253267 116.67692255 -51 121 C-52.53937356 128.85080515 -53.42730288 137.60352817 -50 145 C-51.98 145 -53.96 145 -56 145 C-59.2076938 139.86768992 -59.2002707 136.6686052 -58 131 C-57.7215625 129.824375 -57.7215625 129.824375 -57.4375 128.625 C-55.75661758 118.53970545 -57.77418834 108.04727774 -59 98 C-61.74965228 97.80488275 -64.49942132 97.61863567 -67.25 97.4375 C-68.02730469 97.38142578 -68.80460937 97.32535156 -69.60546875 97.26757812 C-70.73662109 97.19506836 -70.73662109 97.19506836 -71.890625 97.12109375 C-72.58188477 97.0739624 -73.27314453 97.02683105 -73.98535156 96.97827148 C-76.13617072 97.00146864 -77.94084871 97.4004236 -80 98 C-80.12375 99.0725 -80.2475 100.145 -80.375 101.25 C-81 105 -81 105 -82.0625 107 C-85.42867499 114.18117331 -81.43133942 123.92701259 -79 131 C-77.536472 133.8556644 -75.96871244 136.48930364 -74.171875 139.14453125 C-73 141 -73 141 -73 143 C-76.00631079 143.33403453 -77.55424759 143.28842803 -80.125 141.625 C-82.35701662 138.50017673 -83.08811307 135.69561716 -84.07421875 132.015625 C-85.87395983 126.15317726 -88.50848433 120.59583131 -91 115 C-90.77104328 117.73241767 -90.51773464 120.45883775 -90.25 123.1875 C-90.188125 123.95642578 -90.12625 124.72535156 -90.0625 125.51757812 C-89.54377482 130.55353504 -88.54040848 133.17894939 -85 137 C-85 137.66 -85 138.32 -85 139 C-87.97 139.99 -87.97 139.99 -91 141 C-96.13014179 135.4898477 -96.5600805 129.30086672 -97.64453125 122.15625 C-97.9878709 120.07357429 -98.41676046 118.0288003 -98.875 115.96875 C-100.72755459 106.47440771 -100.72755459 106.47440771 -98.52734375 102.015625 C-96.5625 99.375 -96.5625 99.375 -94.50390625 97.1484375 C-92.71553038 95.0798018 -92.71553038 95.0798018 -93.2109375 92.40234375 C-94.03826412 89.88350279 -94.95562438 87.43687645 -96 85 C-96.66 85 -97.32 85 -98 85 C-98.185625 85.9590625 -98.185625 85.9590625 -98.375 86.9375 C-98.58125 87.618125 -98.7875 88.29875 -99 89 C-99.99 89.495 -99.99 89.495 -101 90 C-100.9071875 88.7315625 -100.9071875 88.7315625 -100.8125 87.4375 C-100.77384959 83.95500672 -100.77384959 83.95500672 -102.5 81 C-105.07803741 75.29783844 -105.33046264 69.05325675 -104 63 C-99.89015525 57.70233885 -94.46432124 54.59651517 -88 53 C-81.70885662 52.52708945 -75.4367421 53.23873463 -69.1875 53.9375 C-67.93936523 54.06801758 -67.93936523 54.06801758 -66.66601562 54.20117188 C-60.49324636 54.86943479 -60.49324636 54.86943479 -57.99951172 55.52954102 C-55.84677494 56.03605185 -53.98588901 56.09838294 -51.77734375 56.0625 C-50.59881836 56.05089844 -50.59881836 56.05089844 -49.39648438 56.0390625 C-48.58501953 56.02617188 -47.77355469 56.01328125 -46.9375 56 C-45.32168222 55.97445347 -43.70578491 55.95343368 -42.08984375 55.9375 C-41.37691162 55.92589844 -40.66397949 55.91429687 -39.92944336 55.90234375 C-38 56 -38 56 -35 57 C-36.0213061 51.32607721 -37.59416794 48.95069382 -42.24609375 45.5546875 C-44 44 -44 44 -47 39 C-43.04 39.66 -39.08 40.32 -35 41 C-36.175625 40.401875 -37.35125 39.80375 -38.5625 39.1875 C-45.32580717 34.99497033 -49.48023431 27.41531045 -52 20 C-52.53108222 15.73572214 -52.44715174 12.6707276 -50 9 C-49.89042969 9.90363281 -49.78085938 10.80726562 -49.66796875 11.73828125 C-49.50941406 12.91777344 -49.35085937 14.09726562 -49.1875 15.3125 C-49.03667969 16.48425781 -48.88585937 17.65601563 -48.73046875 18.86328125 C-47.9844723 22.06667779 -47.47738329 22.99728595 -45 25 C-44.3162955 26.32467746 -43.65035814 27.65863633 -43 29 C-41.6483633 31.24755753 -41.6483633 31.24755753 -40 33 C-39.01 33 -38.02 33 -37 33 C-36.113125 33.969375 -35.22625 34.93875 -34.3125 35.9375 C-30.81599751 39.6806072 -28.00941376 39.82726159 -23 40 C-23.66 36.7 -24.32 33.4 -25 30 C-22 33 -22 33 -21 37 C-16.38 35.02 -11.76 33.04 -7 31 C-7.75127114 27.24364431 -8.24005726 25.16789693 -10 22 C-5.3125 25.61328125 -5.3125 25.61328125 -4 27 C-4 27.99 -4 28.98 -4 30 C0.10411141 27.26392573 0.27182584 24.72957214 1.4296875 20.0859375 C2.70565637 13.18172237 2.82596559 6.53504542 0 0 Z " fill="#F9F9F9" transform="translate(116,16)"/>
<path d="M0 0 C2.7775373 1.8985698 4.17739712 3.59477702 5.375 6.75 C6.95242733 17.90204436 2.86621667 28.05868948 -2.8359375 37.4453125 C-4.79098194 39.96381952 -6.8831521 41.42309346 -9.4375 43.3125 C-14.21893677 47.67746322 -14.25372728 52.11712077 -14.5534668 58.25366211 C-14.64374759 62.66632859 -14.65491163 67.07171971 -14.5625 71.484375 C-14.625 73.75 -14.625 73.75 -15.625 74.75 C-18.125 74.875 -18.125 74.875 -20.625 74.75 C-21.625 73.75 -21.625 73.75 -21.73852539 71.61694336 C-21.73328857 70.70050049 -21.72805176 69.78405762 -21.72265625 68.83984375 C-21.71943359 67.85048828 -21.71621094 66.86113281 -21.71289062 65.84179688 C-21.70451172 64.80087891 -21.69613281 63.75996094 -21.6875 62.6875 C-21.68298828 61.64271484 -21.67847656 60.59792969 -21.67382812 59.52148438 C-21.66199913 56.9309334 -21.64551689 54.34049441 -21.625 51.75 C-22.2128125 51.90984375 -22.800625 52.0696875 -23.40625 52.234375 C-27.58518133 53.2055351 -31.26597656 53.51662861 -35.0625 51.375 C-36.625 49.75 -36.625 49.75 -36.625 47.75 C-34.50107494 47.0799166 -32.37582476 46.41403203 -30.25 45.75 C-29.06664062 45.37875 -27.88328125 45.0075 -26.6640625 44.625 C-23.625 43.75 -23.625 43.75 -21.625 43.75 C-21.625 32.2 -21.625 20.65 -21.625 8.75 C-19.975 8.75 -18.325 8.75 -16.625 8.75 C-14.625 10.75 -14.625 10.75 -14.39794922 13.45556641 C-14.40842285 14.57624512 -14.41889648 15.69692383 -14.4296875 16.8515625 C-14.43613281 18.06328125 -14.44257813 19.275 -14.44921875 20.5234375 C-14.46597656 21.79445313 -14.48273438 23.06546875 -14.5 24.375 C-14.50902344 25.65375 -14.51804687 26.9325 -14.52734375 28.25 C-14.55097697 31.41685167 -14.58392371 34.58333424 -14.625 37.75 C-10.44868454 34.56007949 -7.92579597 32.26390809 -5.875 27.3125 C-5.47410156 26.34570312 -5.07320313 25.37890625 -4.66015625 24.3828125 C-4.31855469 23.51398438 -3.97695313 22.64515625 -3.625 21.75 C-3.191875 20.739375 -2.75875 19.72875 -2.3125 18.6875 C-1.31697568 14.43389607 -0.93165714 10.08152908 -1.625 5.75 C-3.21494901 3.42939481 -4.19307859 2.85068438 -6.9375 2.2109375 C-15.16404593 1.94787935 -20.23993569 4.71313339 -26.625 9.75 C-27.45451172 10.61625 -27.45451172 10.61625 -28.30078125 11.5 C-28.73777344 11.9125 -29.17476563 12.325 -29.625 12.75 C-31.8125 12.4375 -31.8125 12.4375 -33.625 11.75 C-33.955 10.1 -34.285 8.45 -34.625 6.75 C-24.30663123 0.21644272 -12.06567957 -7.10778215 0 0 Z " fill="#F5F5F5" transform="translate(396.625,50.25)"/>
<path d="M0 0 C5.75 0.75 5.75 0.75 8 3 C8.85085554 11.49413408 7.79889244 20.38396153 7.3605957 28.89428711 C7.06505088 34.88970193 6.89009027 40.87221545 6.875 46.875 C6.87048828 47.59324951 6.86597656 48.31149902 6.86132812 49.05151367 C6.87387765 53.47574324 7.28419661 57.64836988 8 62 C4.6875 62.3125 4.6875 62.3125 1 62 C-2.03395761 58.23564519 -2.44802099 54.92918448 -2.6875 50.1875 C-2.75324219 49.02605469 -2.81898438 47.86460938 -2.88671875 46.66796875 C-2.92410156 45.78753906 -2.96148437 44.90710938 -3 44 C-3.44730469 44.81984375 -3.89460938 45.6396875 -4.35546875 46.484375 C-4.96003906 47.56203125 -5.56460937 48.6396875 -6.1875 49.75 C-6.77917969 50.81734375 -7.37085938 51.8846875 -7.98046875 52.984375 C-10.05126081 56.07654419 -11.91856945 57.93917065 -15 60 C-18.0625 60.5 -18.0625 60.5 -21 60 C-24.32506993 57.50619755 -25.95674728 54.99913543 -27 51 C-28.24744019 41.96853299 -25.52181959 33.87043759 -20.21484375 26.53125 C-13.92564603 19.1604705 -13.92564603 19.1604705 -9 18.75 C-6 19 -6 19 -3 21 C-3.1875 22.875 -3.1875 22.875 -4 25 C-4.7425 25.28875 -5.485 25.5775 -6.25 25.875 C-10.93077954 27.78986436 -13.07639317 31.08981314 -15.203125 35.48828125 C-17.73392132 41.78853829 -18.52758501 47.24398078 -18 54 C-15.6268418 53.62634055 -14.34925034 53.41233537 -12.76733398 51.54467773 C-12.26182007 50.62344116 -12.26182007 50.62344116 -11.74609375 49.68359375 C-11.36646484 49.00103516 -10.98683594 48.31847656 -10.59570312 47.61523438 C-10.02239258 46.53725586 -10.02239258 46.53725586 -9.4375 45.4375 C-9.05142578 44.74591797 -8.66535156 44.05433594 -8.26757812 43.34179688 C-2.42285952 32.65800972 -0.89214887 23.22909454 -0.4375 11.125 C-0.39431641 10.05507812 -0.35113281 8.98515625 -0.30664062 7.8828125 C-0.20107183 5.25532246 -0.09896209 2.62774578 0 0 Z " fill="#F6F6F6" transform="translate(291,62)"/>
<path d="M0 0 C0 1.65 0 3.3 0 5 C0.7425 5.226875 1.485 5.45375 2.25 5.6875 C6.22591043 7.58509361 8.12755073 10.26765468 10.0859375 14.15625 C12.60845703 22.00408855 12.32633214 32.42522504 8.75 39.875 C6.9539976 43.05680671 5.1029787 45.05244907 2 47 C-1.44862427 47.58561544 -3.79553793 47.67519126 -6.90234375 45.93359375 C-11.47364968 42.38672424 -13.99323272 38.70501457 -15 33 C-16.01475079 21.15171264 -14.69943368 9.50359141 -7 0 C-4.3333581 -1.33332095 -2.83319697 -0.67102033 0 0 Z " fill="#F3F3F3" transform="translate(414,77)"/>
<path d="M0 0 C2.75 0.25 2.75 0.25 5 1 C5 2.65 5 4.3 5 6 C5.721875 6.20625 6.44375 6.4125 7.1875 6.625 C11.68357483 8.82308103 14.10135105 12.2027021 16.3125 16.625 C18.19705755 25.87646433 17.4904202 34.60305325 13 43 C10.36973074 46.48681227 7.8570059 47.84696323 3.5 48.625 C-0.70100805 47.87481999 -3.43108584 46.35878144 -6 43 C-8.99646976 37.37805198 -9.5456687 32.63400936 -9.5 26.3125 C-9.49645508 25.43271484 -9.49291016 24.55292969 -9.48925781 23.64648438 C-9.27880553 15.34429449 -7.51524708 8.0919673 -2 1.671875 C-1.34 1.12015625 -0.68 0.5684375 0 0 Z " fill="#F5F5F5" transform="translate(522,76)"/>
<path d="M0 0 C2.75 0.25 2.75 0.25 5 1 C5 2.65 5 4.3 5 6 C5.721875 6.20625 6.44375 6.4125 7.1875 6.625 C11.68357483 8.82308103 14.10135105 12.2027021 16.3125 16.625 C18.19705755 25.87646433 17.4904202 34.60305325 13 43 C10.36973074 46.48681227 7.8570059 47.84696323 3.5 48.625 C-0.70100805 47.87481999 -3.43108584 46.35878144 -6 43 C-8.99646976 37.37805198 -9.5456687 32.63400936 -9.5 26.3125 C-9.49645508 25.43271484 -9.49291016 24.55292969 -9.48925781 23.64648438 C-9.27880553 15.34429449 -7.51524708 8.0919673 -2 1.671875 C-1.34 1.12015625 -0.68 0.5684375 0 0 Z " fill="#F5F5F5" transform="translate(230,76)"/>
<path d="M0 0 C1.65 0.33 3.3 0.66 5 1 C5 2.65 5 4.3 5 6 C5.7425 6.226875 6.485 6.45375 7.25 6.6875 C11.72935029 8.82537173 14.07151968 12.5330628 16 17 C16.43105795 20.07318959 16.37022258 23.14945729 16.375 26.25 C16.39949219 27.07113281 16.42398438 27.89226562 16.44921875 28.73828125 C16.48338478 35.924536 14.58967966 41.20034631 9.6875 46.5 C6.1010024 48.5017661 4.0541242 48.64012487 0 48 C-4.62909947 44.97328112 -7.01476432 42.12042056 -9 37 C-9.45312169 33.38824556 -9.46439922 29.82378582 -9.4375 26.1875 C-9.45748047 25.24068359 -9.47746094 24.29386719 -9.49804688 23.31835938 C-9.49144895 13.73157972 -6.44492958 6.98200705 0 0 Z " fill="#F6F6F6" transform="translate(580,76)"/>
<path d="M0 0 C-1.07775924 2.74338717 -1.95459295 3.96592583 -4.34765625 5.76171875 C-7.33089946 8.27924211 -8.84861687 10.66777393 -10.75 14.0625 C-11.63945312 15.62677734 -11.63945312 15.62677734 -12.546875 17.22265625 C-14.60110951 21.14889478 -15.15778331 24.05725925 -15.1875 28.4375 C-15.20876953 29.85869141 -15.20876953 29.85869141 -15.23046875 31.30859375 C-14.99614518 34.04501644 -14.39701383 35.66428123 -13 38 C-12.34 38 -11.68 38 -11 38 C-5.51258849 27.68366637 -1.3290958 17.54470619 0.5078125 5.9609375 C1 4 1 4 3 2 C6.125 1.875 6.125 1.875 9 2 C9.02505615 3.13018555 9.0501123 4.26037109 9.07592773 5.42480469 C9.17016956 9.62185817 9.27034926 13.81875263 9.37231445 18.015625 C9.41559986 19.83134234 9.45727944 21.64709871 9.49731445 23.46289062 C9.55517202 26.07433833 9.61882172 28.68559077 9.68359375 31.296875 C9.70030624 32.10743347 9.71701874 32.91799194 9.73423767 33.75311279 C9.82771396 37.31724723 10.04624584 40.56687935 11 44 C4.50159236 44.36783439 4.50159236 44.36783439 2.125 42.625 C0.07985056 39.67089525 -0.24388795 37.42524852 -0.5625 33.875 C-0.68818359 32.50988281 -0.68818359 32.50988281 -0.81640625 31.1171875 C-0.87699219 30.41851562 -0.93757813 29.71984375 -1 29 C-1.31453125 29.67546875 -1.6290625 30.3509375 -1.953125 31.046875 C-6.6469428 40.83037475 -6.6469428 40.83037475 -10 43 C-13.375 43.6875 -13.375 43.6875 -17 43 C-20.76048403 39.76833404 -23.80168396 36.1078162 -24.2734375 31.09375 C-24.54492366 21.48731671 -23.30910685 15.0685336 -17.02734375 7.6796875 C-11.48931693 1.90357728 -8.18675728 -0.31487528 0 0 Z " fill="#F5F5F5" transform="translate(173,80)"/>
<path d="M0 0 C2.31 0 4.62 0 7 0 C7 1.32 7 2.64 7 4 C6.34 4.66 5.68 5.32 5 6 C3.11754432 11.95013964 2.74357532 17.29271107 2.875 23.5 C2.88402344 24.32242188 2.89304687 25.14484375 2.90234375 25.9921875 C2.92563135 27.99492083 2.96149041 29.99750154 3 32 C6.465 31.505 6.465 31.505 10 31 C9.75 32.875 9.75 32.875 9 35 C6.41847698 36.72101535 5.15081975 37 2 37 C2.33 46.24 2.66 55.48 3 65 C-2 64 -2 64 -4 62 C-5.58875661 55.07615946 -6.2780211 48.08953806 -6 41 C-7.65 41 -9.3 41 -11 41 C-11.33 39.68 -11.66 38.36 -12 37 C-9.03 36.505 -9.03 36.505 -6 36 C-6.02320313 34.82824219 -6.04640625 33.65648437 -6.0703125 32.44921875 C-6.39179137 9.58768706 -6.39179137 9.58768706 0 0 Z " fill="#F3F3F3" transform="translate(498,76)"/>
<path d="M0 0 C1.65 0 3.3 0 5 0 C7 2 7 2 7.1953125 3.9453125 C7.13020833 5.96354167 7.06510417 7.98177083 7 10 C11.455 9.505 11.455 9.505 16 9 C15.67 9.99 15.34 10.98 15 12 C12.03 12.66 9.06 13.32 6 14 C5.67 30.17 5.34 46.34 5 63 C0 62 0 62 -1.79199219 59.85400391 C-3.22462406 56.46930977 -3.35768568 54.00706825 -3.328125 50.3359375 C-3.32296875 49.04816406 -3.3178125 47.76039062 -3.3125 46.43359375 C-3.29703125 45.43175049 -3.29703125 45.43175049 -3.28125 44.40966797 C-3.25041767 42.40219419 -3.2422406 40.39441388 -3.234375 38.38671875 C-3.17458981 30.8762041 -2.84002239 23.46447803 -2 16 C-2.66 16.33 -3.32 16.66 -4 17 C-5.99960012 17.039992 -8.00047242 17.04346799 -10 17 C-10 16.01 -10 15.02 -10 14 C-5.545 13.505 -5.545 13.505 -1 13 C-0.67 8.71 -0.34 4.42 0 0 Z " fill="#F5F5F5" transform="translate(472,65)"/>
<path d="M0 0 C2.46800047 1.15173355 4.04783565 2.04783565 6 4 C6.20927429 6.62550354 6.20927429 6.62550354 6.15112305 9.99438477 C6.13417892 11.25231339 6.1172348 12.510242 6.09977722 13.80628967 C6.07078612 15.18466952 6.04142443 16.56304162 6.01171875 17.94140625 C5.9880909 19.34861542 5.96521757 20.75583744 5.94306946 22.16307068 C5.8945116 25.11301619 5.83913977 28.0627284 5.77856445 31.01245117 C5.70097386 34.80115308 5.63663518 38.5899318 5.57690716 42.37895298 C5.53027323 45.28455677 5.47849032 48.19004957 5.42493629 51.09553337 C5.39945359 52.49302017 5.37516071 53.89052918 5.3520565 55.28805733 C5.31869731 57.23713293 5.2780662 59.18608004 5.23706055 61.13500977 C5.21548386 62.24594498 5.19390717 63.35688019 5.17167664 64.5014801 C5 67 5 67 4 68 C1.5625 68.1875 1.5625 68.1875 -1 68 C-3.64939854 65.35060146 -3.23813393 63.40972031 -3.25224304 59.80589294 C-3.24505753 58.95084671 -3.23787201 58.09580048 -3.23046875 57.21484375 C-3.23001053 56.32575821 -3.22955231 55.43667267 -3.2290802 54.52064514 C-3.22605169 52.62662432 -3.21814763 50.73260611 -3.20581055 48.83862305 C-3.18790106 46.00104468 -3.18529864 43.16380005 -3.18554688 40.32617188 C-3.12971113 9.85155835 -3.12971113 9.85155835 0 0 Z " fill="#F6F6F6" transform="translate(546,57)"/>
<path d="M0 0 C2.46800047 1.15173355 4.04783565 2.04783565 6 4 C6.20927429 6.62550354 6.20927429 6.62550354 6.15112305 9.99438477 C6.13417892 11.25231339 6.1172348 12.510242 6.09977722 13.80628967 C6.07078612 15.18466952 6.04142443 16.56304162 6.01171875 17.94140625 C5.9880909 19.34861542 5.96521757 20.75583744 5.94306946 22.16307068 C5.8945116 25.11301619 5.83913977 28.0627284 5.77856445 31.01245117 C5.70097386 34.80115308 5.63663518 38.5899318 5.57690716 42.37895298 C5.53027323 45.28455677 5.47849032 48.19004957 5.42493629 51.09553337 C5.39945359 52.49302017 5.37516071 53.89052918 5.3520565 55.28805733 C5.31869731 57.23713293 5.2780662 59.18608004 5.23706055 61.13500977 C5.21548386 62.24594498 5.19390717 63.35688019 5.17167664 64.5014801 C5 67 5 67 4 68 C1.5625 68.1875 1.5625 68.1875 -1 68 C-3.64939854 65.35060146 -3.23813393 63.40972031 -3.25224304 59.80589294 C-3.24505753 58.95084671 -3.23787201 58.09580048 -3.23046875 57.21484375 C-3.23001053 56.32575821 -3.22955231 55.43667267 -3.2290802 54.52064514 C-3.22605169 52.62662432 -3.21814763 50.73260611 -3.20581055 48.83862305 C-3.18790106 46.00104468 -3.18529864 43.16380005 -3.18554688 40.32617188 C-3.12971113 9.85155835 -3.12971113 9.85155835 0 0 Z " fill="#F6F6F6" transform="translate(254,57)"/>
<path d="M0 0 C2.4375 1.5 2.4375 1.5 4 3 C3.67 4.65 3.34 6.3 3 8 C2.443125 7.649375 1.88625 7.29875 1.3125 6.9375 C-1.53886783 5.78154007 -3.08517222 6.19032562 -6 7 C-6.69362983 12.28338118 -6.69362983 12.28338118 -4.6875 17.03125 C-2.85434193 19.09355283 -0.95863628 21.05651758 1 23 C7.58849309 29.74382103 7.58849309 29.74382103 9.1875 34.625 C8.91113697 39.59953461 6.59419957 42.1507285 3.4375 45.8125 C0.18423348 48.49998104 -3.75769365 48.38814883 -7.77734375 48.35546875 C-11.35374894 47.78349534 -12.86426542 45.78292688 -15 43 C-17 40 -17 40 -16.625 37.8125 C-16.41875 37.214375 -16.2125 36.61625 -16 36 C-14.68 36 -13.36 36 -12 36 C-11.71125 36.804375 -11.4225 37.60875 -11.125 38.4375 C-10.26737432 41.1326468 -10.26737432 41.1326468 -8 42 C-5 42.25 -5 42.25 -2 42 C0.33278733 40.10892859 0.33278733 40.10892859 0.1875 36.9375 C-0.62271804 32.05593633 -4.31498502 29.5012442 -7.765625 26.25390625 C-12.12144944 21.86000642 -14.16292158 17.49227099 -14.5 11.3125 C-14.30459745 7.11496378 -13.10507906 4.92764597 -10 2 C-6.28986601 -0.47342266 -4.38939738 -0.38503486 0 0 Z " fill="#F0F0F0" transform="translate(327,76)"/>
<path d="M0 0 C4.75 0.75 4.75 0.75 7 3 C7.125 6.125 7.125 6.125 7 9 C7.49628906 8.57847656 7.99257813 8.15695313 8.50390625 7.72265625 C12.87776824 4.1953482 16.14051326 1.78298197 22 2 C27.64179104 4.92537313 27.64179104 4.92537313 29 9 C24.125 8.125 24.125 8.125 23 7 C20.6704053 6.49758678 20.6704053 6.49758678 18 7 C15.37500791 9.12359384 15.37500791 9.12359384 13 12 C12.13761719 12.80824219 11.27523438 13.61648437 10.38671875 14.44921875 C6.69802251 18.88604878 7.29531982 24.1795341 7.3125 29.6875 C7.2959273 31.75398789 7.27154407 33.82043212 7.23828125 35.88671875 C7.23868408 36.79639404 7.23908691 37.70606934 7.23950195 38.64331055 C7 41 7 41 5 44 C1.125 43.125 1.125 43.125 0 42 C-0.08874135 38.89748799 -0.11518455 35.8173188 -0.09765625 32.71484375 C-0.0962413 31.78402481 -0.09482635 30.85320587 -0.09336853 29.8941803 C-0.08775172 26.90858809 -0.0751964 23.92306971 -0.0625 20.9375 C-0.05748716 18.91862087 -0.05292388 16.89974057 -0.04882812 14.88085938 C-0.03777683 9.92054428 -0.02050095 4.96028468 0 0 Z " fill="#F2F2F2" transform="translate(430,78)"/>
<path d="M0 0 C4.75 0.75 4.75 0.75 7 3 C7.125 6.125 7.125 6.125 7 9 C7.66 9 8.32 9 9 9 C9 8.34 9 7.68 9 7 C12.62620214 3.80705838 15.83336584 2.01977346 20.6875 1.9375 C24.25787667 3.08271516 26.35635373 4.35635373 29 7 C29 7.66 29 8.32 29 9 C24.125 8.125 24.125 8.125 23 7 C20.6704053 6.49758678 20.6704053 6.49758678 18 7 C15.41636938 9.08113411 15.41636938 9.08113411 13 12 C12.4944458 12.45568359 11.9888916 12.91136719 11.46801758 13.38085938 C6.80538628 17.90097115 6.27192982 21.78270643 6.1171875 28.14648438 C6.11976563 29.23251953 6.12234375 30.31855469 6.125 31.4375 C6.104375 32.55060547 6.08375 33.66371094 6.0625 34.81054688 C6.01562324 37.54111793 5.99553828 40.26911087 6 43 C4.125 43.625 4.125 43.625 2 44 C0 42 0 42 -0.24050903 40.16500854 C-0.23606781 39.42332428 -0.23162659 38.68164001 -0.22705078 37.91748047 C-0.22689972 37.07675995 -0.22674866 36.23603943 -0.22659302 35.36984253 C-0.21627045 34.46146637 -0.20594788 33.55309021 -0.1953125 32.6171875 C-0.1924826 31.68778351 -0.18965271 30.75837952 -0.18673706 29.80081177 C-0.17552069 26.8254115 -0.1504136 23.85030965 -0.125 20.875 C-0.11497208 18.86068142 -0.1058459 16.84635814 -0.09765625 14.83203125 C-0.07557661 9.88790544 -0.04103693 4.94400335 0 0 Z " fill="#F7F7F7" transform="translate(189,78)"/>
<path d="M0 0 C3.32046051 9.96138154 -2.0292164 21.82744198 -6 31 C-7.51357043 33.87813652 -9.09139785 36.36163821 -11 39 C-14 38 -14 38 -15.15625 36.25 C-17.20140884 30.7962431 -16.8225938 25.23668482 -14.83203125 19.82421875 C-11.00251953 11.91908272 -6.25103691 6.07243586 0 0 Z " fill="#2A2A2A" transform="translate(173,80)"/>
<path d="M0 0 C1.921875 0.78125 1.921875 0.78125 4 2 C6.1294657 7.96250395 6.22368413 13.91456226 6.3125 20.1875 C6.33908691 21.34572266 6.33908691 21.34572266 6.36621094 22.52734375 C6.35986146 27.43760674 5.60396576 30.69211997 3 35 C0.625 34.6875 0.625 34.6875 -2 34 C-6.0543638 27.9184543 -5.51612861 20.09231902 -5 13 C-3.99737033 8.17565855 -2.74005442 4.11008164 0 0 Z " fill="#2D2D2D" transform="translate(525,84)"/>
<path d="M0 0 C1.921875 0.78125 1.921875 0.78125 4 2 C6.1294657 7.96250395 6.22368413 13.91456226 6.3125 20.1875 C6.33908691 21.34572266 6.33908691 21.34572266 6.36621094 22.52734375 C6.35986146 27.43760674 5.60396576 30.69211997 3 35 C0.625 34.6875 0.625 34.6875 -2 34 C-6.0543638 27.9184543 -5.51612861 20.09231902 -5 13 C-3.99737033 8.17565855 -2.74005442 4.11008164 0 0 Z " fill="#2D2D2D" transform="translate(233,84)"/>
<path d="M0 0 C0.99 0.33 1.98 0.66 3 1 C7.80116286 10.99748316 7.32254451 23.67496127 4 34 C1.525 34.495 1.525 34.495 -1 35 C-5.68046088 27.87755954 -5.71827203 20.33573594 -5 12 C-2.49185668 2.49185668 -2.49185668 2.49185668 0 0 Z " fill="#2D2D2D" transform="translate(583,84)"/>
<path d="M0 0 C0.99 0.33 1.98 0.66 3 1 C5.51331515 7.07384495 5.29920436 13.19662447 5.25 19.6875 C5.25773437 20.71939453 5.26546875 21.75128906 5.2734375 22.81445312 C5.27085937 23.80767578 5.26828125 24.80089844 5.265625 25.82421875 C5.26336914 26.72229248 5.26111328 27.62036621 5.25878906 28.5456543 C4.98629365 31.12999048 4.30576748 32.77390633 3 35 C1.35 35 -0.3 35 -2 35 C-5.04153509 29.9334641 -5.51037256 25.99247785 -5.4375 20.25 C-5.43157837 19.0599939 -5.43157837 19.0599939 -5.42553711 17.84594727 C-5.27630767 11.7362817 -4.56488818 4.56488818 0 0 Z " fill="#292929" transform="translate(412,84)"/>
<path d="M0 0 C4.875 1.875 4.875 1.875 6 3 C6.08868299 5.95705321 6.11520296 8.89065056 6.09765625 11.84765625 C6.0962413 12.7340831 6.09482635 13.62050995 6.09336853 14.53379822 C6.08775215 17.37673254 6.07519691 20.21958931 6.0625 23.0625 C6.05748711 24.98502491 6.05292384 26.90755104 6.04882812 28.83007812 C6.03777741 33.55341549 6.02050183 38.27669458 6 43 C3.6875 43.3125 3.6875 43.3125 1 43 C-2.14664519 39.32905685 -2.3668681 36.16619104 -2.328125 31.44921875 C-2.32296875 30.19302734 -2.3178125 28.93683594 -2.3125 27.64257812 C-2.291875 26.33740234 -2.27125 25.03222656 -2.25 23.6875 C-2.24484375 22.39392578 -2.2396875 21.10035156 -2.234375 19.76757812 C-2.08969669 2.08969669 -2.08969669 2.08969669 0 0 Z " fill="#F1F1F1" transform="translate(558,80)"/>
<path d="M0 0 C2.26786777 3.40180166 2.14134121 4.88008178 1.52539062 8.81982422 C0.63585558 12.51106397 -0.98572915 15.71881756 -2.75 19.0625 C-3.08515625 19.73087891 -3.4203125 20.39925781 -3.765625 21.08789062 C-6.13714276 25.70965535 -8.90048423 29.83299365 -12 34 C-13.32 33.67 -14.64 33.34 -16 33 C-16.91666006 23.97599099 -14.81830622 15.31242605 -9.47265625 7.875 C-7.46187301 5.74653733 -5.79083025 4.16894348 -2.87890625 3.546875 C-2.25886719 3.36640625 -1.63882812 3.1859375 -1 3 C-0.67 2.01 -0.34 1.02 0 0 Z " fill="#292929" transform="translate(288,83)"/>
<path d="M0 0 C0.66 0 1.32 0 2 0 C2.67154933 1.28913487 3.33708859 2.58140204 4 3.875 C4.37125 4.59429688 4.7425 5.31359375 5.125 6.0546875 C6 8 6 8 6 10 C6.99 9.67 7.98 9.34 9 9 C8.855625 9.763125 8.71125 10.52625 8.5625 11.3125 C7.9591221 14.81948103 7.9591221 14.81948103 7.88671875 17.671875 C7.52395699 25.34169506 7.52395699 25.34169506 4.5625 29.0625 C3.716875 29.701875 2.87125 30.34125 2 31 C1.34 31.66 0.68 32.32 0 33 C-1.78759766 33.77783203 -1.78759766 33.77783203 -3.9140625 34.5078125 C-5.05488281 34.90419922 -5.05488281 34.90419922 -6.21875 35.30859375 C-7.0128125 35.57800781 -7.806875 35.84742188 -8.625 36.125 C-9.42679687 36.40214844 -10.22859375 36.67929687 -11.0546875 36.96484375 C-13.03467679 37.64841148 -15.01711292 38.32488427 -17 39 C-16.62915039 37.07910156 -16.62915039 37.07910156 -16 35 C-13.93359375 33.734375 -13.93359375 33.734375 -11.4375 32.75 C-10.61121094 32.41484375 -9.78492187 32.0796875 -8.93359375 31.734375 C-8.29550781 31.49203125 -7.65742187 31.2496875 -7 31 C-7.55728913 27.65626525 -8.35173889 24.96687001 -10 22 C-5.3125 25.61328125 -5.3125 25.61328125 -4 27 C-4 27.99 -4 28.98 -4 30 C0.10411141 27.26392573 0.27182584 24.72957214 1.4296875 20.0859375 C2.70565637 13.18172237 2.82596559 6.53504542 0 0 Z " fill="#DDDDDD" transform="translate(116,16)"/>
<path d="M0 0 C3.19348002 3.70286948 4.80959932 7.89803731 6.625 12.375 C6.93695312 13.1175 7.24890625 13.86 7.5703125 14.625 C9.25917107 18.74523255 10.47622495 22.54083403 11 27 C6.880244 25.47416445 4.02181904 22.85074368 2 19 C0.4410711 12.70832286 -0.10718064 6.46981333 0 0 Z " fill="#2F2F2F" transform="translate(24,129)"/>
<path d="M0 0 C2.8992226 0.46761655 3.86675182 0.86675182 6 3 C5.92057478 7.28896211 5.65959628 9.32304592 2.625 12.4375 C0 14 0 14 -3 14 C-2.690625 13.443125 -2.38125 12.88625 -2.0625 12.3125 C-0.18765077 8.23194579 0.22888691 5.30110418 -1 1 C-0.67 0.67 -0.34 0.34 0 0 Z " fill="#E6E6E6" transform="translate(309,52)"/>
<path d="M0 0 C0.66 0 1.32 0 2 0 C2.67154933 1.28913487 3.33708859 2.58140204 4 3.875 C4.37125 4.59429688 4.7425 5.31359375 5.125 6.0546875 C6 8 6 8 6 10 C6.99 9.67 7.98 9.34 9 9 C8.566875 9.7734375 8.566875 9.7734375 8.125 10.5625 C6.84450737 13.14213157 6.84450737 13.14213157 6.0625 16.6875 C5.711875 17.780625 5.36125 18.87375 5 20 C4.01 20.33 3.02 20.66 2 21 C2.02320312 19.98679687 2.04640625 18.97359375 2.0703125 17.9296875 C2.0890841 16.57813242 2.1072828 15.22656931 2.125 13.875 C2.14175781 13.20984375 2.15851563 12.5446875 2.17578125 11.859375 C2.21847278 7.50483944 1.59996217 4.04399886 0 0 Z " fill="#E6E6E6" transform="translate(116,16)"/>
<path d="M0 0 C2.375 -0.125 2.375 -0.125 5 0 C7 2 7 2 7.125 4.625 C7.08375 5.40875 7.0425 6.1925 7 7 C3.76509224 6.44225728 2.02144994 5.62788492 0 3 C0 2.01 0 1.02 0 0 Z " fill="#E8E8E8" transform="translate(559,68)"/>
<path d="M0 0 C0.33 0 0.66 0 1 0 C1.12117188 0.89203125 1.24234375 1.7840625 1.3671875 2.703125 C1.53476563 3.87359375 1.70234375 5.0440625 1.875 6.25 C2.03742188 7.41015625 2.19984375 8.5703125 2.3671875 9.765625 C2.91820431 12.58193313 3.55796482 14.55217557 5 17 C4.01 17.33 3.02 17.66 2 18 C-0.68407013 12.63185975 -1.40013509 9.00202636 -1 3 C-0.67 2.01 -0.34 1.02 0 0 Z " fill="#D5D5D5" transform="translate(65,25)"/>
<path d="M0 0 C0.33 0.66 0.66 1.32 1 2 C0.67 2.99 0.34 3.98 0 5 C-3.63 5.66 -7.26 6.32 -11 7 C-10 4 -10 4 -7.71484375 2.83203125 C-6.79832031 2.49558594 -5.88179688 2.15914062 -4.9375 1.8125 C-4.01839844 1.46832031 -3.09929687 1.12414063 -2.15234375 0.76953125 C-1.44207031 0.51558594 -0.73179688 0.26164062 0 0 Z " fill="#393939" transform="translate(110,50)"/>
<path d="M0 0 C1 1 1 1 1.09765625 3.06640625 C1.08605469 3.89011719 1.07445312 4.71382813 1.0625 5.5625 C1.05347656 6.38878906 1.04445313 7.21507813 1.03515625 8.06640625 C1.02355469 8.70449219 1.01195312 9.34257813 1 10 C0.67 10 0.34 10 0 10 C0 7.36 0 4.72 0 2 C-0.99 2.495 -0.99 2.495 -2 3 C-3.99960012 3.039992 -6.00047242 3.04346799 -8 3 C-8 2.01 -8 1.02 -8 0 C-2.25 -1.125 -2.25 -1.125 0 0 Z " fill="#DEDEDE" transform="translate(470,79)"/>
<path d="M0 0 C2 1 2 1 3 3 C-0.63 4.32 -4.26 5.64 -8 7 C-7.67 5.68 -7.34 4.36 -7 3 C-3.5625 1.1875 -3.5625 1.1875 0 0 Z " fill="#E8E8E8" transform="translate(107,48)"/>
<path d="M0 0 C2.90408342 3.87211123 3.85079464 6.40317854 5 11 C3.02 11.99 3.02 11.99 1 13 C0.67 8.71 0.34 4.42 0 0 Z " fill="#434343" transform="translate(24,129)"/>
<path d="M0 0 C4.10801767 1.18676066 5.89448334 1.89448334 9 5 C5.7 4.34 2.4 3.68 -1 3 C-0.67 2.01 -0.34 1.02 0 0 Z " fill="#484848" transform="translate(73,53)"/>
<path d="M0 0 C0.33 0 0.66 0 1 0 C1 2.31 1 4.62 1 7 C-0.65 7.33 -2.3 7.66 -4 8 C-2.68 5.36 -1.36 2.72 0 0 Z " fill="#303030" transform="translate(288,105)"/>
</svg>
