<?xml version="1.0" encoding="UTF-8"?>
<svg version="1.1" xmlns="http://www.w3.org/2000/svg" width="500" height="100">
<path d="M0 0 C165 0 330 0 500 0 C500 33 500 66 500 100 C335 100 170 100 0 100 C0 67 0 34 0 0 Z " fill="#010101" transform="translate(0,0)"/>
<path d="M0 0 C3.32960874 3.32960874 4.20434488 4.77840854 4.5625 9.3125 C4.5546875 11.73828125 4.5546875 11.73828125 4 14 C0.86529881 17.11283118 -2.86153536 18.62051179 -7 20 C-6.34 20.33 -5.68 20.66 -5 21 C-5.8125 22.9375 -5.8125 22.9375 -7 25 C-7.99 25.33 -8.98 25.66 -10 26 C-9.97679687 27.07378906 -9.95359375 28.14757812 -9.9296875 29.25390625 C-9.91091376 30.69009715 -9.8927153 32.12629565 -9.875 33.5625 C-9.85824219 34.26697266 -9.84148438 34.97144531 -9.82421875 35.69726562 C-9.7684421 41.7490321 -10.57120567 46.8568085 -14 52 C-15.22974046 61.72142193 -13.42693886 69.36746922 -9 78 C-10.65 77.67 -12.3 77.34 -14 77 C-14.20681396 76.37432129 -14.41362793 75.74864258 -14.62670898 75.10400391 C-15.56207682 72.27714946 -16.49975921 69.45106812 -17.4375 66.625 C-17.76298828 65.64015625 -18.08847656 64.6553125 -18.42382812 63.640625 C-18.89272461 62.22910156 -18.89272461 62.22910156 -19.37109375 60.7890625 C-19.65911865 59.91975098 -19.94714355 59.05043945 -20.24389648 58.15478516 C-20.95318582 55.98876078 -20.95318582 55.98876078 -22 54 C-24.02463255 53.34786708 -24.02463255 53.34786708 -26 53 C-26.09087891 53.87011719 -26.09087891 53.87011719 -26.18359375 54.7578125 C-26.55064057 58.1798182 -26.91486577 61.55541011 -27.5625 64.9375 C-28.18479368 69.29355574 -28.07812602 73.60758127 -28 78 C-29.32 77.67 -30.64 77.34 -32 77 C-32 69.08 -32 61.16 -32 53 C-35.63 53 -39.26 53 -43 53 C-45.43912981 61.41499784 -44.51491453 66.08815119 -41 74 C-40.67 74.99 -40.34 75.98 -40 77 C-41.828125 76.87890625 -41.828125 76.87890625 -44 76 C-45.484375 73.27734375 -45.484375 73.27734375 -46.75 69.9375 C-47.17796875 68.83277344 -47.6059375 67.72804688 -48.046875 66.58984375 C-48.51867187 65.30787109 -48.51867187 65.30787109 -49 64 C-48.25640327 69.55053286 -48.25640327 69.55053286 -47 75 C-48.32 75 -49.64 75 -51 75 C-54.68904594 60.3975265 -54.68904594 60.3975265 -54 55 C-52.5 52.5625 -52.5 52.5625 -51 51 C-51.66 49.68 -52.32 48.36 -53 47 C-53.99 47.495 -53.99 47.495 -55 48 C-56.73548688 42.79353935 -57.72048694 38.49371291 -57 33 C-53.36434951 29.84910291 -50.05597392 27.93752565 -45.171875 28.0859375 C-44.04265625 28.18132813 -42.9134375 28.27671875 -41.75 28.375 C-39.89761719 28.52388672 -39.89761719 28.52388672 -38.0078125 28.67578125 C-37.03183105 28.75626709 -37.03183105 28.75626709 -36.03613281 28.83837891 C-32.56804601 29.11366349 -29.09658459 29.33645497 -25.625 29.5625 C-24.35914063 29.64628906 -23.09328125 29.73007812 -21.7890625 29.81640625 C-20.40847656 29.90728516 -20.40847656 29.90728516 -19 30 C-20.23251467 26.30245598 -22.00873677 25.37767077 -25 23 C-25 22.34 -25 21.68 -25 21 C-24.34 20.67 -23.68 20.34 -23 20 C-23.680625 19.236875 -24.36125 18.47375 -25.0625 17.6875 C-25.701875 16.800625 -26.34125 15.91375 -27 15 C-26.67 14.01 -26.34 13.02 -26 12 C-25.34 12.33 -24.68 12.66 -24 13 C-23.505 14.485 -23.505 14.485 -23 16 C-19.84621398 18.19012918 -16.59075147 19.66629231 -13 21 C-13.33 19.35 -13.66 17.7 -14 16 C-13.34 16.33 -12.68 16.66 -12 17 C-12 17.66 -12 18.32 -12 19 C-9.36 18.34 -6.72 17.68 -4 17 C-4.495 14.525 -4.495 14.525 -5 12 C-2.525 13.485 -2.525 13.485 0 15 C0 10.05 0 5.1 0 0 Z " fill="#F9F9F9" transform="translate(67,6)"/>
<path d="M0 0 C2.56364483 -0.10845031 5.12266279 -0.18749744 7.6875 -0.25 C8.40873047 -0.28351562 9.12996094 -0.31703125 9.87304688 -0.3515625 C13.67706273 -0.42104224 15.56635634 -0.26451678 18.89453125 1.765625 C22.78748436 5.89692218 23.46418356 9.12812229 23.30859375 14.68359375 C22.77276001 18.70573815 21.51811602 20.77164612 19 24 C12.83381144 28.06706054 6.17257307 27.29121725 -1 27 C-1 26.34 -1 25.68 -1 25 C-0.01 25 0.98 25 2 25 C2 17.08 2 9.16 2 1 C1.34 0.67 0.68 0.34 0 0 Z " fill="#0B0B0B" transform="translate(194,39)"/>
<path d="M0 0 C3.82507383 3.724414 4.30284206 6.7095954 4.5 12 C4.31834532 17.84928077 3.13792321 20.86207679 -1 25 C-4.66120928 25.40680103 -6.3618744 25.5001525 -9.3125 23.1875 C-12.17467852 19.47726858 -12.21342922 16.18225609 -12.3125 11.625 C-12.34988281 10.50351562 -12.38726562 9.38203125 -12.42578125 8.2265625 C-11.91371636 4.34614414 -10.70908823 2.76437575 -8 0 C-4.9637583 -1.51812085 -3.20988224 -0.96296467 0 0 Z " fill="#050505" transform="translate(406,40)"/>
<path d="M0 0 C3.82507383 3.724414 4.30284206 6.7095954 4.5 12 C4.31834532 17.84928077 3.13792321 20.86207679 -1 25 C-4.66120928 25.40680103 -6.3618744 25.5001525 -9.3125 23.1875 C-12.17467852 19.47726858 -12.21342922 16.18225609 -12.3125 11.625 C-12.34988281 10.50351562 -12.38726562 9.38203125 -12.42578125 8.2265625 C-11.91371636 4.34614414 -10.70908823 2.76437575 -8 0 C-4.9637583 -1.51812085 -3.20988224 -0.96296467 0 0 Z " fill="#050505" transform="translate(304,40)"/>
<path d="M0 0 C3.89502909 1.19235584 4.87125653 2.54340373 7.0625 5.9375 C7.96482166 11.61431109 7.56279612 17.171749 6 22.6875 C4.0625 24.9375 4.0625 24.9375 0.6875 26.125 C-2.9375 25.9375 -2.9375 25.9375 -5.8125 23.6875 C-9.42159997 19.01690004 -9.47535419 14.62743119 -8.9375 8.9375 C-7.56501551 3.91136715 -5.83041194 -0.12405132 0 0 Z " fill="#040404" transform="translate(468.9375,39.0625)"/>
<path d="M0 0 C3.89502909 1.19235584 4.87125653 2.54340373 7.0625 5.9375 C7.96482166 11.61431109 7.56279612 17.171749 6 22.6875 C4.0625 24.9375 4.0625 24.9375 0.6875 26.125 C-2.9375 25.9375 -2.9375 25.9375 -5.8125 23.6875 C-9.42159997 19.01690004 -9.47535419 14.62743119 -8.9375 8.9375 C-7.56501551 3.91136715 -5.83041194 -0.12405132 0 0 Z " fill="#040404" transform="translate(153.9375,39.0625)"/>
<path d="M0 0 C13 0 13 0 18 4 C17.56802365 8.7517398 16.67230705 10.92000054 13 14 C13.45375 14.350625 13.9075 14.70125 14.375 15.0625 C16 17 16 17 17 20.5625 C17.67139937 24.24603436 17.67139937 24.24603436 21 26 C20 27 20 27 17.5625 27.25 C16.716875 27.1675 15.87125 27.085 15 27 C12.99706653 23.99559979 12.50728374 22.29006055 11.875 18.8125 C11.70742187 17.91144531 11.53984375 17.01039062 11.3671875 16.08203125 C11.24601563 15.39496094 11.12484375 14.70789062 11 14 C9.02 14 7.04 14 5 14 C5.33 17.96 5.66 21.92 6 26 C4.02 26 2.04 26 0 26 C0 17.42 0 8.84 0 0 Z " fill="#DFDFDF" transform="translate(117,39)"/>
<path d="M0 0 C2.4178712 -0.10826289 4.83087556 -0.18739789 7.25 -0.25 C8.27287109 -0.30027344 8.27287109 -0.30027344 9.31640625 -0.3515625 C12.7658421 -0.41854184 14.65688213 -0.24723878 17.48828125 1.79296875 C19 4 19 4 18.9375 7.5625 C18.0558537 10.79520311 17.6294911 12.0564631 15 14 C15.474375 14.515625 15.94875 15.03125 16.4375 15.5625 C18.42809407 18.66782675 18.65060818 21.36632504 19 25 C20.32 24.67 21.64 24.34 23 24 C23 24.66 23 25.32 23 26 C21.02 26.33 19.04 26.66 17 27 C14.43015167 23.14522751 13.14185734 19.47959418 12 15 C9.03 14.505 9.03 14.505 6 14 C6.33 17.96 6.66 21.92 7 26 C5.35 26 3.7 26 2 26 C2.01047363 25.28344238 2.02094727 24.56688477 2.03173828 23.82861328 C2.07321299 20.59411095 2.09929892 17.35966447 2.125 14.125 C2.14175781 12.99707031 2.15851563 11.86914062 2.17578125 10.70703125 C2.18222656 9.63066406 2.18867188 8.55429687 2.1953125 7.4453125 C2.20578613 6.45031738 2.21625977 5.45532227 2.22705078 4.43017578 C2.24379401 1.81828583 2.24379401 1.81828583 0 0 Z " fill="#DADADA" transform="translate(317,39)"/>
<path d="M0 0 C13 0 13 0 16.375 2.0625 C18 5 18 5 18.1875 8.5625 C17 12 17 12 14.3125 14.4375 C10.84678896 16.07226936 8.77450884 16.35947703 5 16 C5.33 19.3 5.66 22.6 6 26 C4.02 26 2.04 26 0 26 C0 17.42 0 8.84 0 0 Z " fill="#E8E8E8" transform="translate(266,39)"/>
<path d="M0 0 C4.01488353 2.12107054 6.35024468 3.77391445 8 8 C8.92924245 15.05575952 8.3517826 20.31850604 4 26 C1.08871909 28.39140932 -2.24842451 28.47695052 -5.96875 28.38671875 C-9.68051579 27.68005565 -11.41650543 25.70651812 -14 23 C-16.54970765 18.74757662 -16.66146791 14.84259842 -16 10 C-14.67759861 6.27583177 -12.73787857 3.61822259 -9.6875 1.0625 C-6.16469002 -0.33023883 -3.7643485 -0.46228841 0 0 Z M-8.8125 3.1875 C-12.53193302 7.96962816 -12.58268297 13.10161272 -12 19 C-10.44728802 23.06662662 -9.63720598 24.57519602 -6 27 C-2.45421315 27.16025399 -2.45421315 27.16025399 1 26 C4.89550019 21.47619333 4.39556846 15.81082543 4.49609375 10.12109375 C3.89393687 6.33272097 2.68211411 4.69669082 0 2 C-4.13238252 0.41738542 -5.27848219 0.43881948 -8.8125 3.1875 Z " fill="#E6E6E6" transform="translate(472,38)"/>
<path d="M0 0 C4.01488353 2.12107054 6.35024468 3.77391445 8 8 C8.92924245 15.05575952 8.3517826 20.31850604 4 26 C1.08871909 28.39140932 -2.24842451 28.47695052 -5.96875 28.38671875 C-9.68051579 27.68005565 -11.41650543 25.70651812 -14 23 C-16.54970765 18.74757662 -16.66146791 14.84259842 -16 10 C-14.67759861 6.27583177 -12.73787857 3.61822259 -9.6875 1.0625 C-6.16469002 -0.33023883 -3.7643485 -0.46228841 0 0 Z M-8.8125 3.1875 C-12.53193302 7.96962816 -12.58268297 13.10161272 -12 19 C-10.44728802 23.06662662 -9.63720598 24.57519602 -6 27 C-2.45421315 27.16025399 -2.45421315 27.16025399 1 26 C4.89550019 21.47619333 4.39556846 15.81082543 4.49609375 10.12109375 C3.89393687 6.33272097 2.68211411 4.69669082 0 2 C-4.13238252 0.41738542 -5.27848219 0.43881948 -8.8125 3.1875 Z " fill="#E6E6E6" transform="translate(157,38)"/>
<path d="M0 0 C3.81505014 2.10831718 6.37347071 4.96325003 8 9 C8.70857092 13.99295322 8.55152691 17.91664358 6.25 22.4375 C2.78095993 26.38835119 1.50561934 27.83001072 -3.875 28.4375 C-8.17744952 28.26090692 -10.74152479 26.87056149 -14 24 C-16.8362598 19.61668941 -16.66314157 14.0463456 -16 9 C-12.44802968 2.02291545 -8.10231609 -1.68278873 0 0 Z M-11 5 C-12.40053506 7.80107012 -12.2075504 10.18891681 -12.25 13.3125 C-12.27578125 14.44300781 -12.3015625 15.57351562 -12.328125 16.73828125 C-11.87138562 21.27848822 -10.17984928 23.82015072 -7 27 C-4.0850745 27.5838196 -4.0850745 27.5838196 -1 27 C4.02940488 21.83466526 4.35282579 17.9823763 4.27734375 10.99609375 C3.87946232 6.6978535 3.09041524 5.00908853 0 2 C-5.08916342 0.05095869 -7.25891384 1.25891384 -11 5 Z " fill="#DBDBDB" transform="translate(406,38)"/>
<path d="M0 0 C3.81505014 2.10831718 6.37347071 4.96325003 8 9 C8.70857092 13.99295322 8.55152691 17.91664358 6.25 22.4375 C2.78095993 26.38835119 1.50561934 27.83001072 -3.875 28.4375 C-8.17744952 28.26090692 -10.74152479 26.87056149 -14 24 C-16.8362598 19.61668941 -16.66314157 14.0463456 -16 9 C-12.44802968 2.02291545 -8.10231609 -1.68278873 0 0 Z M-11 5 C-12.40053506 7.80107012 -12.2075504 10.18891681 -12.25 13.3125 C-12.27578125 14.44300781 -12.3015625 15.57351562 -12.328125 16.73828125 C-11.87138562 21.27848822 -10.17984928 23.82015072 -7 27 C-4.0850745 27.5838196 -4.0850745 27.5838196 -1 27 C4.02940488 21.83466526 4.35282579 17.9823763 4.27734375 10.99609375 C3.87946232 6.6978535 3.09041524 5.00908853 0 2 C-5.08916342 0.05095869 -7.25891384 1.25891384 -11 5 Z " fill="#DBDBDB" transform="translate(304,38)"/>
<path d="M0 0 C2.56364483 -0.10845031 5.12266279 -0.18749744 7.6875 -0.25 C8.40873047 -0.28351562 9.12996094 -0.31703125 9.87304688 -0.3515625 C13.67706273 -0.42104224 15.56635634 -0.26451678 18.89453125 1.765625 C22.78917288 5.89871408 23.44882707 9.1221158 23.3203125 14.67578125 C22.78204552 18.58149899 21.36545621 20.84605839 19 24 C16.75 24.9375 16.75 24.9375 15 25 C15.7425 23.8553125 15.7425 23.8553125 16.5 22.6875 C18.85799126 16.89077149 18.49406777 11.39977324 17.60546875 5.28515625 C15.4793295 1.70053484 15.4793295 1.70053484 6 1 C6.33 9.25 6.66 17.5 7 26 C5.02 26 3.04 26 1 26 C1.33 17.75 1.66 9.5 2 1 C1.34 0.67 0.68 0.34 0 0 Z " fill="#E4E4E4" transform="translate(194,39)"/>
<path d="M0 0 C2.64 0 5.28 0 8 0 C7.67 8.25 7.34 16.5 7 25 C9.97 24.67 12.94 24.34 16 24 C16.66 22.02 17.32 20.04 18 18 C18.66 18 19.32 18 20 18 C20 20.97 20 23.94 20 27 C13.4 27 6.8 27 0 27 C0 26.34 0 25.68 0 25 C0.99 25 1.98 25 3 25 C3 17.08 3 9.16 3 1 C2.01 0.67 1.02 0.34 0 0 Z " fill="#E4E4E4" transform="translate(170,39)"/>
<path d="M0 0 C0 2.31 0 4.62 0 7 C-0.66 7 -1.32 7 -2 7 C-2.3403125 5.7934375 -2.3403125 5.7934375 -2.6875 4.5625 C-3.74834038 1.76560716 -3.74834038 1.76560716 -6.5 1.125 C-8.99906947 0.79481757 -8.99906947 0.79481757 -11 2 C-11.45554332 4.32228718 -11.45554332 4.32228718 -11 7 C-8.62447591 9.28638264 -8.62447591 9.28638264 -5.5625 11.1875 C-0.07286673 14.85426654 -0.07286673 14.85426654 1 17 C1.38159626 20.51068561 1.52025571 22.30383049 -0.62890625 25.1796875 C-3.69353993 27.53243757 -5.43493758 27.41587228 -9.25 27.25 C-10.32765625 27.21390625 -11.4053125 27.1778125 -12.515625 27.140625 C-13.74539062 27.07101563 -13.74539062 27.07101563 -15 27 C-15 24.03 -15 21.06 -15 18 C-13 21 -13 21 -11.8125 23.1875 C-9.99065827 25.40667656 -9.99065827 25.40667656 -6.3125 25.25 C-5.219375 25.1675 -4.12625 25.085 -3 25 C-2.54497197 22.18727799 -2.54497197 22.18727799 -3 19 C-5.63225224 16.43713167 -8.48061319 14.53260158 -11.49609375 12.44140625 C-14 10 -14 10 -14.9609375 6.37109375 C-15 3 -15 3 -13.1875 0.5 C-8.62559397 -1.64677931 -4.85867335 -0.86795718 0 0 Z " fill="#EDEDED" transform="translate(248,39)"/>
<path d="M0 0 C5.94 0 11.88 0 18 0 C18 1.65 18 3.3 18 5 C17.34 4.01 16.68 3.02 16 2 C12.96133201 1.58862798 10.07840297 1.86806844 7 2 C6.67 5.63 6.34 9.26 6 13 C7.65 12.67 9.3 12.34 11 12 C11.33 10.68 11.66 9.36 12 8 C12.66 8 13.32 8 14 8 C14 11.63 14 15.26 14 19 C12 18 12 18 11 15 C9.35 14.67 7.7 14.34 6 14 C6.14095064 15.6254308 6.28792087 17.25034051 6.4375 18.875 C6.51871094 19.77992187 6.59992188 20.68484375 6.68359375 21.6171875 C6.86989285 24.01110861 6.86989285 24.01110861 8 26 C6.02 26 4.04 26 2 26 C2.33 17.75 2.66 9.5 3 1 C2.01 0.67 1.02 0.34 0 0 Z " fill="#E6E6E6" transform="translate(367,39)"/>
<path d="M0 0 C2.97 0 5.94 0 9 0 C8.01 0.33 7.02 0.66 6 1 C6 8.92 6 16.84 6 25 C9.3 24.67 12.6 24.34 16 24 C16.66 22.35 17.32 20.7 18 19 C18.33 19 18.66 19 19 19 C19 21.64 19 24.28 19 27 C12.73 27 6.46 27 0 27 C0 26.34 0 25.68 0 25 C0.99 25 1.98 25 3 25 C2.89047884 21.20771856 2.75976759 17.4164616 2.625 13.625 C2.5940625 12.54476562 2.563125 11.46453125 2.53125 10.3515625 C2.49257813 9.3203125 2.45390625 8.2890625 2.4140625 7.2265625 C2.3826416 6.27346191 2.3512207 5.32036133 2.31884766 4.33837891 C2.21444204 1.81104824 2.21444204 1.81104824 0 0 Z " fill="#FAFAFA" transform="translate(419,39)"/>
<path d="M0 0 C6.93 0 13.86 0 21 0 C21 2.64 21 5.28 21 8 C18.8614515 5.8614515 18.57344937 4.86724686 18 2 C15.03 1.505 15.03 1.505 12 1 C12.33 9.25 12.66 17.5 13 26 C11.02 26 9.04 26 7 26 C7.33 25.34 7.66 24.68 8 24 C8.15266612 22.26131256 8.24932596 20.51752499 8.31640625 18.7734375 C8.35830078 17.7421875 8.40019531 16.7109375 8.44335938 15.6484375 C8.48267578 14.56820312 8.52199219 13.48796875 8.5625 12.375 C8.60568359 11.28703125 8.64886719 10.1990625 8.69335938 9.078125 C8.7996453 6.3855483 8.90168057 3.69287747 9 1 C6.69 1.66 4.38 2.32 2 3 C1.67 4.65 1.34 6.3 1 8 C0.67 8 0.34 8 0 8 C0 5.36 0 2.72 0 0 Z " fill="#FDFDFD" transform="translate(342,39)"/>
<path d="M0 0 C1.98 0 3.96 0 6 0 C5.67 4.29 5.34 8.58 5 13 C6.98 13 8.96 13 11 13 C11 13.33 11 13.66 11 14 C9.02 14 7.04 14 5 14 C5.33 17.96 5.66 21.92 6 26 C4.02 26 2.04 26 0 26 C0 17.42 0 8.84 0 0 Z " fill="#E8E8E8" transform="translate(117,39)"/>
<path d="M0 0 C6 0 6 0 7.875 1.0625 C9.66830867 4.15097604 9.42841969 6.51143969 9 10 C7.3125 12.4375 7.3125 12.4375 5 14 C3.35 14 1.7 14 0 14 C0 9.38 0 4.76 0 0 Z " fill="#090909" transform="translate(271,40)"/>
<path d="M0 0 C2.64 0 5.28 0 8 0 C7.67 8.58 7.34 17.16 7 26 C5.35 26 3.7 26 2 26 C2.33 17.75 2.66 9.5 3 1 C2.01 0.67 1.02 0.34 0 0 Z " fill="#E4E4E4" transform="translate(442,39)"/>
<path d="M0 0 C3.375 -0.125 3.375 -0.125 7 0 C9 2 9 2 9.3125 5.4375 C9 9 9 9 7.875 10.9375 C6 12 6 12 0 12 C0 8.04 0 4.08 0 0 Z " fill="#0B0B0B" transform="translate(323,40)"/>
<path d="M0 0 C2.6853179 2.34237943 3.78458537 4.4901476 5.0078125 7.81640625 C5.35457031 8.74517578 5.70132813 9.67394531 6.05859375 10.63085938 C6.41050781 11.59830078 6.76242188 12.56574219 7.125 13.5625 C7.8352628 15.48071871 8.5461687 17.39869945 9.2578125 19.31640625 C9.5686377 20.16662354 9.87946289 21.01684082 10.19970703 21.89282227 C10.96431332 24.01238565 10.96431332 24.01238565 12 26 C10.02 26 8.04 26 6 26 C5.74605469 25.14277344 5.49210937 24.28554688 5.23046875 23.40234375 C3.21034054 16.69128111 1.13728206 10.27456412 -2 4 C-1.0625 1.875 -1.0625 1.875 0 0 Z " fill="#E8E8E8" transform="translate(100,39)"/>
<path d="M0 0 C6 0 6 0 7.875 1.125 C9.52854531 3.88090884 9.39365568 5.85075452 9 9 C7.875 10.875 7.875 10.875 6 12 C4.02 12 2.04 12 0 12 C0 8.04 0 4.08 0 0 Z " fill="#080808" transform="translate(122,40)"/>
<path d="M0 0 C2.31 0 4.62 0 7 0 C6.67 4.29 6.34 8.58 6 13 C7.98 13 9.96 13 12 13 C12 13.33 12 13.66 12 14 C10.02 14 8.04 14 6 14 C6.33 17.96 6.66 21.92 7 26 C5.35 26 3.7 26 2 26 C2.01047363 25.28344238 2.02094727 24.56688477 2.03173828 23.82861328 C2.07321299 20.59411095 2.09929892 17.35966447 2.125 14.125 C2.14175781 12.99707031 2.15851563 11.86914062 2.17578125 10.70703125 C2.18222656 9.63066406 2.18867188 8.55429687 2.1953125 7.4453125 C2.20578613 6.45031738 2.21625977 5.45532227 2.22705078 4.43017578 C2.24379401 1.81828583 2.24379401 1.81828583 0 0 Z " fill="#FCFCFC" transform="translate(317,39)"/>
<path d="M0 0 C0.66 0 1.32 0 2 0 C1.67644531 0.6909375 1.35289062 1.381875 1.01953125 2.09375 C-0.13524622 5.38552947 -0.30029546 8.01763805 -0.3125 11.5 C-0.32925781 12.6034375 -0.34601563 13.706875 -0.36328125 14.84375 C0.03638009 18.31607647 1.08324522 20.12739653 3 23 C3 23.66 3 24.32 3 25 C-0.3418448 24.0967987 -1.75605654 23.33647374 -3.8125 20.5 C-5.51574175 15.47991904 -6.36546594 10.05692149 -4.1328125 5.05859375 C-2.91658162 3.21649223 -1.56266081 1.56266081 0 0 Z " fill="#EBEBEB" transform="translate(395,40)"/>
<path d="M0 0 C0.66 0 1.32 0 2 0 C1.67644531 0.6909375 1.35289062 1.381875 1.01953125 2.09375 C-0.13524622 5.38552947 -0.30029546 8.01763805 -0.3125 11.5 C-0.32925781 12.6034375 -0.34601563 13.706875 -0.36328125 14.84375 C0.03638009 18.31607647 1.08324522 20.12739653 3 23 C3 23.66 3 24.32 3 25 C-0.3418448 24.0967987 -1.75605654 23.33647374 -3.8125 20.5 C-5.51574175 15.47991904 -6.36546594 10.05692149 -4.1328125 5.05859375 C-2.91658162 3.21649223 -1.56266081 1.56266081 0 0 Z " fill="#EBEBEB" transform="translate(293,40)"/>
<path d="M0 0 C2.97 0 5.94 0 9 0 C8.01 0.33 7.02 0.66 6 1 C6.33 9.25 6.66 17.5 7 26 C5.35 26 3.7 26 2 26 C2.01047363 25.28344238 2.02094727 24.56688477 2.03173828 23.82861328 C2.07321299 20.59411095 2.09929892 17.35966447 2.125 14.125 C2.14175781 12.99707031 2.15851563 11.86914062 2.17578125 10.70703125 C2.18222656 9.63066406 2.18867187 8.55429687 2.1953125 7.4453125 C2.20578613 6.45031738 2.21625977 5.45532227 2.22705078 4.43017578 C2.24379401 1.81828583 2.24379401 1.81828583 0 0 Z " fill="#F7F7F7" transform="translate(77,39)"/>
<path d="M0 0 C2.97 0 5.94 0 9 0 C8.01 0.33 7.02 0.66 6 1 C6.33 9.25 6.66 17.5 7 26 C5.35 26 3.7 26 2 26 C2.01047363 25.28344238 2.02094727 24.56688477 2.03173828 23.82861328 C2.07321299 20.59411095 2.09929892 17.35966447 2.125 14.125 C2.14175781 12.99707031 2.15851562 11.86914062 2.17578125 10.70703125 C2.18222656 9.63066406 2.18867187 8.55429687 2.1953125 7.4453125 C2.20578613 6.45031738 2.21625977 5.45532227 2.22705078 4.43017578 C2.24379401 1.81828583 2.24379401 1.81828583 0 0 Z " fill="#FAFAFA" transform="translate(61,39)"/>
<path d="M0 0 C3.32960874 3.32960874 4.20434488 4.77840854 4.5625 9.3125 C4.54340914 12.27635648 4.47337108 13.50939454 2.390625 15.66796875 C-1.29195831 18.02842159 -4.66001109 19.34242592 -9 20 C-9.33 20.66 -9.66 21.32 -10 22 C-10 21.34 -10 20.68 -10 20 C-10.99 20.33 -11.98 20.66 -13 21 C-13.33 19.35 -13.66 17.7 -14 16 C-13.34 16.33 -12.68 16.66 -12 17 C-12 17.66 -12 18.32 -12 19 C-9.36 18.34 -6.72 17.68 -4 17 C-4.33 15.35 -4.66 13.7 -5 12 C-3.35 12.99 -1.7 13.98 0 15 C0 10.05 0 5.1 0 0 Z " fill="#CDCDCD" transform="translate(67,6)"/>
<path d="M0 0 C2.34914492 2.34914492 2.73140357 3.95679446 3.625 7.125 C3.88539062 8.03507812 4.14578125 8.94515625 4.4140625 9.8828125 C4.70410156 10.93082031 4.70410156 10.93082031 5 12 C1.7 12 -1.6 12 -5 12 C-4.32823171 8.19331304 -3.39463134 4.60963407 -2 1 C-1.34 0.67 -0.68 0.34 0 0 Z " fill="#222222" transform="translate(99,44)"/>
<path d="M0 0 C0.03738281 0.79664063 0.07476562 1.59328125 0.11328125 2.4140625 C0.47660604 8.27000329 0.79127385 12.91951693 4 18 C4.33 18.66 4.66 19.32 5 20 C1.82966958 19.66032174 1.00117393 19.00130809 -1.1875 16.5625 C-3.51692942 13.26916875 -4.17157359 11.54264025 -4.25 7.5625 C-4.28867187 6.38880859 -4.28867187 6.38880859 -4.328125 5.19140625 C-3.97694014 2.84599307 -2.80183549 0 0 0 Z " fill="#EBEBEB" transform="translate(460,45)"/>
<path d="M0 0 C0.03738281 0.79664063 0.07476562 1.59328125 0.11328125 2.4140625 C0.47660604 8.27000329 0.79127385 12.91951693 4 18 C4.33 18.66 4.66 19.32 5 20 C1.82966958 19.66032174 1.00117393 19.00130809 -1.1875 16.5625 C-3.51692942 13.26916875 -4.17157359 11.54264025 -4.25 7.5625 C-4.28867188 6.38880859 -4.28867188 6.38880859 -4.328125 5.19140625 C-3.97694014 2.84599307 -2.80183549 0 0 0 Z " fill="#EBEBEB" transform="translate(145,45)"/>
<path d="M0 0 C4.31255674 -0.42279968 6.37309762 -0.43099539 10 2.0625 C12 5 12 5 12.1875 8.5625 C11 12 11 12 8.3125 14.4375 C4.84678896 16.07226936 2.77450884 16.35947703 -1 16 C-1 15.67 -1 15.34 -1 15 C0.134375 14.71125 1.26875 14.4225 2.4375 14.125 C3.613125 13.75375 4.78875 13.3825 6 13 C7.20272819 10.59454362 7.10071472 9.05003047 7.0625 6.375 C7.05347656 5.55773438 7.04445313 4.74046875 7.03515625 3.8984375 C7.02355469 3.27195313 7.01195312 2.64546875 7 2 C4.69 1.67 2.38 1.34 0 1 C0 0.67 0 0.34 0 0 Z " fill="#D9D9D9" transform="translate(272,39)"/>
<path d="M0 0 C0.66 0 1.32 0 2 0 C2 2.97 2 5.94 2 9 C-4.6 9 -11.2 9 -18 9 C-18 8.34 -18 7.68 -18 7 C-10.08 6.505 -10.08 6.505 -2 6 C-1.34 4.02 -0.68 2.04 0 0 Z " fill="#858585" transform="translate(188,57)"/>
<path d="M0 0 C7.21153846 -0.48076923 7.21153846 -0.48076923 10.5625 1.5625 C12.58093918 4.98507079 11.87061285 7.22734431 11 11 C9.35 11.66 7.7 12.32 6 13 C6.33 12.01 6.66 11.02 7 10 C7.03954234 7.66700175 7.04401732 5.33291811 7 3 C4.69 2.34 2.38 1.68 0 1 C0 0.67 0 0.34 0 0 Z " fill="#E2E2E2" transform="translate(324,39)"/>
<path d="M0 0 C0.33 0 0.66 0 1 0 C1 2.64 1 5.28 1 8 C-5.27 8 -11.54 8 -18 8 C-18 7.34 -18 6.68 -18 6 C-10.08 5.505 -10.08 5.505 -2 5 C-1.34 3.35 -0.68 1.7 0 0 Z " fill="#999999" transform="translate(437,58)"/>
<path d="M0 0 C0.33 0.99 0.66 1.98 1 3 C1.66 3 2.32 3 3 3 C3 6.96 3 10.92 3 15 C1.68 14.67 0.36 14.34 -1 14 C-0.67 9.38 -0.34 4.76 0 0 Z " fill="#E9E9E9" transform="translate(36,69)"/>
<path d="M0 0 C0.99 0.33 1.98 0.66 3 1 C3.33 1.99 3.66 2.98 4 4 C4.845625 4.495 5.69125 4.99 6.5625 5.5 C7.366875 5.995 8.17125 6.49 9 7 C9 7.99 9 8.98 9 10 C7.35 10 5.7 10 4 10 C3.71125 9.21625 3.4225 8.4325 3.125 7.625 C2.15087746 4.90328368 2.15087746 4.90328368 0 3 C0 2.01 0 1.02 0 0 Z " fill="#C5C5C5" transform="translate(40,18)"/>
<path d="M0 0 C-2 2 -2 2 -4.9375 2.1875 C-8.02215153 2.6407764 -8.02215153 2.6407764 -9.05859375 4.6171875 C-9.79672238 6.37598203 -10.40672268 8.1872082 -11 10 C-11.66 9.34 -12.32 8.68 -13 8 C-13.99 8.495 -13.99 8.495 -15 9 C-14.03714243 5.53371274 -13.07650505 4.06582992 -10.3125 1.6875 C-6.55857236 -0.22487823 -4.15526857 -0.33242149 0 0 Z " fill="#C6C6C6" transform="translate(472,38)"/>
<path d="M0 0 C-2 2 -2 2 -4.9375 2.1875 C-8.02215153 2.6407764 -8.02215153 2.6407764 -9.05859375 4.6171875 C-9.79672238 6.37598203 -10.40672268 8.1872082 -11 10 C-11.66 9.34 -12.32 8.68 -13 8 C-13.99 8.495 -13.99 8.495 -15 9 C-14.03714243 5.53371274 -13.07650505 4.06582992 -10.3125 1.6875 C-6.55857236 -0.22487823 -4.15526857 -0.33242149 0 0 Z " fill="#C6C6C6" transform="translate(157,38)"/>
<path d="M0 0 C1.32 1.32 2.64 2.64 4 4 C1.56680171 6.94545056 -0.32413607 7.32286717 -4 8 C-4.33 8.66 -4.66 9.32 -5 10 C-5 9.34 -5 8.68 -5 8 C-5.99 8.33 -6.98 8.66 -8 9 C-8.33 7.35 -8.66 5.7 -9 4 C-8.01 4.495 -8.01 4.495 -7 5 C-7 5.66 -7 6.32 -7 7 C-4.36 6.34 -1.72 5.68 1 5 C0.67 3.35 0.34 1.7 0 0 Z " fill="#BABABA" transform="translate(62,18)"/>
<path d="M0 0 C1.98 0.495 1.98 0.495 4 1 C4 3.31 4 5.62 4 8 C2.02 8.99 2.02 8.99 0 10 C0.99 8.35 1.98 6.7 3 5 C1.68 4.67 0.36 4.34 -1 4 C-0.67 2.68 -0.34 1.36 0 0 Z " fill="#CFCFCF" transform="translate(223,38)"/>
<path d="M0 0 C1.13186415 1.69779622 2.23762993 3.41585237 3.25 5.1875 C4.9515129 7.35052249 4.9515129 7.35052249 8.1875 7.25 C9.115625 7.1675 10.04375 7.085 11 7 C11.33 7.66 11.66 8.32 12 9 C8.04 9 4.08 9 0 9 C0 6.03 0 3.06 0 0 Z " fill="#C2C2C2" transform="translate(233,57)"/>
<path d="M0 0 C1.09658936 3.28976808 0.79953138 4.71303767 0 8 C0.99 8 1.98 8 3 8 C3 8.66 3 9.32 3 10 C0.36 10 -2.28 10 -5 10 C-5 9.34 -5 8.68 -5 8 C-4.54625 7.566875 -4.0925 7.13375 -3.625 6.6875 C-1.65690769 4.64371183 -0.93273129 2.65469676 0 0 Z " fill="#969696" transform="translate(93,56)"/>
<path d="M0 0 C2.96052484 3.36423277 3.92289822 6.69159287 5 11 C4.34 11.66 3.68 12.32 3 13 C0.78145293 8.37802694 -0.38281159 5.23175837 0 0 Z " fill="#2B2B2B" transform="translate(17,68)"/>
<path d="M0 0 C3.3 0.33 6.6 0.66 10 1 C10 3.31 10 5.62 10 8 C9.34 8 8.68 8 8 8 C7.79375 7.195625 7.5875 6.39125 7.375 5.5625 C6.92125 4.716875 6.4675 3.87125 6 3 C2.94727535 2.10169161 2.94727535 2.10169161 0 2 C0 1.34 0 0.68 0 0 Z " fill="#ACACAC" transform="translate(238,38)"/>
<path d="M0 0 C0.33 0.99 0.66 1.98 1 3 C3.31 3 5.62 3 8 3 C8.33 3.66 8.66 4.32 9 5 C5.7 5 2.4 5 -1 5 C-0.67 3.35 -0.34 1.7 0 0 Z " fill="#777777" transform="translate(95,51)"/>
<path d="M0 0 C0.33 0.99 0.66 1.98 1 3 C-3.48074195 6.36055646 -6.60550707 6.27429625 -12 6 C-10 4 -10 4 -6.5625 3.5625 C-3.05185595 3.00818778 -2.04507691 2.76686876 0 0 Z " fill="#C7C7C7" transform="translate(476,60)"/>
<path d="M0 0 C0.33 0.99 0.66 1.98 1 3 C-3.48074195 6.36055646 -6.60550707 6.27429625 -12 6 C-10 4 -10 4 -6.5625 3.5625 C-3.05185595 3.00818778 -2.04507691 2.76686876 0 0 Z " fill="#C7C7C7" transform="translate(161,60)"/>
<path d="M0 0 C2.97 0 5.94 0 9 0 C9 2.64 9 5.28 9 8 C6.8614515 5.8614515 6.57344937 4.86724686 6 2 C3.03 1.505 3.03 1.505 0 1 C0 0.67 0 0.34 0 0 Z " fill="#CACACA" transform="translate(354,39)"/>
<path d="M0 0 C1.77706209 2.66559313 2.87548273 5.0280615 4 8 C2.68 7.67 1.36 7.34 0 7 C-1.125 2.25 -1.125 2.25 0 0 Z " fill="#E8E8E8" transform="translate(23,75)"/>
<path d="M0 0 C2.97 0 5.94 0 9 0 C9 0.33 9 0.66 9 1 C6.69 1.66 4.38 2.32 2 3 C1.67 4.65 1.34 6.3 1 8 C0.67 8 0.34 8 0 8 C0 5.36 0 2.72 0 0 Z " fill="#E0E0E0" transform="translate(342,39)"/>
</svg>
