<?xml version="1.0" encoding="UTF-8"?>
<svg version="1.1" xmlns="http://www.w3.org/2000/svg" width="432" height="117">
<path d="M0 0 C142.56 0 285.12 0 432 0 C432 38.61 432 77.22 432 117 C289.44 117 146.88 117 0 117 C0 78.39 0 39.78 0 0 Z " fill="#060606" transform="translate(0,0)"/>
<path d="M0 0 C142.56 0 285.12 0 432 0 C432 38.61 432 77.22 432 117 C289.44 117 146.88 117 0 117 C0 100.17 0 83.34 0 66 C0.66 67.32 1.32 68.64 2 70 C6.55673563 78.79420954 11.80464813 85.24214103 21.51059896 88.48406917 C32.3387436 90.72821287 44.22057154 90.14326169 55.21333313 90.10920715 C56.67123194 90.10837411 58.12913106 90.10797815 59.58703011 90.10797423 C63.54301297 90.10665813 67.4989606 90.09901196 71.45493281 90.09015882 C75.74051526 90.08166496 80.02610239 90.0790691 84.31169128 90.07556152 C94.62626999 90.06577839 104.94082073 90.04613421 115.25538209 90.02530077 C120.12284638 90.01568464 124.99031252 90.00712737 129.85777855 89.99844933 C146.04835227 89.96918782 162.2389181 89.93745548 178.42947102 89.89822865 C182.61745004 89.88811007 186.80542908 89.87799822 190.9934082 89.86791992 C192.03417116 89.86541305 193.07493412 89.86290617 194.14723536 89.86032333 C211.03581499 89.82010752 227.92437283 89.79697179 244.812991 89.78094129 C262.18075514 89.76418738 279.54844109 89.73248895 296.9161517 89.68605727 C306.65646628 89.66038139 316.39669812 89.64118729 326.13704872 89.63868141 C334.42326332 89.63649829 342.70931246 89.62073888 350.99546251 89.58734892 C355.21968743 89.57073733 359.4436696 89.56048572 363.66792679 89.56765556 C367.53976339 89.57407419 371.4110958 89.56194063 375.28284302 89.53545066 C376.67823003 89.52909622 378.07366747 89.52935937 379.46904711 89.53716633 C390.15141589 89.59128503 400.41283304 88.41738369 408.5 80.77734375 C417.60934551 69.98371821 416.83122586 57.35765956 416.26953125 43.93115234 C415.57771284 36.40762708 412.11517229 30.73773352 406.75 25.5 C398.20699379 19.39225897 389.86069054 18.41577956 379.5730896 18.48101807 C378.23626481 18.47513262 376.89944678 18.46750027 375.56264079 18.458287 C371.91380715 18.43813303 368.26536467 18.44255251 364.61650109 18.45119452 C360.67249244 18.45615714 356.72857981 18.43803247 352.78460693 18.42277527 C345.95958597 18.39950292 339.13467114 18.39071296 332.30961227 18.39188385 C322.44186569 18.39355561 312.57426026 18.37319272 302.70655139 18.34752855 C286.69516223 18.30648069 270.68379853 18.28314305 254.67236328 18.27099609 C239.12285924 18.25916153 223.57340309 18.23895305 208.02392578 18.20751953 C207.06474044 18.20558343 206.1055551 18.20364733 205.11730354 18.20165256 C200.30513865 18.19188773 195.49297412 18.18195867 190.68080974 18.17194796 C150.78722925 18.08916994 110.89364923 18.03515638 71 18 C70.505 19.485 70.505 19.485 70 21 C70 20.01 70 19.02 70 18 C63.52560354 17.99083735 57.05264464 18.02869187 50.57861328 18.09765625 C48.38108353 18.11570842 46.18344128 18.12340455 43.98583984 18.12011719 C25.12848002 17.84282147 25.12848002 17.84282147 9.03857422 26.74438477 C5.09244532 30.76628034 3.00299953 35.80398357 1 41 C0.67 41 0.34 41 0 41 C0 27.47 0 13.94 0 0 Z " fill="#FEFEFE" transform="translate(0,0)"/>
<path d="M0 0 C1.61230751 0.00848969 1.61230751 0.00848969 3.25718689 0.01715088 C6.66020942 0.03938183 10.06214426 0.0895544 13.46484375 0.140625 C15.78448991 0.16070711 18.10415271 0.17895487 20.42382812 0.1953125 C26.08369885 0.23920288 31.74294356 0.30598088 37.40234375 0.390625 C37.40234375 3.030625 37.40234375 5.670625 37.40234375 8.390625 C30.65234375 12.265625 30.65234375 12.265625 28.40234375 13.390625 C28.40234375 14.710625 28.40234375 16.030625 28.40234375 17.390625 C26.42234375 18.380625 26.42234375 18.380625 24.40234375 19.390625 C24.42554688 20.47601563 24.44875 21.56140625 24.47265625 22.6796875 C24.49142645 24.12499307 24.50962531 25.57030615 24.52734375 27.015625 C24.54410156 27.72847656 24.56085937 28.44132812 24.578125 29.17578125 C24.62847126 34.66352371 23.95370993 39.12324366 20.77734375 43.765625 C18.25968638 48.5720618 18.92580003 52.64742393 20.3046875 57.69140625 C21.02025816 59.98072305 21.76007158 62.26264527 22.52734375 64.53515625 C23.40234375 67.390625 23.40234375 67.390625 23.40234375 70.390625 C24.39234375 70.720625 25.38234375 71.050625 26.40234375 71.390625 C22.48680032 74.00098729 19.18841665 73.65100792 14.65234375 73.578125 C13.80486572 73.5687793 12.9573877 73.55943359 12.08422852 73.54980469 C9.5230191 73.51228486 6.96301669 73.45457888 4.40234375 73.390625 C3.67708496 73.37660645 2.95182617 73.36258789 2.20458984 73.34814453 C-9.23755975 73.08255743 -18.31375253 71.3989374 -26.83984375 63.390625 C-36.26312706 52.66902265 -35.43030308 39.83664494 -34.86279297 26.31738281 C-34.07981992 17.6743985 -29.53041421 11.41309533 -23.015625 5.890625 C-15.32207874 1.11789194 -9.02013736 -0.18161558 0 0 Z " fill="#F8F8F8" transform="translate(34.59765625,17.609375)"/>
<path d="M0 0 C0.19335938 0.60328125 0.38671875 1.2065625 0.5859375 1.828125 C0.97652344 3.02695312 0.97652344 3.02695312 1.375 4.25 C1.63023438 5.03890625 1.88546875 5.8278125 2.1484375 6.640625 C3.72715583 11.42391252 3.72715583 11.42391252 7.625 14.25 C8.40875 14.4975 9.1925 14.745 10 15 C7.50907189 16.24546405 6.58919267 15.7767578 4 15 C5.72226496 18.24849977 5.72226496 18.24849977 9 19 C9 20.32 9 21.64 9 23 C7.62279785 22.97643433 7.62279785 22.97643433 6.21777344 22.95239258 C2.80349051 22.9011913 -0.61038304 22.86361521 -4.02490234 22.83520508 C-5.50120491 22.82014077 -6.97746288 22.79968518 -8.45361328 22.77368164 C-10.57856258 22.73719261 -12.70291901 22.72025067 -14.828125 22.70703125 C-16.1059082 22.6913208 -17.38369141 22.67561035 -18.70019531 22.65942383 C-22.22133351 23.02284406 -23.41068191 23.71191446 -26 26 C-26.66 26 -27.32 26 -28 26 C-27.69147815 27.958964 -27.3780582 29.91715713 -27.0625 31.875 C-26.88847656 32.96554688 -26.71445312 34.05609375 -26.53515625 35.1796875 C-26.14448841 37.93821546 -26.14448841 37.93821546 -25 40 C-24.01 40.33 -23.02 40.66 -22 41 C-22.54723683 44.37462715 -23.0549 46.08235 -25 49 C-24.57252949 55.09145475 -23.25965429 61.03192921 -22 67 C-21.01 67 -20.02 67 -19 67 C-19.66 66.01 -20.32 65.02 -21 64 C-21.4140625 61.51953125 -21.4140625 61.51953125 -21.625 58.8125 C-21.69976563 57.91144531 -21.77453125 57.01039062 -21.8515625 56.08203125 C-21.90054687 55.39496094 -21.94953125 54.70789063 -22 54 C-18.815501 55.5922495 -18.45157492 58.86094144 -17.375 62.0625 C-17.03082031 63.05733398 -17.03082031 63.05733398 -16.6796875 64.07226562 C-16.11324224 65.71259669 -15.55577077 67.35602157 -15 69 C-14.01 69 -13.02 69 -12 69 C-12.680625 67.948125 -12.680625 67.948125 -13.375 66.875 C-16.60776541 61.15549196 -17.51359456 56.47129147 -17 50 C-15.5 47 -15.5 47 -14 45 C-10.7 45.33 -7.4 45.66 -4 46 C-1.31625319 53.88350625 -1.69093235 60.81832717 -3 69 C-3 69.99 -3 70.98 -3 72 C-13.71417872 72.60456181 -21.7851199 71.65349523 -30.3125 64.8125 C-36.87696369 58.64668795 -40.00008319 51.45725936 -40.30859375 42.5625 C-40.94512418 18.89152475 -40.94512418 18.89152475 -32.13671875 8.8828125 C-30.19324097 7.00554539 -28.2455291 5.49841068 -26 4 C-25.36835938 3.56816406 -24.73671875 3.13632812 -24.0859375 2.69140625 C-16.73365069 -1.41054527 -8.1385671 -0.33638165 0 0 Z " fill="#060606" transform="translate(40,18)"/>
<path d="M0 0 C4.875 0.875 4.875 0.875 6 2 C6.06395625 3.62774776 6.057048 5.2583421 6.02172852 6.88696289 C5.99158409 8.44846825 5.99158409 8.44846825 5.96083069 10.04151917 C5.92027809 11.73993202 5.92027809 11.73993202 5.87890625 13.47265625 C5.85529526 14.62543564 5.83168427 15.77821503 5.80735779 16.96592712 C5.73049697 20.66490314 5.6465695 24.36368146 5.5625 28.0625 C5.50930175 30.56314122 5.45656123 33.06379222 5.40429688 35.56445312 C5.27485165 41.70975898 5.13959707 47.85491683 5 54 C0.125 53.125 0.125 53.125 -1 52 C-1.07271741 49.64686445 -1.08370868 47.29166332 -1.0625 44.9375 C-1.05347656 43.64714844 -1.04445313 42.35679688 -1.03515625 41.02734375 C-1.02355469 40.02832031 -1.01195313 39.02929688 -1 38 C-4.96 38 -8.92 38 -13 38 C-13 43.94 -13 49.88 -13 56 C-15.31 55.67 -17.62 55.34 -20 55 C-20 50.05 -20 45.1 -20 40 C-21.32 40 -22.64 40 -24 40 C-23.67 38.68 -23.34 37.36 -23 36 C-21.68 36 -20.36 36 -19 36 C-19 25.77 -19 15.54 -19 5 C-17.35 5 -15.7 5 -14 5 C-13 6 -13 6 -12.88647461 8.77563477 C-12.89171143 9.98533936 -12.89694824 11.19504395 -12.90234375 12.44140625 C-12.90556641 13.74658203 -12.90878906 15.05175781 -12.91210938 16.39648438 C-12.92046599 17.7851569 -12.92893095 19.17382877 -12.9375 20.5625 C-12.94251334 21.95507656 -12.94707653 23.34765481 -12.95117188 24.74023438 C-12.96300566 28.1601987 -12.9794912 31.58007844 -13 35 C-9.04 35 -5.08 35 -1 35 C-1.01160156 33.31132813 -1.02320312 31.62265625 -1.03515625 29.8828125 C-1.0445421 27.63020945 -1.05364144 25.37760519 -1.0625 23.125 C-1.07087891 22.01640625 -1.07925781 20.9078125 -1.08789062 19.765625 C-1.10746751 13.10948511 -0.82879778 6.6060883 0 0 Z " fill="#E9E9E9" transform="translate(89,23)"/>
<path d="M0 0 C4.00226644 3.15330083 4.00226644 3.15330083 4.36328125 5.98046875 C4.40411729 15.84917822 1.164461 22.92668246 -4.9375 30.625 C-5.99904297 31.21474609 -5.99904297 31.21474609 -7.08203125 31.81640625 C-10.18358418 34.83960416 -9.61682798 38.65891286 -9.6875 42.8125 C-9.71714844 43.65748047 -9.74679687 44.50246094 -9.77734375 45.37304688 C-9.8479699 47.45651822 -9.89500795 49.54076506 -9.9375 51.625 C-11.5875 51.295 -13.2375 50.965 -14.9375 50.625 C-14.9375 46.005 -14.9375 41.385 -14.9375 36.625 C-16.95572917 36.72265625 -18.97395833 36.8203125 -20.9921875 36.91796875 C-21.63414062 36.82128906 -22.27609375 36.72460938 -22.9375 36.625 C-23.5975 35.635 -24.2575 34.645 -24.9375 33.625 C-23.66910474 33.11884702 -22.39766898 32.62030901 -21.125 32.125 C-20.41730469 31.8465625 -19.70960938 31.568125 -18.98046875 31.28125 C-16.9375 30.625 -16.9375 30.625 -13.9375 30.625 C-13.9375 22.705 -13.9375 14.785 -13.9375 6.625 C-9.9375 7.625 -9.9375 7.625 -8.9375 8.625 C-8.70048761 11.48377909 -8.51530818 14.32383297 -8.375 17.1875 C-8.33181641 17.99380859 -8.28863281 18.80011719 -8.24414062 19.63085938 C-8.13774738 21.62868805 -8.03709112 23.6268207 -7.9375 25.625 C-3.09087654 18.17007918 -0.12868554 12.72886513 -0.9375 3.625 C-2.46743969 2.09506031 -3.87048823 2.3080384 -6 2.1875 C-11.00102955 2.19546342 -13.48821226 4.02941865 -17.11328125 7.3125 C-18.9375 8.625 -18.9375 8.625 -22.9375 8.625 C-22.71875 6.30078125 -22.71875 6.30078125 -21.9375 3.625 C-15.61383086 -1.45651984 -7.45637144 -3.49021642 0 0 Z " fill="#EEEEEE" transform="translate(268.9375,24.375)"/>
<path d="M0 0 C4.875 0.875 4.875 0.875 6 2 C6.08871273 5.02977804 6.1151935 8.03667022 6.09765625 11.06640625 C6.0962413 11.97502914 6.09482635 12.88365204 6.09336853 13.81980896 C6.08775193 16.73407221 6.07519665 19.64825981 6.0625 22.5625 C6.05748714 24.53320202 6.05292386 26.50390524 6.04882812 28.47460938 C6.03777711 33.31643559 6.02050138 38.15820495 6 43 C3.625 43.1875 3.625 43.1875 1 43 C-1.02350324 39.96474514 -1.32124018 38.80573798 -1.625 35.3125 C-1.69976562 34.50425781 -1.77453125 33.69601563 -1.8515625 32.86328125 C-1.90054688 32.24839844 -1.94953125 31.63351563 -2 31 C-2.42152344 31.63808594 -2.84304687 32.27617188 -3.27734375 32.93359375 C-3.82519531 33.75988281 -4.37304688 34.58617187 -4.9375 35.4375 C-5.48277344 36.26121094 -6.02804688 37.08492187 -6.58984375 37.93359375 C-8 40 -8 40 -9 41 C-11.875 41.375 -11.875 41.375 -15 41 C-17.88561472 38.11438528 -18.26734129 35.18070767 -18.5 31.25 C-18.28209291 24.29772624 -15.19540879 19.42650445 -10.625 14.375 C-7.08035054 12.51827885 -4.81575635 13.10217498 -1 14 C-1.33 14.99 -1.66 15.98 -2 17 C-2.763125 17.226875 -3.52625 17.45375 -4.3125 17.6875 C-7.79950608 19.39045646 -8.64247871 21.16737264 -10.21875 24.625 C-11.54993571 28.67180456 -11.82638036 32.76368082 -12 37 C-8.72082454 36.26865467 -8.72082454 36.26865467 -7.2109375 33.015625 C-6.58855577 31.76554203 -5.97696349 30.51004223 -5.375 29.25 C-5.06304687 28.62867187 -4.75109375 28.00734375 -4.4296875 27.3671875 C-1.28552707 20.94334248 -0.79603842 15.19957108 -0.4375 8.1875 C-0.39431641 7.39923828 -0.35113281 6.61097656 -0.30664062 5.79882812 C-0.20121679 3.86605785 -0.10016906 1.93304974 0 0 Z " fill="#EAEAEA" transform="translate(196,33)"/>
<path d="M0 0 C1.65 0 3.3 0 5 0 C5 1.32 5 2.64 5 4 C5.61359375 4.09410156 6.2271875 4.18820313 6.859375 4.28515625 C9.53566412 5.17888054 9.99102693 5.95452533 11.25 8.4375 C13.74781924 13.97829745 14.22212169 19.57349058 12.1640625 25.34375 C10.71500564 28.35081537 9.36978683 30.63021317 7 33 C4.1875 33.5 4.1875 33.5 1 33 C-4.00375611 27.99624389 -5.17751276 24.35714922 -5.375 17.4375 C-5.36060133 10.50454018 -3.72898609 5.77992845 0 0 Z " fill="#EDEDED" transform="translate(395,43)"/>
<path d="M0 0 C1.65 0 3.3 0 5 0 C5 1.32 5 2.64 5 4 C5.61359375 4.09410156 6.2271875 4.18820313 6.859375 4.28515625 C9.53566412 5.17888054 9.99102693 5.95452533 11.25 8.4375 C13.74781924 13.97829745 14.22212169 19.57349058 12.1640625 25.34375 C10.71500564 28.35081537 9.36978683 30.63021317 7 33 C4.1875 33.5 4.1875 33.5 1 33 C-4.00375611 27.99624389 -5.17751276 24.35714922 -5.375 17.4375 C-5.36060133 10.50454018 -3.72898609 5.77992845 0 0 Z " fill="#EDEDED" transform="translate(355,43)"/>
<path d="M0 0 C1.65 0 3.3 0 5 0 C5 1.32 5 2.64 5 4 C5.61359375 4.09410156 6.2271875 4.18820313 6.859375 4.28515625 C9.53566412 5.17888054 9.99102693 5.95452533 11.25 8.4375 C13.74781924 13.97829745 14.22212169 19.57349058 12.1640625 25.34375 C10.71500564 28.35081537 9.36978683 30.63021317 7 33 C4.1875 33.5 4.1875 33.5 1 33 C-4.00375611 27.99624389 -5.17751276 24.35714922 -5.375 17.4375 C-5.36060133 10.50454018 -3.72898609 5.77992845 0 0 Z " fill="#EDEDED" transform="translate(153,43)"/>
<path d="M0 0 C2.625 0.375 2.625 0.375 5 1 C5 1.99 5 2.98 5 4 C5.598125 4.226875 6.19625 4.45375 6.8125 4.6875 C9.67761083 6.4065665 10.52828977 8.00683158 12 11 C12.84740781 17.63802781 12.99679885 24.37487569 9 30 C8.5875 30.639375 8.175 31.27875 7.75 31.9375 C6 33 6 33 2.5 32.9375 C-1 32 -1 32 -2.8125 30.25 C-6.4639644 23.33143588 -7.36992685 16.74304863 -5.171875 9.1328125 C-2.6563981 2.6563981 -2.6563981 2.6563981 0 0 Z " fill="#EDEDED" transform="translate(277,43)"/>
<path d="M0 0 C-1 3 -1 3 -3.3125 5.25 C-7.75667765 9.79753061 -10.22202031 13.45874364 -10.375 19.8125 C-10.34020691 23.33828684 -10.34020691 23.33828684 -8 26 C-4.32704821 19.18899231 -1.35179983 12.74834541 0.359375 5.1796875 C1 3 1 3 3 1 C3.99 1 4.98 1 6 1 C6.33 10.9 6.66 20.8 7 31 C5.02 30.67 3.04 30.34 1 30 C0.34 27.03 -0.32 24.06 -1 21 C-1.34933594 21.56589844 -1.69867188 22.13179687 -2.05859375 22.71484375 C-2.51363281 23.44832031 -2.96867187 24.18179688 -3.4375 24.9375 C-3.88996094 25.66839844 -4.34242187 26.39929688 -4.80859375 27.15234375 C-6 29 -6 29 -7 30 C-9.25 30.4375 -9.25 30.4375 -12 30 C-15.10452459 27.37840146 -16.61280489 25.68169816 -17.5234375 21.7265625 C-17.99526502 14.6042138 -15.39097626 9.48121866 -11 4 C-7.70580676 0.79662411 -4.66002465 -0.54823819 0 0 Z " fill="#ECECEC" transform="translate(115,45)"/>
<path d="M0 0 C3.3 0.33 6.6 0.66 10 1 C12.68374681 8.88350625 12.30906765 15.81832717 11 24 C11 24.99 11 25.98 11 27 C8.95863605 27.05451714 6.91684144 27.09302485 4.875 27.125 C3.73804688 27.14820312 2.60109375 27.17140625 1.4296875 27.1953125 C-2.05757767 26.99672109 -4.7553862 26.2524801 -8 25 C-7 23 -7 23 -5 22 C-5.66 21.01 -6.32 20.02 -7 19 C-7.4140625 16.51953125 -7.4140625 16.51953125 -7.625 13.8125 C-7.69976563 12.91144531 -7.77453125 12.01039062 -7.8515625 11.08203125 C-7.90054687 10.39496094 -7.94953125 9.70789063 -8 9 C-4.815501 10.5922495 -4.45157492 13.86094144 -3.375 17.0625 C-3.14554688 17.72572266 -2.91609375 18.38894531 -2.6796875 19.07226562 C-2.11324224 20.71259669 -1.55577077 22.35602157 -1 24 C-0.01 24 0.98 24 2 24 C1.54625 23.29875 1.0925 22.5975 0.625 21.875 C-2.60776541 16.15549196 -3.51359456 11.47129147 -3 5 C-1.5 2 -1.5 2 0 0 Z " fill="#070707" transform="translate(26,63)"/>
<path d="M0 0 C4.875 0.875 4.875 0.875 6 2 C6.06395625 3.62774776 6.057048 5.2583421 6.02172852 6.88696289 C5.99158409 8.44846825 5.99158409 8.44846825 5.96083069 10.04151917 C5.92027809 11.73993202 5.92027809 11.73993202 5.87890625 13.47265625 C5.85529526 14.62543564 5.83168427 15.77821503 5.80735779 16.96592712 C5.73049697 20.66490314 5.6465695 24.36368146 5.5625 28.0625 C5.50930175 30.56314122 5.45656123 33.06379222 5.40429688 35.56445312 C5.27485165 41.70975898 5.13959707 47.85491683 5 54 C0.125 53.125 0.125 53.125 -1 52 C-1.07313567 49.46950598 -1.09247527 46.96695163 -1.0625 44.4375 C-1.05798828 43.72658203 -1.05347656 43.01566406 -1.04882812 42.28320312 C-1.03700864 40.52209987 -1.01907263 38.76103964 -1 37 C-2.65 37 -4.3 37 -6 37 C-5.67 36.34 -5.34 35.68 -5 35 C-3.68 35 -2.36 35 -1 35 C-1.00523682 34.29504395 -1.01047363 33.59008789 -1.01586914 32.86376953 C-1.03687271 29.61752237 -1.04973369 26.3712896 -1.0625 23.125 C-1.07087891 22.01640625 -1.07925781 20.9078125 -1.08789062 19.765625 C-1.10746751 13.10948511 -0.82879778 6.6060883 0 0 Z " fill="#F5F5F5" transform="translate(89,23)"/>
<path d="M0 0 C9.57 0 19.14 0 29 0 C28.24872886 3.75635569 27.75994274 5.83210307 26 9 C25.01 8.34 24.02 7.68 23 7 C23.33 7.99 23.66 8.98 24 10 C22.68825887 10.5019875 21.37558403 11.00153577 20.0625 11.5 C19.33160156 11.7784375 18.60070312 12.056875 17.84765625 12.34375 C16 13 16 13 15 13 C15 13.66 15 14.32 15 15 C10.47463334 14.46760392 7.61160373 12.72876727 4 10 C0 4 0 4 0 0 Z " fill="#080808" transform="translate(41,18)"/>
<path d="M0 0 C1.65 0 3.3 0 5 0 C7.77725006 6.26471293 10.37456183 12.28317195 11.54296875 19.0625 C12.02274733 21.42869411 12.02274733 21.42869411 14 25 C9.05 25 4.1 25 -1 25 C-4.4835556 18.0328888 -1.83371357 7.25299205 0 0 Z " fill="#0E0E0E" transform="translate(42,65)"/>
<path d="M0 0 C1.65 0.33 3.3 0.66 5 1 C4.690625 1.5775 4.38125 2.155 4.0625 2.75 C1.98200956 7.15574447 1.75130506 11.40843615 1.4375 16.25 C1.35371094 17.51328125 1.26992188 18.7765625 1.18359375 20.078125 C1.12300781 21.04234375 1.06242187 22.0065625 1 23 C2.98 22.67 4.96 22.34 7 22 C6.67 22.99 6.34 23.98 6 25 C4.35 25.33 2.7 25.66 1 26 C1.33 32.27 1.66 38.54 2 45 C0.68 45 -0.64 45 -2 45 C-4.42130331 41.36804504 -4.21022785 39.61650652 -4.125 35.3125 C-4.09792969 33.54326172 -4.09792969 33.54326172 -4.0703125 31.73828125 C-4.03550781 30.38283203 -4.03550781 30.38283203 -4 29 C-5.32 29 -6.64 29 -8 29 C-8 28.01 -8 27.02 -8 26 C-7.01 25.67 -6.02 25.34 -5 25 C-4.97421875 23.78183594 -4.9484375 22.56367187 -4.921875 21.30859375 C-4.86556059 19.68486165 -4.80821403 18.06116511 -4.75 16.4375 C-4.73582031 15.63763672 -4.72164063 14.83777344 -4.70703125 14.01367188 C-4.47194592 8.25408126 -3.21600854 4.79185272 0 0 Z " fill="#EFEFEF" transform="translate(340,42)"/>
<path d="M0 0 C1.65 0.33 3.3 0.66 5 1 C5 2.98 5 4.96 5 7 C8.465 6.505 8.465 6.505 12 6 C12 6.66 12 7.32 12 8 C9.69 8.66 7.38 9.32 5 10 C4.67 20.89 4.34 31.78 4 43 C0 42 0 42 -1 41 C-1.15858842 38.85613343 -1.25129298 36.70733162 -1.31640625 34.55859375 C-1.37924805 32.60083008 -1.37924805 32.60083008 -1.44335938 30.60351562 C-1.48317608 29.2148467 -1.52288825 27.82617478 -1.5625 26.4375 C-1.60567989 25.04490817 -1.649294 23.65232972 -1.69335938 22.25976562 C-1.79985876 18.83995199 -1.90186923 15.42006237 -2 12 C-3.32 12 -4.64 12 -6 12 C-5.67 11.01 -5.34 10.02 -5 9 C-3.35 9 -1.7 9 0 9 C0 6.03 0 3.06 0 0 Z " fill="#F6F6F6" transform="translate(321,35)"/>
<path d="M0 0 C0.33 1.65 0.66 3.3 1 5 C-1.31 4.34 -3.62 3.68 -6 3 C-6.59130428 5.65934047 -6.59130428 5.65934047 -6 9 C-4.42721672 11.20697009 -2.69778162 13.11426573 -0.82421875 15.0703125 C2.14188044 18.20789922 3.85320515 20.10292038 4.5625 24.4375 C4 28 4 28 1.375 30.9375 C-2.30793525 33.18818265 -3.79696786 33.89426216 -8 33 C-10.9375 30.75 -10.9375 30.75 -13 28 C-12.8125 25.6875 -12.8125 25.6875 -12 24 C-11.34 24 -10.68 24 -10 24 C-9.34 25.32 -8.68 26.64 -8 28 C-6.02 28 -4.04 28 -2 28 C-1.63377531 24.7097909 -1.73025264 23.36990413 -3.71484375 20.6484375 C-4.44832031 19.89820312 -5.18179688 19.14796875 -5.9375 18.375 C-9.47446451 14.71951287 -10.84121093 12.7466798 -11.3125 7.5625 C-11 4 -11 4 -9.4375 1.5625 C-6.18129203 -0.5248128 -3.79004984 -0.2915423 0 0 Z " fill="#EBEBEB" transform="translate(223,43)"/>
<path d="M0 0 C3.875 0.875 3.875 0.875 5 2 C5.06354504 3.38275556 5.05720954 4.76882779 5.02172852 6.15258789 C5.00163223 7.03342545 4.98153595 7.914263 4.96083069 8.8217926 C4.92027809 10.25772011 4.92027809 10.25772011 4.87890625 11.72265625 C4.85529526 12.69786728 4.83168427 13.67307831 4.80735779 14.67784119 C4.73051362 17.80620134 4.64657909 20.93432672 4.5625 24.0625 C4.50930007 26.17772272 4.45655956 28.29295704 4.40429688 30.40820312 C4.27487061 35.60561541 4.13961577 40.802852 4 46 C2.35 45.67 0.7 45.34 -1 45 C-1.02486464 39.87711941 -1.04293752 34.75427458 -1.05493164 29.63134766 C-1.05993604 27.89143257 -1.06674159 26.15152164 -1.07543945 24.41162109 C-1.08767662 21.89940358 -1.09326739 19.38724206 -1.09765625 16.875 C-1.10281754 16.10696045 -1.10797882 15.3389209 -1.11329651 14.54760742 C-1.11380013 9.61241308 -0.70049068 4.88646786 0 0 Z " fill="#F8F8F8" transform="translate(372,30)"/>
<path d="M0 0 C3.875 0.875 3.875 0.875 5 2 C5.06354504 3.38275556 5.05720954 4.76882779 5.02172852 6.15258789 C5.00163223 7.03342545 4.98153595 7.914263 4.96083069 8.8217926 C4.92027809 10.25772011 4.92027809 10.25772011 4.87890625 11.72265625 C4.85529526 12.69786728 4.83168427 13.67307831 4.80735779 14.67784119 C4.73051362 17.80620134 4.64657909 20.93432672 4.5625 24.0625 C4.50930007 26.17772272 4.45655956 28.29295704 4.40429688 30.40820312 C4.27487061 35.60561541 4.13961577 40.802852 4 46 C2.35 45.67 0.7 45.34 -1 45 C-1.02486464 39.87711941 -1.04293752 34.75427458 -1.05493164 29.63134766 C-1.05993604 27.89143257 -1.06674159 26.15152164 -1.07543945 24.41162109 C-1.08767662 21.89940358 -1.09326739 19.38724206 -1.09765625 16.875 C-1.10281754 16.10696045 -1.10797882 15.3389209 -1.11329651 14.54760742 C-1.11380013 9.61241308 -0.70049068 4.88646786 0 0 Z " fill="#F8F8F8" transform="translate(170,30)"/>
<path d="M0 0 C2.475 0.495 2.475 0.495 5 1 C6.3125 3.0625 6.3125 3.0625 7 5 C7.515625 4.505 8.03125 4.01 8.5625 3.5 C11.80680017 1.50350759 14.26217334 1.78435615 18 2 C18.66 3.32 19.32 4.64 20 6 C18.4840625 5.5359375 18.4840625 5.5359375 16.9375 5.0625 C12.95670048 4.99931271 12.11330754 5.01094637 9.125 7.3125 C3.72333102 13.18545553 4.94456197 22.51586622 5 30 C3.35 29.67 1.7 29.34 0 29 C0 19.43 0 9.86 0 0 Z " fill="#E2E2E2" transform="translate(292,44)"/>
<path d="M0 0 C-0.33 0.99 -0.66 1.98 -1 3 C-1.763125 3.226875 -2.52625 3.45375 -3.3125 3.6875 C-6.79950608 5.39045646 -7.64247871 7.16737264 -9.21875 10.625 C-10.54993571 14.67180456 -10.82638036 18.76368082 -11 23 C-8.69 22.34 -6.38 21.68 -4 21 C-6.875 25.875 -6.875 25.875 -8 27 C-10.875 27.375 -10.875 27.375 -14 27 C-16.88561472 24.11438528 -17.26734129 21.18070767 -17.5 17.25 C-17.28209291 10.29772624 -14.19540879 5.42650445 -9.625 0.375 C-6.08035054 -1.48172115 -3.81575635 -0.89782502 0 0 Z " fill="#F0F0F0" transform="translate(195,47)"/>
<path d="M0 0 C4 1 4 1 5.25 3.0625 C5.4975 3.701875 5.745 4.34125 6 5 C6.886875 4.319375 7.77375 3.63875 8.6875 2.9375 C12 1 12 1 14.6875 1.125 C17 2 17 2 20 4 C20 4.66 20 5.32 20 6 C18.824375 5.67 17.64875 5.34 16.4375 5 C13.71257237 4.69938521 12.370816 4.79837761 9.9453125 6.1171875 C4.96167581 10.76996034 4.35311657 15.49585278 4.0625 22 C3.98978735 24.67129138 3.97873727 27.3269715 4 30 C2.68 29.67 1.36 29.34 0 29 C0 19.43 0 9.86 0 0 Z " fill="#F6F6F6" transform="translate(126,44)"/>
<path d="M0 0 C0.99 0 1.98 0 3 0 C3.33 9.9 3.66 19.8 4 30 C2.02 29.67 0.04 29.34 -2 29 C-3.18306728 26.63386544 -3.13354608 25.13219264 -3.125 22.5 C-3.12757812 21.7059375 -3.13015625 20.911875 -3.1328125 20.09375 C-3 18 -3 18 -2 16 C-2.99 16 -3.98 16 -5 16 C-3.16469094 3.67104149 -3.16469094 3.67104149 0 0 Z " fill="#F3F3F3" transform="translate(118,46)"/>
<path d="M0 0 C0.99 0.33 1.98 0.66 3 1 C-1.81776765 17.8929385 -1.81776765 17.8929385 -7 25 C-8.83597798 23.43819473 -9.88096787 22.45121483 -10.50390625 20.08984375 C-10.69093111 13.21979725 -8.21553805 8.35644055 -4 3 C-1.984375 1.1484375 -1.984375 1.1484375 0 0 Z " fill="#0E0E0E" transform="translate(114,47)"/>
<path d="M0 0 C0.99 0.33 1.98 0.66 3 1 C4.50125656 5.01869003 4.18392897 9.3308337 4.1875 13.5625 C4.19974609 14.33013672 4.21199219 15.09777344 4.22460938 15.88867188 C4.23479815 19.78417874 4.20892006 21.6866199 2 25 C-1 24 -1 24 -2.16796875 22.33203125 C-4.29560641 16.36865246 -4.01234476 8.49804144 -1.5 2.6875 C-1.005 1.800625 -0.51 0.91375 0 0 Z " fill="#111111" transform="translate(398,48)"/>
<path d="M0 0 C0.99 0.33 1.98 0.66 3 1 C4.50125656 5.01869003 4.18392897 9.3308337 4.1875 13.5625 C4.19974609 14.33013672 4.21199219 15.09777344 4.22460938 15.88867188 C4.23479815 19.78417874 4.20892006 21.6866199 2 25 C-1 24 -1 24 -2.16796875 22.33203125 C-4.29560641 16.36865246 -4.01234476 8.49804144 -1.5 2.6875 C-1.005 1.800625 -0.51 0.91375 0 0 Z " fill="#111111" transform="translate(358,48)"/>
<path d="M0 0 C0.99 0.33 1.98 0.66 3 1 C4.50125656 5.01869003 4.18392897 9.3308337 4.1875 13.5625 C4.19974609 14.33013672 4.21199219 15.09777344 4.22460938 15.88867188 C4.23479815 19.78417874 4.20892006 21.6866199 2 25 C-1 24 -1 24 -2.16796875 22.33203125 C-4.29560641 16.36865246 -4.01234476 8.49804144 -1.5 2.6875 C-1.005 1.800625 -0.51 0.91375 0 0 Z " fill="#111111" transform="translate(156,48)"/>
<path d="M0 0 C0.66 0 1.32 0 2 0 C4.07255344 4.26847317 4.26873263 7.84656005 4.25 12.5625 C4.25515625 13.86316406 4.2603125 15.16382813 4.265625 16.50390625 C4.02520223 19.66829413 3.68411971 21.37357522 2 24 C0.0625 23.625 0.0625 23.625 -2 23 C-3.51617889 19.96764223 -3.21034412 17.12074987 -3.25 13.75 C-3.27578125 12.44546875 -3.3015625 11.1409375 -3.328125 9.796875 C-2.9843657 5.81908881 -2.01249023 3.41064134 0 0 Z " fill="#0F0F0F" transform="translate(280,48)"/>
<path d="M0 0 C1.32 0.66 2.64 1.32 4 2 C4 11.24 4 20.48 4 30 C2.68 29.67 1.36 29.34 0 29 C-1.22845582 26.54308837 -1.12929202 24.91268822 -1.1328125 22.16796875 C-1.13410156 21.20439453 -1.13539063 20.24082031 -1.13671875 19.24804688 C-1.13285156 18.23806641 -1.12898438 17.22808594 -1.125 16.1875 C-1.12886719 15.18912109 -1.13273437 14.19074219 -1.13671875 13.16210938 C-1.13542969 12.19466797 -1.13414062 11.22722656 -1.1328125 10.23046875 C-1.13168457 9.34770264 -1.13055664 8.46493652 -1.12939453 7.55541992 C-0.99743557 4.94935501 -0.57516098 2.54196024 0 0 Z " fill="#EAEAEA" transform="translate(381,45)"/>
<path d="M0 0 C-1.73421448 7.14983165 -4.09229444 14.36033835 -9 20 C-10.32 20 -11.64 20 -13 20 C-12.72989614 13.40946575 -12.11047193 7.38613563 -8 2 C-2.82758621 -1.4137931 -2.82758621 -1.4137931 0 0 Z " fill="#101010" transform="translate(196,50)"/>
<path d="M0 0 C0.99 0.66 1.98 1.32 3 2 C2.34 2.66 1.68 3.32 1 4 C-0.8828125 3.984375 -0.8828125 3.984375 -3.125 3.75 C-8.16029514 3.58783268 -10.52896081 5.38471922 -14.17578125 8.6875 C-16 10 -16 10 -20 10 C-19.78125 7.67578125 -19.78125 7.67578125 -19 5 C-13.62224598 0.67859052 -6.8095165 -1.3229122 0 0 Z " fill="#DFDFDF" transform="translate(266,23)"/>
<path d="M0 0 C3.184499 1.5922495 3.54842508 4.86094144 4.625 8.0625 C4.85445312 8.72572266 5.08390625 9.38894531 5.3203125 10.07226562 C5.88675776 11.71259669 6.44422923 13.35602157 7 15 C12.94 15.99 12.94 15.99 19 17 C19 17.33 19 17.66 19 18 C16.95863605 18.05451714 14.91684144 18.09302485 12.875 18.125 C11.73804688 18.14820312 10.60109375 18.17140625 9.4296875 18.1953125 C5.94242233 17.99672109 3.2446138 17.2524801 0 16 C1 14 1 14 3 13 C2.34 12.01 1.68 11.02 1 10 C0.5859375 7.51953125 0.5859375 7.51953125 0.375 4.8125 C0.30023437 3.91144531 0.22546875 3.01039062 0.1484375 2.08203125 C0.09945313 1.39496094 0.05046875 0.70789063 0 0 Z " fill="#3C3C3C" transform="translate(18,72)"/>
<path d="M0 0 C0.33 0 0.66 0 1 0 C1 2.64 1 5.28 1 8 C-5.75 11.875 -5.75 11.875 -8 13 C-8 13.99 -8 14.98 -8 16 C-9.9375 15.6875 -9.9375 15.6875 -12 15 C-12.33 14.01 -12.66 13.02 -13 12 C-10.69 11.34 -8.38 10.68 -6 10 C-6.66 8.35 -7.32 6.7 -8 5 C-6.68 5.99 -5.36 6.98 -4 8 C-3.34 6.35 -2.68 4.7 -2 3 C-1.34 3 -0.68 3 0 3 C0 2.01 0 1.02 0 0 Z " fill="#C1C1C1" transform="translate(71,18)"/>
<path d="M0 0 C0.99 0 1.98 0 3 0 C3.50615298 1.26839526 4.00469099 2.53983102 4.5 3.8125 C4.91765625 4.87404297 4.91765625 4.87404297 5.34375 5.95703125 C6 8 6 8 6 11 C6.99 11.33 7.98 11.66 9 12 C8.01 12.66 7.02 13.32 6 14 C3.26722779 11.82779645 1.27111085 10.14172035 0.4453125 6.6640625 C0.21349978 4.43725548 0.05362988 2.23782882 0 0 Z " fill="#E3E3E3" transform="translate(52,77)"/>
<path d="M0 0 C0.33 3.63 0.66 7.26 1 11 C0.01 11.495 0.01 11.495 -1 12 C-1.66 11.67 -2.32 11.34 -3 11 C-3.5953171 8.16079537 -4.06307518 5.85558538 -4 3 C-1.9375 0 -1.9375 0 0 0 Z " fill="#CCCCCC" transform="translate(40,79)"/>
<path d="M0 0 C2.08014266 2.08014266 2.6083023 3.28228507 3.5625 6 C4.29936964 8.07697972 5.01375093 10.02750187 6 12 C4.35 11.67 2.7 11.34 1 11 C0.63743142 9.5437328 0.28520207 8.08488815 -0.0625 6.625 C-0.35833984 5.40683594 -0.35833984 5.40683594 -0.66015625 4.1640625 C-1 2 -1 2 0 0 Z " fill="#DFDFDF" transform="translate(23,76)"/>
<path d="M0 0 C0.28875 0.61875 0.5775 1.2375 0.875 1.875 C1.93720042 4.13325765 1.93720042 4.13325765 4 6 C4.268125 6.639375 4.53625 7.27875 4.8125 7.9375 C6.37031777 10.64318349 8.27796496 11.56734998 11 13 C10.34 13.66 9.68 14.32 9 15 C4.18120383 12.99216826 2.19125535 9.60251625 0 5 C-0.3125 2 -0.3125 2 0 0 Z " fill="#DCDCDC" transform="translate(40,18)"/>
<path d="M0 0 C1.32 0.33 2.64 0.66 4 1 C3.25 6.75 3.25 6.75 1 9 C0.01 8.67 -0.98 8.34 -2 8 C-1.47731534 5.23723823 -0.89130413 2.6739124 0 0 Z " fill="#DEDEDE" transform="translate(209,26)"/>
<path d="M0 0 C3.37462715 0.54723683 5.08235 1.0549 8 3 C8 3.66 8 4.32 8 5 C5.03 4.67 2.06 4.34 -1 4 C-0.67 2.68 -0.34 1.36 0 0 Z " fill="#D7D7D7" transform="translate(138,45)"/>
<path d="M0 0 C1.65 0.33 3.3 0.66 5 1 C5 3.97 5 6.94 5 10 C4.67 10 4.34 10 4 10 C3.67 7.69 3.34 5.38 3 3 C1.68 3 0.36 3 -1 3 C-0.67 2.01 -0.34 1.02 0 0 Z " fill="#B2B2B2" transform="translate(316,44)"/>
<path d="M0 0 C0.33 0 0.66 0 1 0 C1 2.64 1 5.28 1 8 C0.01 8.33 -0.98 8.66 -2 9 C-2 7.02 -2 5.04 -2 3 C-1.34 3 -0.68 3 0 3 C0 2.01 0 1.02 0 0 Z " fill="#DBDBDB" transform="translate(71,18)"/>
<path d="M0 0 C1.65 0 3.3 0 5 0 C5.66 1.32 6.32 2.64 7 4 C4.36 3.67 1.72 3.34 -1 3 C-0.67 2.01 -0.34 1.02 0 0 Z " fill="#EAEAEA" transform="translate(305,46)"/>
<path d="M0 0 C0.28875 0.61875 0.5775 1.2375 0.875 1.875 C1.93720042 4.13325765 1.93720042 4.13325765 4 6 C4.33 6.99 4.66 7.98 5 9 C4.01 9 3.02 9 2 9 C0.14223235 5.86501708 -0.20140476 3.62528568 0 0 Z " fill="#C2C2C2" transform="translate(40,18)"/>
</svg>
