<?xml version="1.0" encoding="UTF-8"?>
<svg version="1.1" xmlns="http://www.w3.org/2000/svg" width="500" height="500">
<path d="M0 0 C165 0 330 0 500 0 C500 165 500 330 500 500 C335 500 170 500 0 500 C0 335 0 170 0 0 Z " fill="#FDFDFD" transform="translate(0,0)"/>
<path d="M0 0 C7.59 0 15.18 0 23 0 C23 165 23 330 23 500 C-37.72 500 -98.44 500 -161 500 C-163.31586643 480.31513531 -163.31586643 480.31513531 -163.98892212 471.03829956 C-164.03793293 470.36843899 -164.08694374 469.69857841 -164.13743973 469.00841904 C-164.18747524 468.32243763 -164.23751076 467.63645622 -164.2890625 466.9296875 C-164.39806226 465.46857926 -164.50731059 464.00748955 -164.61679077 462.54641724 C-164.84253024 459.52329753 -165.06580277 456.50000986 -165.28710938 453.4765625 C-165.56969342 449.61779684 -165.85791956 445.75947703 -166.1478672 441.90125847 C-166.37288658 438.90044512 -166.59533044 435.89944521 -166.81696701 432.89838028 C-166.92231606 431.47507655 -167.02836307 430.05182428 -167.13515091 428.62862778 C-167.28357501 426.64437241 -167.42823555 424.65983663 -167.57275391 422.67529297 C-167.65554596 421.55186493 -167.73833801 420.42843689 -167.82363892 419.27096558 C-168.19190107 412.44081465 -168.06263579 408.23653773 -164.74609375 402.140625 C-164.40755875 401.51073669 -164.06902374 400.88084839 -163.7202301 400.23187256 C-163.00312636 398.90382891 -162.27910432 397.57950014 -161.54858398 396.25878906 C-160.45210904 394.27641247 -159.37562296 392.28428479 -158.30273438 390.2890625 C-153.02865878 380.54464142 -147.65112127 370.77488812 -140.4375 362.3125 C-138.94562426 360.55236037 -137.46757142 358.78045467 -136 357 C-135.472854 356.48872559 -134.94570801 355.97745117 -134.40258789 355.45068359 C-127.97388458 348.51577569 -129.36392229 339.69950575 -129.62573242 330.86669922 C-129.83132428 322.48279848 -129.41271111 316.06775028 -125.52685547 308.54785156 C-121.44226365 299.90915651 -120.92243854 292.16936509 -120.87890625 282.734375 C-120.84691625 281.12357785 -120.81201303 279.51283628 -120.7743988 277.90216064 C-120.68419163 273.70151947 -120.63378593 269.50135355 -120.59222412 265.29998779 C-120.54301505 261.07841504 -120.45402916 256.85769718 -120.36914062 252.63671875 C-120.20401435 244.07180735 -120.09654121 235.50708221 -120.01846695 226.94097137 C-120.00150317 225.15799108 -119.98118502 223.37504353 -119.96054077 221.59210205 C-119.86457345 213.08758958 -119.86972981 204.73884416 -120.91821289 196.28222656 C-121.55532219 190.58694305 -122.05278044 185.86608722 -119.1796875 180.7734375 C-115.21326928 176.94909994 -111.02586292 174.46574304 -106.125 172.08203125 C-94.71774718 166.46751321 -89.61059111 159.80143394 -83.52734375 148.70898438 C-80.5190887 143.37337088 -77.23619511 138.19943268 -74 133 C-78.98377228 133.2576889 -83.96250198 133.55822553 -88.94140625 133.8972168 C-90.63210531 134.00643467 -92.3235801 134.10430244 -94.015625 134.19018555 C-105.29952398 134.41987591 -105.29952398 134.41987591 -114.96875 139.49609375 C-115.9941696 140.65091299 -117.00688692 141.81728311 -118 143 C-118.99 143.66 -119.98 144.32 -121 145 C-121.17798718 140.46132685 -121.21769204 137.01464888 -119 133 C-116.49511719 131.4453125 -116.49511719 131.4453125 -113.296875 130.125 C-111.50624634 129.36860229 -111.50624634 129.36860229 -109.67944336 128.59692383 C-108.36983105 128.06411876 -107.06001115 127.53182368 -105.75 127 C-104.40368024 126.44007057 -103.05806717 125.87843921 -101.71313477 125.31518555 C-99.61686342 124.43760209 -97.52008673 123.56150849 -95.42042542 122.69206238 C-90.50636549 120.65311824 -85.64180905 118.52109534 -80.79296875 116.33203125 C-78.81129635 115.44455485 -76.82918623 114.55806156 -74.8470459 113.67163086 C-73.59313879 113.10748087 -72.34134203 112.53861196 -71.09191895 111.96459961 C-63.64291216 108.55019815 -56.9484103 106.30623216 -48.76269531 105.52612305 C-42.86067468 104.40215217 -39.497296 99.66117914 -35.64453125 95.38671875 C-28.37890368 87.60292239 -28.37890368 87.60292239 -22.875 87.375 C-19.34138404 86.86860779 -18.19574561 86.20638035 -15.69921875 83.57421875 C-5.31432362 67.97132038 -7 42.83445702 -7 25 C-10.96 35.56 -14.92 46.12 -19 57 C-20.25879107 53.22362679 -19.39312916 50.66873723 -18.41796875 46.953125 C-18.24372879 46.26369812 -18.06948883 45.57427124 -17.88996887 44.86395264 C-17.33016191 42.65726138 -16.75887932 40.45371983 -16.1875 38.25 C-15.81372195 36.78143591 -15.44066697 35.31268757 -15.06835938 33.84375 C-9.0211938 10.09301881 -9.0211938 10.09301881 0 0 Z " fill="#535353" transform="translate(477,0)"/>
<path d="M0 0 C67.32 0 134.64 0 204 0 C202.02 12.87 200.04 25.74 198 39 C199.95940237 47.21017189 201.43193789 52.51528838 205.375 59.4375 C206.14864301 60.96993964 206.91294951 62.50712754 207.66796875 64.04882812 C209.3608406 67.45941112 211.14354216 70.80358054 212.99101257 74.13238525 C214.07359158 76.13621649 215.08090455 78.16834468 216.08276367 80.21362305 C217.46673811 83.00502158 218.92272806 85.5722267 220.77734375 88.0859375 C221.28467041 88.78050049 221.79199707 89.47506348 222.31469727 90.19067383 C222.85022217 90.91150146 223.38574707 91.6323291 223.9375 92.375 C225.09136704 93.94905662 226.24500587 95.52328054 227.3984375 97.09765625 C227.98979492 97.90090332 228.58115234 98.70415039 229.19042969 99.53173828 C232.72492261 104.35280189 236.19989217 109.21712258 239.68530273 114.07373047 C240.19262939 114.77771973 240.69995605 115.48170898 241.22265625 116.20703125 C241.66359619 116.8203833 242.10453613 117.43373535 242.55883789 118.06567383 C243.03442139 118.70400146 243.51000488 119.3423291 244 120 C244.55582764 120.81645996 245.11165527 121.63291992 245.68432617 122.47412109 C248.68660163 125.74892783 251.85912634 127.30752503 255.828125 129.20703125 C256.95163361 129.76241829 256.95163361 129.76241829 258.09783936 130.32902527 C260.47646934 131.50163283 262.86291481 132.65721814 265.25 133.8125 C266.87033787 134.60761184 268.49013612 135.40382435 270.109375 136.20117188 C274.06678327 138.14691226 278.03128428 140.07743546 282 142 C281.67 142.99 281.34 143.98 281 145 C274.52522022 145.35591358 268.70285333 144.0123597 262.4140625 142.55859375 C261.31653656 142.31206558 260.21901062 142.06553741 259.08822632 141.8115387 C255.59884886 141.02723564 252.11176873 140.23331444 248.625 139.4375 C245.11668496 138.63871685 241.60794312 137.84214692 238.09750366 137.05274963 C235.91607074 136.5620877 233.73587155 136.06590348 231.55703735 135.56382751 C230.08948502 135.23337181 230.08948502 135.23337181 228.59228516 134.89624023 C227.72737457 134.6986058 226.86246399 134.50097137 225.97134399 134.29734802 C225.32080048 134.19922318 224.67025696 134.10109833 224 134 C223.67 134.33 223.34 134.66 223 135 C228.76615051 142.51991057 234.55847141 150.01898831 240.375 157.5 C241.26662842 158.64734619 241.26662842 158.64734619 242.17626953 159.81787109 C243.29659213 161.25774134 244.4230782 162.69284417 245.55664062 164.12231445 C247 166 247 166 248.8046875 168.82421875 C252.20090343 172.19021924 256.2209386 173.0447642 260.75 174.3125 C261.63816406 174.57611328 262.52632813 174.83972656 263.44140625 175.11132812 C265.62354245 175.75658345 267.80906248 176.38542993 270 177 C270.103125 178.051875 270.20625 179.10375 270.3125 180.1875 C270.72780452 183.89745553 270.72780452 183.89745553 272.45703125 186.24609375 C274.88230716 190.57475075 275.10607386 195.18551026 275.6875 200.0625 C275.81705078 201.05572266 275.94660156 202.04894531 276.08007812 203.07226562 C276.59260087 207.09923006 277 210.93295157 277 215 C271.75750679 214.07888904 266.54307652 213.15558533 261.375 211.875 C253.71627243 210.15124451 245.95041272 211.07605774 238.21484375 211.875 C237.31431778 211.96378418 236.41379181 212.05256836 235.48597717 212.14404297 C232.63605396 212.42521641 229.78673675 212.7119591 226.9375 213 C224.08467809 213.28786622 221.23175668 213.57433537 218.37831116 213.85595703 C216.61153523 214.03033132 214.84509692 214.20817503 213.0790863 214.39013672 C212.26786819 214.47021973 211.45665009 214.55030273 210.62084961 214.6328125 C209.91963486 214.70387207 209.2184201 214.77493164 208.49595642 214.84814453 C201.65969281 215.26406686 195.19260139 214.78520154 188.42333984 213.88598633 C187.49810013 213.76722137 186.57286041 213.64845642 185.61958313 213.52609253 C182.56605489 213.13290246 179.51351767 212.73250978 176.4609375 212.33203125 C174.29901619 212.05211469 172.13703788 211.7726381 169.9750061 211.49357605 C164.26470666 210.75527533 158.55522457 210.01082826 152.84588623 209.26513672 C148.30054068 208.67238024 143.75468919 208.08356733 139.2087822 207.49513435 C134.75119581 206.91810592 130.29376671 206.33986757 125.83634186 205.76159286 C123.62877514 205.47535281 121.42116913 205.18941553 119.21352386 204.90378189 C108.01514428 203.45453295 96.82089455 201.98576452 85.63769531 200.42333984 C83.04203491 200.06517769 80.44625251 199.70791465 77.85042191 199.35098839 C75.50300659 199.02410446 73.15777644 198.68400767 70.81234741 198.34321594 C59.81656744 196.79809052 50.1614264 197.30321189 39.3671875 199.671875 C38.2239653 199.91831757 38.2239653 199.91831757 37.05764771 200.16973877 C35.46554538 200.51582402 33.87422272 200.86551504 32.28369141 201.21875 C29.87578079 201.74982779 27.46373992 202.25804628 25.05078125 202.765625 C17.03352394 204.50256298 9.8372926 206.22922543 3 211 C1.515 211.99 1.515 211.99 0 213 C0 142.71 0 72.42 0 0 Z " fill="#545454" transform="translate(0,0)"/>
<path d="M0 0 C80.19 0 160.38 0 243 0 C246.40341857 10.21025571 243.4829622 22.69310122 241.296875 32.8515625 C241.01409156 34.20801321 240.73223048 35.56465649 240.45123291 36.92147827 C239.86567885 39.73186173 239.26963631 42.53973982 238.66552734 45.34619141 C237.89454429 48.93180123 237.15026511 52.52236133 236.41349411 56.1151371 C235.8387027 58.90379537 235.25035989 61.68945961 234.65787506 64.4744072 C234.2428492 66.43649953 233.83892741 68.40093014 233.4352417 70.36538696 C233.04529022 72.15412735 233.04529022 72.15412735 232.64746094 73.97900391 C232.42539978 75.02408112 232.20333862 76.06915833 231.97454834 77.14590454 C229.95956858 83.04704288 226.15643114 85.83439571 220.875 88.8125 C219.82054687 89.41707031 218.76609375 90.02164063 217.6796875 90.64453125 C215 92 215 92 213 92 C212.87625 91.07058594 212.7525 90.14117187 212.625 89.18359375 C211.42015916 81.96207898 210.54375067 77.21972271 204.515625 72.84375 C201.22493083 70.43193688 198.33915526 67.67180346 195.375 64.875 C194.30146541 63.87026936 193.22599033 62.86760745 192.1484375 61.8671875 C191.68614746 61.43519043 191.22385742 61.00319336 190.74755859 60.55810547 C188.2201014 58.30465034 185.6082493 56.15938145 183 54 C183.5347998 54.80219971 184.06959961 55.60439941 184.62060547 56.4309082 C204.33752328 86.00628492 204.33752328 86.00628492 202.99414062 94.296875 C200.84330751 99.73438229 195.63683149 101.52888805 190.578125 103.75 C186.17035627 105.59759606 181.71868352 107.30620942 177.25 109 C175.01484098 109.89192532 172.78173586 110.78901602 170.55078125 111.69140625 C166.28101955 113.41077338 162.00151707 115.10004959 157.70898438 116.76171875 C151.85842079 119.03514128 146.10361762 121.48692336 140.37011719 124.0390625 C138 125 138 125 136 125 C135.6376123 124.35562988 135.27522461 123.71125977 134.90185547 123.04736328 C133.22768637 120.07242391 131.55135506 117.09870811 129.875 114.125 C129.02035156 112.60519531 129.02035156 112.60519531 128.1484375 111.0546875 C124.5307272 104.64147378 120.82524706 98.29168542 117 92 C117.45439453 93.69527832 117.45439453 93.69527832 117.91796875 95.42480469 C119.0411383 99.62041921 120.15777907 103.81774826 121.27246094 108.015625 C121.75570773 109.83185455 122.24072109 111.64761503 122.72753906 113.46289062 C123.42718623 116.0730029 124.12045196 118.68473906 124.8125 121.296875 C125.03123779 122.10743347 125.24997559 122.91799194 125.4753418 123.75311279 C125.77565308 124.89384247 125.77565308 124.89384247 126.08203125 126.05761719 C126.25968018 126.72380066 126.4373291 127.38998413 126.62036133 128.07635498 C127 130 127 130 127 134 C123.56669363 137.68452391 121.53806392 138.87722771 116.4765625 139.28125 C113.84569555 139.26024507 111.21485966 139.19704753 108.5859375 139.09375 C105.71045193 139.01857391 103.46297226 139.16092017 100.6875 139.75 C94.6906075 140.15656898 89.51741496 137.9314667 84.76190186 134.28283691 C82.55067889 132.23951364 80.45041887 130.12671445 78.3671875 127.953125 C77.6044754 127.18192322 76.84176331 126.41072144 76.05593872 125.6161499 C73.64770599 123.17460738 71.26130649 120.71295755 68.875 118.25 C67.2357792 116.58065123 65.59516665 114.91266789 63.953125 113.24609375 C59.9524882 109.17966974 55.97128278 105.09508776 52 101 C52.66 104.3 53.32 107.6 54 111 C48.58005022 110.5749059 45.92828167 109.74314911 42 106 C39.76394257 103.03380876 37.75392873 99.93872705 35.75 96.8125 C34.68304267 95.17268819 33.61537278 93.53333972 32.546875 91.89453125 C32.08120117 91.17112549 31.61552734 90.44771973 31.13574219 89.70239258 C30.11037016 88.04510626 30.11037016 88.04510626 29 87 C28.91241997 85.00035018 28.89303424 82.9976389 28.90234375 80.99609375 C28.90556641 79.78115234 28.90878906 78.56621094 28.91210938 77.31445312 C28.92048828 76.03505859 28.92886719 74.75566406 28.9375 73.4375 C28.94201172 72.15423828 28.94652344 70.87097656 28.95117188 69.54882812 C28.96300445 66.3658658 28.98094056 63.18292726 29 60 C26.69 65.61 24.38 71.22 22 77 C9.14914368 66.71931494 4.28686885 54.82244321 0 39 C0 26.13 0 13.26 0 0 Z " fill="#535353" transform="translate(207,0)"/>
<path d="M0 0 C8.81481246 3.4987264 17.22322752 4.42865433 26.625 5.0625 C29.03388541 5.23524199 31.44273719 5.40845321 33.8515625 5.58203125 C37.6442987 5.85425574 41.43686602 6.12091884 45.23144531 6.36621094 C46.38999023 6.44258789 47.54853516 6.51896484 48.7421875 6.59765625 C50.29848877 6.69639038 50.29848877 6.69639038 51.88623047 6.79711914 C54.25133536 7.0262927 56.33789888 7.45795071 58.625 8.0625 C60.32238017 20.2664346 62.01757763 32.47067019 63.70996857 44.67529774 C64.49583346 50.34203201 65.2824574 56.00865878 66.07080078 61.67504883 C66.83118889 67.14070692 67.58960306 72.60663556 68.34663391 78.07275963 C68.63618798 80.16090393 68.9264601 82.2489488 69.217453 84.33689308 C69.62406847 87.25534334 70.02815786 90.17413281 70.43164062 93.09301758 C70.55320023 93.96120117 70.67475983 94.82938477 70.80000305 95.72387695 C71.23155251 98.86058179 71.625 101.89202062 71.625 105.0625 C31.365 105.0625 -8.895 105.0625 -50.375 105.0625 C-52.53792163 98.5737351 -54.69302778 92.10284566 -56.6875 85.5625 C-56.97689453 84.67691406 -57.26628906 83.79132813 -57.56445312 82.87890625 C-57.82806641 82.00105469 -58.09167969 81.12320313 -58.36328125 80.21875 C-58.60602783 79.44337891 -58.84877441 78.66800781 -59.09887695 77.86914062 C-59.82063068 70.53290651 -56.4940926 63.07982543 -54.07421875 56.26953125 C-53.75596634 55.36103928 -53.43771393 54.4525473 -53.1098175 53.51652527 C-52.09883565 50.63430696 -51.08076856 47.75465092 -50.0625 44.875 C-49.05975743 42.02070525 -48.05838264 39.16593606 -47.05784607 36.31086731 C-46.40504279 34.45834318 -45.74661017 32.60779262 -45.08241272 30.75932312 C-43.66566594 26.81024219 -42.28955707 22.88270744 -41.15991211 18.84106445 C-38.88353023 11.15910444 -36.5166417 7.23211117 -29.50585938 3.16210938 C-28.53455078 2.65486328 -27.56324219 2.14761719 -26.5625 1.625 C-25.60279297 1.05974609 -24.64308594 0.49449219 -23.65429688 -0.08789062 C-14.5651617 -5.15671208 -9.42548491 -4.0519419 0 0 Z " fill="#535353" transform="translate(109.375,394.9375)"/>
<path d="M0 0 C12.20426069 -1.13704292 24.4784401 2.15948003 36 6 C37.02050781 7.97314453 37.02050781 7.97314453 37.953125 10.6328125 C38.49972778 12.15442993 38.49972778 12.15442993 39.05737305 13.70678711 C39.45093994 14.83479736 39.84450684 15.96280762 40.25 17.125 C41.13390383 19.58830262 42.02034452 22.05055672 42.91015625 24.51171875 C43.14906082 25.17557083 43.38796539 25.83942291 43.6341095 26.52339172 C46.52715901 34.5273879 49.62032443 42.45375268 52.69882202 50.38778687 C61.57153813 73.2697376 61.57153813 73.2697376 65.4375 84.3125 C65.71360107 85.09939209 65.98970215 85.88628418 66.27416992 86.69702148 C68 91.72626659 68 91.72626659 68 94 C39.29 94 10.58 94 -19 94 C-14.59651977 71.98259887 -14.59651977 71.98259887 -12.81640625 63.1171875 C-12.06474339 59.36986395 -11.31353908 55.62244861 -10.5625 51.875 C-10.36712646 50.90040833 -10.17175293 49.92581665 -9.97045898 48.92169189 C-7.38819593 36.03332889 -4.83242722 23.14139089 -2.40844727 10.22216797 C-2.14439087 8.82442139 -2.14439087 8.82442139 -1.875 7.3984375 C-1.72804687 6.61130371 -1.58109375 5.82416992 -1.4296875 5.01318359 C-1 3 -1 3 0 0 Z " fill="#535353" transform="translate(222,406)"/>
<path d="M0 0 C14.19 0 28.38 0 43 0 C43 0.99 43 1.98 43 3 C42.31292969 3.09796875 41.62585938 3.1959375 40.91796875 3.296875 C40.01691406 3.44640625 39.11585937 3.5959375 38.1875 3.75 C37.29417969 3.88921875 36.40085938 4.0284375 35.48046875 4.171875 C32.38562953 5.20511266 31.68029653 6.24193288 30 9 C29.53369649 11.33369571 29.53369649 11.33369571 29.56762695 13.86035156 C29.53771667 15.32142334 29.53771667 15.32142334 29.50720215 16.81201172 C29.50095825 17.8279541 29.49471436 18.84389648 29.48828125 19.890625 C29.47164429 20.83019043 29.45500732 21.76975586 29.43786621 22.73779297 C29.38010902 26.24163515 29.34782492 29.74585987 29.3125 33.25 C29.209375 41.0875 29.10625 48.925 29 57 C46.82 57 64.64 57 83 57 C82.896875 49.348125 82.79375 41.69625 82.6875 33.8125 C82.66260498 31.40428955 82.63770996 28.9960791 82.61206055 26.51489258 C82.57976649 24.59975234 82.54639219 22.68462989 82.51171875 20.76953125 C82.50547485 19.78029663 82.49923096 18.79106201 82.49279785 17.77185059 C82.39097522 10.87778059 82.39097522 10.87778059 79 5 C76.76162201 3.98325288 76.76162201 3.98325288 74.3125 3.6875 C73.50425781 3.54699219 72.69601563 3.40648437 71.86328125 3.26171875 C71.24839844 3.17535156 70.63351563 3.08898437 70 3 C70 2.01 70 1.02 70 0 C83.86 0 97.72 0 112 0 C112 0.99 112 1.98 112 3 C111.38511719 3.09796875 110.77023438 3.1959375 110.13671875 3.296875 C108.92435547 3.52117187 108.92435547 3.52117187 107.6875 3.75 C106.88699219 3.88921875 106.08648437 4.0284375 105.26171875 4.171875 C102.21284834 5.28821442 101.56284196 6.12435011 100 9 C99.54388699 12.18745561 99.5801177 15.35489209 99.59594727 18.5703125 C99.58565239 20.02458649 99.58565239 20.02458649 99.57514954 21.50823975 C99.55684335 24.71397532 99.5607242 27.91922335 99.56640625 31.125 C99.56184662 33.35172689 99.55654171 35.57845236 99.55052185 37.80517578 C99.54158348 42.47238888 99.54402261 47.13943094 99.55395508 51.80664062 C99.56545149 57.79250944 99.54522621 63.77778894 99.51603794 69.76358032 C99.49770811 74.36177327 99.4979619 78.95982413 99.50367546 83.55804443 C99.50382904 85.76528755 99.49775482 87.97254008 99.48538399 90.17974854 C99.47053511 93.26343983 99.48110621 96.34603104 99.49829102 99.4296875 C99.48862305 100.34409607 99.47895508 101.25850464 99.46899414 102.20062256 C99.49466651 107.23925771 99.49466651 107.23925771 101.89756775 111.56005859 C104.17105755 113.11715614 105.52262398 113.56817493 108.25 113.75 C109.4875 113.8325 110.725 113.915 112 114 C112.33 115.32 112.66 116.64 113 118 C98.81 118 84.62 118 70 118 C70 116.68 70 115.36 70 114 C70.69867188 113.90203125 71.39734375 113.8040625 72.1171875 113.703125 C73.02726562 113.55359375 73.93734375 113.4040625 74.875 113.25 C76.23238281 113.04117188 76.23238281 113.04117188 77.6171875 112.828125 C80.09948414 112.23932195 80.09948414 112.23932195 81.1289978 110.25201416 C82.1023704 107.73531685 82.27631368 105.83346707 82.31884766 103.13964844 C82.33890869 102.16560059 82.35896973 101.19155273 82.37963867 100.18798828 C82.39099854 99.1720459 82.4023584 98.15610352 82.4140625 97.109375 C82.43170654 96.16980957 82.44935059 95.23024414 82.4675293 94.26220703 C82.53051244 90.75831092 82.57675705 87.25413006 82.625 83.75 C82.74875 75.9125 82.8725 68.075 83 60 C65.18 60 47.36 60 29 60 C29.12375 67.651875 29.2475 75.30375 29.375 83.1875 C29.40899902 85.59571045 29.44299805 88.0039209 29.47802734 90.48510742 C29.51324276 92.40024189 29.54916506 94.31536355 29.5859375 96.23046875 C29.60297729 97.71432068 29.60297729 97.71432068 29.62036133 99.22814941 C29.65045288 100.65858582 29.65045288 100.65858582 29.68115234 102.11791992 C29.69447601 102.94176682 29.70779968 103.76561371 29.7215271 104.61442566 C30.04474995 107.38335625 30.7520052 109.50982953 32 112 C34.39115375 113.03343734 34.39115375 113.03343734 37.125 113.3125 C38.03507812 113.45300781 38.94515625 113.59351563 39.8828125 113.73828125 C40.93082031 113.86783203 40.93082031 113.86783203 42 114 C42.33 115.32 42.66 116.64 43 118 C28.81 118 14.62 118 0 118 C0 116.68 0 115.36 0 114 C1.04800781 113.83564453 1.04800781 113.83564453 2.1171875 113.66796875 C3.02726562 113.50941406 3.93734375 113.35085938 4.875 113.1875 C5.77992187 113.03667969 6.68484375 112.88585937 7.6171875 112.73046875 C10.34412478 112.16948699 10.34412478 112.16948699 12 109 C12.30210213 107.01804257 12.30210213 107.01804257 12.26069641 104.82507324 C12.26778122 103.97545517 12.27486603 103.1258371 12.28216553 102.25047302 C12.27968811 101.32154739 12.27721069 100.39262177 12.2746582 99.43554688 C12.27976913 98.45481705 12.28488007 97.47408722 12.29014587 96.46363831 C12.30406915 93.21528049 12.3030832 89.96713415 12.30078125 86.71875 C12.30466633 84.46577881 12.3090006 82.21280836 12.31376648 79.95983887 C12.32123433 75.2354088 12.32093305 70.51105345 12.31567383 65.78662109 C12.3098748 59.72337953 12.32681812 53.660443 12.3500185 47.59725189 C12.36472733 42.94421593 12.36563149 38.29125394 12.36250877 33.63819885 C12.3630233 31.40222061 12.36828552 29.16623837 12.37832069 26.93028259 C12.39061412 23.80813577 12.38393628 20.68658984 12.37231445 17.56445312 C12.37995819 16.6355275 12.38760193 15.70660187 12.39547729 14.74952698 C12.38846298 13.89990891 12.38144867 13.05029083 12.3742218 12.17492676 C12.37438954 11.43677986 12.37455729 10.69863297 12.37473011 9.93811798 C11.89165067 7.43961326 10.96936948 6.56374551 9 5 C6.73606029 4.21643098 6.73606029 4.21643098 4.3125 3.8125 C3.10013672 3.57466797 3.10013672 3.57466797 1.86328125 3.33203125 C1.24839844 3.22246094 0.63351563 3.11289063 0 3 C0 2.01 0 1.02 0 0 Z " fill="#525252" transform="translate(57,248)"/>
<path d="M0 0 C1.32 0 2.64 0 4 0 C4.66 -2.64 5.32 -5.28 6 -8 C7.32 -8 8.64 -8 10 -8 C10 4.54 10 17.08 10 30 C8.68 30 7.36 30 6 30 C5.78085937 28.96101563 5.56171875 27.92203125 5.3359375 26.8515625 C2.75974964 15.27053451 -0.58609216 4.85185222 -11 -2 C-20.08505732 -6.94133739 -31.47863006 -7.25933844 -41.54296875 -5.57421875 C-49.07118234 -3.12491972 -54.4212325 2.5159868 -58.25 9.25 C-68.65799864 29.95286686 -70.94722214 56.11279879 -64.26953125 78.42578125 C-60.42199957 89.25806275 -55.41296233 99.2981449 -45 105 C-34.83830809 109.21297343 -24.78010199 109.05691608 -14.57421875 105.046875 C-12.35785103 104.07472026 -10.17362422 103.06395373 -8 102 C-7.29488281 101.71125 -6.58976562 101.4225 -5.86328125 101.125 C-3.52053344 99.71051076 -3.05226261 98.49627666 -2 96 C-1.60941406 95.33484375 -1.21882813 94.6696875 -0.81640625 93.984375 C3.46446259 86.35616012 4.69760661 78.53438271 6 70 C7.32 70 8.64 70 10 70 C10 83.2 10 96.4 10 110 C8.68 110 7.36 110 6 110 C5.01 105.545 5.01 105.545 4 101 C0.14039678 101.56598422 -2.38299412 102.67104127 -5.625 104.8125 C-18.8216957 112.83099007 -32.57047375 114.16651737 -47.625 110.8125 C-60.02542192 107.07515062 -70.44851099 99.10251668 -76.69140625 87.66015625 C-86.46063446 67.80091921 -88.16997537 46.08431114 -81 25 C-75.50168254 10.94512933 -66.20905415 -0.20064841 -52.5625 -6.8125 C-33.6970797 -14.78897812 -16.62964434 -11.08642956 0 0 Z " fill="#525252" transform="translate(275,256)"/>
<path d="M0 0 C13.86 0 27.72 0 42 0 C42 0.99 42 1.98 42 3 C41.38511719 3.09796875 40.77023438 3.1959375 40.13671875 3.296875 C38.92435547 3.52117187 38.92435547 3.52117187 37.6875 3.75 C36.88699219 3.88921875 36.08648437 4.0284375 35.26171875 4.171875 C32.21284834 5.28821442 31.56284196 6.12435011 30 9 C29.54388699 12.18745561 29.5801177 15.35489209 29.59594727 18.5703125 C29.58565239 20.02458649 29.58565239 20.02458649 29.57514954 21.50823975 C29.55684335 24.71397532 29.5607242 27.91922335 29.56640625 31.125 C29.56184662 33.35172689 29.55654171 35.57845236 29.55052185 37.80517578 C29.54158348 42.47238888 29.54402261 47.13943094 29.55395508 51.80664062 C29.56545149 57.79250944 29.54522621 63.77778894 29.51603794 69.76358032 C29.49770811 74.36177327 29.4979619 78.95982413 29.50367546 83.55804443 C29.50382904 85.76528755 29.49775482 87.97254008 29.48538399 90.17974854 C29.47053511 93.26343983 29.48110621 96.34603104 29.49829102 99.4296875 C29.48862305 100.34409607 29.47895508 101.25850464 29.46899414 102.20062256 C29.49466651 107.23925771 29.49466651 107.23925771 31.89756775 111.56005859 C34.17105755 113.11715614 35.52262398 113.56817493 38.25 113.75 C39.4875 113.8325 40.725 113.915 42 114 C42.33 115.32 42.66 116.64 43 118 C28.81 118 14.62 118 0 118 C0 116.68 0 115.36 0 114 C0.69867188 113.90203125 1.39734375 113.8040625 2.1171875 113.703125 C3.02726563 113.55359375 3.93734375 113.4040625 4.875 113.25 C6.23238281 113.04117188 6.23238281 113.04117188 7.6171875 112.828125 C10.09948414 112.23932195 10.09948414 112.23932195 11.1289978 110.25201416 C12.1023704 107.73531685 12.27631368 105.83346707 12.31884766 103.13964844 C12.33871735 102.17895447 12.35858704 101.2182605 12.37905884 100.22845459 C12.39061005 99.19915833 12.40216125 98.16986206 12.4140625 97.109375 C12.44311172 95.51974945 12.44311172 95.51974945 12.4727478 93.89801025 C12.53249554 90.51542187 12.5789102 87.13279937 12.625 83.75 C12.66318416 81.45571438 12.70223615 79.16144303 12.7421875 76.8671875 C12.83819315 71.24491838 12.92325483 65.62256323 13 60 C13.99 59.505 13.99 59.505 15 59 C15.33 43.82 15.66 28.64 16 13 C15.34 13 14.68 13 14 13 C14 27.52 14 42.04 14 57 C13.67 57 13.34 57 13 57 C12.99413376 56.42228348 12.98826752 55.84456696 12.98222351 55.24934387 C12.91823646 49.23060537 12.83380307 43.21239895 12.73754883 37.1940918 C12.70431649 34.9487205 12.67627931 32.703266 12.65356445 30.45776367 C12.61998798 27.22799257 12.56766927 23.99898273 12.51171875 20.76953125 C12.50532883 19.76727005 12.4989389 18.76500885 12.49235535 17.7323761 C12.3858312 10.85929385 12.3858312 10.85929385 9 5 C6.76162201 3.98325288 6.76162201 3.98325288 4.3125 3.6875 C3.10013672 3.47673828 3.10013672 3.47673828 1.86328125 3.26171875 C1.24839844 3.17535156 0.63351563 3.08898437 0 3 C0 2.01 0 1.02 0 0 Z " fill="#565656" transform="translate(127,248)"/>
<path d="M0 0 C0.66 0.33 1.32 0.66 2 1 C2 11.56 2 22.12 2 33 C1.01 33.33 0.02 33.66 -1 34 C-1.73656032 35.90360807 -1.73656032 35.90360807 -2.0625 38.1875 C-2.53706144 40.84052445 -3.07057821 43.18965343 -4.01367188 45.72387695 C-5.08418209 49.27961374 -5.27009991 52.23001477 -5.30859375 55.9375 C-5.33373047 57.24460937 -5.35886719 58.55171875 -5.38476562 59.8984375 C-5.41349385 61.95213698 -5.43755253 64.00575516 -5.45629883 66.05957031 C-5.47807125 68.06071895 -5.51814247 70.06164179 -5.55859375 72.0625 C-5.57204834 73.24972656 -5.58550293 74.43695313 -5.59936523 75.66015625 C-6.37030212 82.08697926 -9.43183247 85.67154141 -14 90 C-15.58917733 91.81025765 -17.15207392 93.64393316 -18.6875 95.5 C-19.45449219 96.4178125 -20.22148437 97.335625 -21.01171875 98.28125 C-22.89934318 100.86236317 -23.87999499 103.03500748 -25 106 C-26.08688369 107.81504223 -27.21438208 109.60619801 -28.375 111.375 C-28.99632812 112.34308594 -29.61765625 113.31117188 -30.2578125 114.30859375 C-31.24178321 115.82867406 -32.23190238 117.34493656 -33.2421875 118.84765625 C-36.11141217 123.37391378 -37.12131953 128.05284417 -38.19140625 133.23046875 C-39 136 -39 136 -40.53369141 137.88330078 C-45.48585726 145.0320317 -41.38000983 160.28099299 -40.6875 168.8125 C-40.55258209 170.51372186 -40.41806753 172.21497576 -40.28393555 173.91625977 C-40.00378189 177.46096369 -39.72116135 181.00545807 -39.43652344 184.54980469 C-38.9963073 190.03536634 -38.56376608 195.52151635 -38.1328125 201.0078125 C-37.42561928 210.00550678 -36.71422872 219.00286163 -36 228 C-37.65 228 -39.3 228 -41 228 C-43.22019563 211.79916651 -44.26142728 195.48254393 -45.45513916 179.18206787 C-45.68292704 176.08822884 -45.91538944 172.99474807 -46.1478672 169.90125847 C-46.37288658 166.90044512 -46.59533044 163.89944521 -46.81696701 160.89838028 C-46.92231606 159.47507655 -47.02836307 158.05182428 -47.13515091 156.62862778 C-47.28357501 154.64437241 -47.42823555 152.65983663 -47.57275391 150.67529297 C-47.65554596 149.55186493 -47.73833801 148.42843689 -47.82363892 147.27096558 C-48.19190107 140.44081465 -48.06263579 136.23653773 -44.74609375 130.140625 C-44.40755875 129.51073669 -44.06902374 128.88084839 -43.7202301 128.23187256 C-43.00312636 126.90382891 -42.27910432 125.57950014 -41.54858398 124.25878906 C-40.45210904 122.27641247 -39.37562296 120.28428479 -38.30273438 118.2890625 C-33.02865878 108.54464142 -27.65112127 98.77488812 -20.4375 90.3125 C-18.94562426 88.55236037 -17.46757142 86.78045467 -16 85 C-15.20928101 84.23308838 -15.20928101 84.23308838 -14.40258789 83.45068359 C-8.84388376 77.45427976 -9.35091193 70.94928343 -9.52001953 63.20977783 C-9.90327443 43.27336479 -9.90327443 43.27336479 -5.5 35.625 C0.0285094 25.7075311 -1.00873995 14.42761742 -1.09423828 3.33813477 C-1 1 -1 1 0 0 Z " fill="#232323" transform="translate(357,272)"/>
<path d="M0 0 C8.81446578 3.4985888 17.22343055 4.42965513 26.625 5.0625 C29.04560137 5.23527887 31.46617211 5.40848734 33.88671875 5.58203125 C37.6970289 5.85454261 41.50713622 6.12144532 45.31933594 6.36621094 C46.48110352 6.44258789 47.64287109 6.51896484 48.83984375 6.59765625 C49.88261475 6.663479 50.92538574 6.72930176 51.99975586 6.79711914 C54.625 7.0625 54.625 7.0625 57.625 8.0625 C57.625 9.0525 57.625 10.0425 57.625 11.0625 C56.965 11.0625 56.305 11.0625 55.625 11.0625 C55.625 11.7225 55.625 12.3825 55.625 13.0625 C49.75524479 12.6089385 43.88831125 12.12972025 38.02246094 11.62817383 C36.03311042 11.4615376 34.04319193 11.30152741 32.05273438 11.14868164 C19.3551896 10.16826256 7.91026655 8.87582588 -3.57958984 2.91967773 C-6.00049328 1.76387246 -7.96094853 1.86739338 -10.625 1.9375 C-11.96304688 1.96457031 -11.96304688 1.96457031 -13.328125 1.9921875 C-14.00359375 2.01539063 -14.6790625 2.03859375 -15.375 2.0625 C-15.375 2.7225 -15.375 3.3825 -15.375 4.0625 C-16.344375 4.578125 -17.31375 5.09375 -18.3125 5.625 C-35.22608887 15.38812854 -37.78285648 29.03830575 -43.32617188 46.73632812 C-45.6313998 54.00734568 -47.96262667 61.33884432 -51.44116211 68.15014648 C-54.36150848 74.13055776 -53.02160912 79.06030223 -51.2109375 85.08203125 C-49.38501823 91.59220137 -48.21498281 98.29254191 -48.375 105.0625 C-49.365 104.7325 -50.355 104.4025 -51.375 104.0625 C-53.0021399 100.1915367 -54.025497 96.13983705 -55.12915039 92.09130859 C-55.67970735 90.09081522 -56.26495099 88.10287215 -56.85351562 86.11328125 C-57.21312048 84.82612872 -57.57060713 83.53838218 -57.92578125 82.25 C-58.25231689 81.08855469 -58.57885254 79.92710937 -58.9152832 78.73046875 C-59.89266073 70.93221063 -56.65532934 63.53359688 -54.07421875 56.26953125 C-53.75596634 55.36103928 -53.43771393 54.4525473 -53.1098175 53.51652527 C-52.09883565 50.63430696 -51.08076856 47.75465092 -50.0625 44.875 C-49.05975743 42.02070525 -48.05838264 39.16593606 -47.05784607 36.31086731 C-46.40504279 34.45834318 -45.74661017 32.60779262 -45.08241272 30.75932312 C-43.66566594 26.81024219 -42.28955707 22.88270744 -41.15991211 18.84106445 C-38.88353023 11.15910444 -36.5166417 7.23211117 -29.50585938 3.16210938 C-28.53455078 2.65486328 -27.56324219 2.14761719 -26.5625 1.625 C-25.60279297 1.05974609 -24.64308594 0.49449219 -23.65429688 -0.08789062 C-14.5651617 -5.15671208 -9.42548491 -4.0519419 0 0 Z " fill="#333333" transform="translate(109.375,394.9375)"/>
<path d="M0 0 C1.66666667 0 3.33333333 0 5 0 C4.64418875 5.73035346 4.27138755 11.45925824 3.88305664 17.1875 C3.75342086 19.13478807 3.62836727 21.08238699 3.50805664 23.03027344 C3.33393781 25.83623775 3.14316451 28.64065731 2.94921875 31.4453125 C2.89908127 32.31116974 2.84894379 33.17702698 2.79728699 34.06912231 C2.43468357 39.04072249 1.62013564 42.62999916 -1 47 C-1.66 47 -2.32 47 -3 47 C-3.0825 47.86625 -3.165 48.7325 -3.25 49.625 C-4.23784644 54.07030896 -5.98463596 57.61009376 -9.8125 60.25 C-12 61 -12 61 -15.25 61.6875 C-21.14511598 63.75079059 -25.04851496 67.76819114 -29.12109375 72.42578125 C-35.42296843 79.46905295 -35.42296843 79.46905295 -41.25 79.875 C-42.16265625 79.88144531 -43.0753125 79.88789062 -44.015625 79.89453125 C-48.58070935 80.05586276 -52.83552968 81.26998282 -57.25 82.37890625 C-60 83 -60 83 -63 83 C-63 83.66 -63 84.32 -63 85 C-64.134375 85.4125 -65.26875 85.825 -66.4375 86.25 C-69.4065508 87.36079872 -72.30301092 88.56095497 -75.1875 89.875 C-90.98401163 97 -90.98401163 97 -95 97 C-95 97.66 -95 98.32 -95 99 C-95.65226562 99.15855469 -96.30453125 99.31710938 -96.9765625 99.48046875 C-102.91548435 101.06593314 -106.50570044 102.84277291 -111 107 C-111.66 107 -112.32 107 -113 107 C-113.495 107.99 -113.495 107.99 -114 109 C-114 106.69 -114 104.38 -114 102 C-104.05917357 97.30927169 -94.06295017 92.76320395 -84.0012207 88.33789062 C-81.8025928 87.37064149 -79.60533204 86.40033608 -77.40820312 85.4296875 C-73.91375618 83.88768412 -70.41454411 82.35698866 -66.9118042 80.83392334 C-65.11044169 80.04817434 -63.31313514 79.25314561 -61.51611328 78.45751953 C-56.36295686 76.22296498 -51.91681921 74.49202197 -46.25 74.125 C-38.22773382 73.07571429 -34.87931338 69.19446211 -29.64453125 63.38671875 C-22.37890368 55.60292239 -22.37890368 55.60292239 -16.875 55.375 C-13.34138404 54.86860779 -12.19574561 54.20638035 -9.69921875 51.57421875 C-1.48710937 39.22022203 -2.082948 22.58043918 -1.36657715 8.26724243 C-1.20810763 5.28660092 -0.95025205 2.85075616 0 0 Z " fill="#202020" transform="translate(471,32)"/>
<path d="M0 0 C1.32 0 2.64 0 4 0 C4.66 -2.64 5.32 -5.28 6 -8 C7.32 -8 8.64 -8 10 -8 C10 4.54 10 17.08 10 30 C8.68 30 7.36 30 6 30 C5.78085937 28.96101563 5.56171875 27.92203125 5.3359375 26.8515625 C2.75974964 15.27053451 -0.58609216 4.85185222 -11 -2 C-19.96348095 -6.87521234 -31.76887169 -7.52622068 -41.68359375 -5.43359375 C-45.22563091 -4.15471077 -48.07227205 -2.32199114 -51 0 C-51.825 0.28875 -52.65 0.5775 -53.5 0.875 C-56.70856682 2.31885507 -57.85418898 4.2230681 -60 7 C-61.07672004 7.80063798 -62.16082705 8.59138688 -63.25 9.375 C-67.66985167 12.96612948 -69.8203008 17.8445789 -72.24707031 22.88232422 C-73.09990108 24.62152405 -74.04433198 26.31511573 -75 28 C-76.485 28.495 -76.485 28.495 -78 29 C-79.93018815 40.31877323 -80.56200049 51.54285489 -81 63 C-81.33 63 -81.66 63 -82 63 C-82.495 60.525 -82.495 60.525 -83 58 C-83.33 58 -83.66 58 -84 58 C-84.83745182 39.36476452 -83.61356168 24.34291662 -72 9 C-71.443125 8.26136719 -70.88625 7.52273438 -70.3125 6.76171875 C-62.76651548 -2.51355389 -52.02484605 -8.16977195 -40.4375 -10.8125 C-24.40794067 -11.6868396 -13.56392411 -9.04261608 0 0 Z " fill="#222222" transform="translate(275,256)"/>
<path d="M0 0 C11.09973336 -1.03413665 24.9647398 0.9823699 35 6 C35 6.66 35 7.32 35 8 C29.33525616 9.18015497 25.50152434 8.58154704 20 7 C15.2369592 6.00769983 10.84675593 5.67688294 6 6 C3.64681404 9.52977894 3.1342474 12.78299147 2.4375 16.875 C2.18636346 18.28909191 1.93506506 19.70315509 1.68359375 21.1171875 C1.45800781 22.39851563 1.23242188 23.67984375 1 25 C0.6729174 26.66790463 0.34274406 28.33524314 0 30 C-0.66 30 -1.32 30 -2 30 C-2.04898438 30.64066406 -2.09796875 31.28132813 -2.1484375 31.94140625 C-2.22320312 32.80636719 -2.29796875 33.67132813 -2.375 34.5625 C-2.44460937 35.40941406 -2.51421875 36.25632812 -2.5859375 37.12890625 C-3 40 -3 40 -4.01171875 43.33203125 C-5.08202627 47.30443743 -5.324912 51.04415403 -5.4375 55.125 C-5.75510969 62.68394508 -7.00670118 69.68762661 -9 77 C-9.3359328 78.33268077 -9.67039652 79.66573974 -10 81 C-10.66 81 -11.32 81 -12 81 C-12.06058594 81.77085937 -12.12117187 82.54171875 -12.18359375 83.3359375 C-12.26738281 84.33882813 -12.35117188 85.34171875 -12.4375 86.375 C-12.51871094 87.37273437 -12.59992188 88.37046875 -12.68359375 89.3984375 C-13 92 -13 92 -14 94 C-15.65 94 -17.3 94 -19 94 C-17.12373128 84.61292245 -15.24670025 75.22600219 -13.36294556 65.84042358 C-12.42871314 61.18543281 -11.49547333 56.53024327 -10.5625 51.875 C-10.36712646 50.90040833 -10.17175293 49.92581665 -9.97045898 48.92169189 C-7.38819593 36.03332889 -4.83242722 23.14139089 -2.40844727 10.22216797 C-2.14439087 8.82442139 -2.14439087 8.82442139 -1.875 7.3984375 C-1.72804687 6.61130371 -1.58109375 5.82416992 -1.4296875 5.01318359 C-1 3 -1 3 0 0 Z " fill="#2D2D2D" transform="translate(222,406)"/>
<path d="M0 0 C0.66 0 1.32 0 2 0 C5.55721155 6.13627794 6.57014382 10.49967228 6.42578125 17.53369141 C6.42303696 18.45181107 6.42029266 19.36993073 6.41746521 20.31587219 C6.40287677 23.3283146 6.35870614 26.33945167 6.3125 29.3515625 C6.29273051 31.45566724 6.27419494 33.5597839 6.25683594 35.66390991 C6.21586715 40.06364173 6.16027344 44.46287977 6.09423828 48.86230469 C6.01081885 54.49561177 5.96344401 60.12854015 5.92692566 65.76232338 C5.89489367 70.10341153 5.84402018 74.44412252 5.78744507 78.78495407 C5.7625887 80.86208412 5.74351552 82.93929186 5.7303772 85.01652908 C5.70913817 87.92001826 5.66258153 90.82204152 5.609375 93.72509766 C5.60812119 94.5792778 5.60686737 95.43345795 5.60557556 96.31352234 C5.47439059 101.61616567 4.64281507 104.86727327 1 109 C-2.453125 109.8046875 -2.453125 109.8046875 -6.25 109.875 C-7.51328125 109.91367187 -8.7765625 109.95234375 -10.078125 109.9921875 C-11.52445313 109.99605469 -11.52445313 109.99605469 -13 110 C-13 108.68 -13 107.36 -13 106 C-11.95199219 105.83564453 -11.95199219 105.83564453 -10.8828125 105.66796875 C-9.97273438 105.50941406 -9.06265625 105.35085938 -8.125 105.1875 C-7.22007813 105.03667969 -6.31515625 104.88585937 -5.3828125 104.73046875 C-2.65587522 104.16948699 -2.65587522 104.16948699 -1 101 C-0.69078569 99.00939107 -0.69078569 99.00939107 -0.7215271 96.80488586 C-0.71036362 95.95093231 -0.69920013 95.09697876 -0.68769836 94.21714783 C-0.68553818 93.28350906 -0.68337799 92.3498703 -0.68115234 91.38793945 C-0.67110672 90.40239075 -0.6610611 89.41684204 -0.65071106 88.40142822 C-0.61978137 85.13871859 -0.60281666 81.87609136 -0.5859375 78.61328125 C-0.56723374 76.35311672 -0.54766093 74.09295923 -0.5272522 71.83280945 C-0.47584144 65.87999617 -0.43626357 59.92716022 -0.39910889 53.97424316 C-0.35912528 47.90139112 -0.30800723 41.82863408 -0.2578125 35.75585938 C-0.16094731 23.83730623 -0.07657645 11.91869955 0 0 Z " fill="#4D4D4D" transform="translate(70,256)"/>
<path d="M0 0 C0.99 0 1.98 0 3 0 C2.55448222 5.25074532 0.56971139 8.61586857 -2.5 12.75 C-5.4783303 16.73248191 -5.4783303 16.73248191 -8 21 C-8.66 21 -9.32 21 -10 21 C-10.226875 21.86625 -10.45375 22.7325 -10.6875 23.625 C-13.12841817 29.90164673 -16.13506407 32.7080784 -22 35.6875 C-29.48540334 39.50158835 -36.06551384 45.06551384 -42 51 C-41.90485881 54.05065624 -41.75064599 57.07969174 -41.5625 60.125 C-40.65248208 77.05566679 -40.90062137 93.93583089 -41.4375 110.875 C-41.49623291 112.77366821 -41.49623291 112.77366821 -41.55615234 114.71069336 C-42.01408308 127.84944541 -42.01408308 127.84944541 -43 134 C-43.66 134.33 -44.32 134.66 -45 135 C-44.99777939 134.21977982 -44.99555878 133.43955963 -44.99327087 132.63569641 C-44.97299897 125.18115364 -44.95789157 117.72662476 -44.94818783 110.27206135 C-44.94303093 106.44218557 -44.93606911 102.61233308 -44.92456055 98.7824707 C-44.91360628 95.07989009 -44.90688439 91.37732807 -44.90416145 87.67473221 C-44.90294993 86.21743289 -44.9008281 84.76013404 -44.89779472 83.30283737 C-44.8825464 73.58545602 -45.04165817 63.90167129 -46.03746033 54.22517395 C-46.35633145 50.17795514 -46.13886857 48.22618336 -43.98632812 44.72021484 C-40.16664931 40.82743581 -35.96744423 38.437329 -31.125 36.08203125 C-19.50521112 30.35937669 -14.48954408 23.45116457 -8.23828125 12.19335938 C-6.60156608 9.29425663 -4.82032572 6.55828752 -2.9375 3.8125 C-2.43089844 3.05582031 -1.92429687 2.29914063 -1.40234375 1.51953125 C-0.93957031 1.01808594 -0.47679687 0.51664063 0 0 Z " fill="#1F1F1F" transform="translate(402,136)"/>
<path d="M0 0 C8.83200415 8.83200415 13.18323543 16.4318268 14 29 C14.061875 29.79446533 14.12375 30.58893066 14.1875 31.4074707 C13.95894517 34.56765792 13.06337468 35.89423885 11.19140625 38.42578125 C10.31838867 39.61977539 10.31838867 39.61977539 9.42773438 40.83789062 C8.81220703 41.65451172 8.19667969 42.47113281 7.5625 43.3125 C6.95083984 44.14845703 6.33917969 44.98441406 5.70898438 45.84570312 C2.46527378 50.23636111 2.46527378 50.23636111 1 52 C0.67 52 0.34 52 0 52 C0 34.84 0 17.68 0 0 Z " fill="#545454" transform="translate(0,354)"/>
<path d="M0 0 C1.32 0 2.64 0 4 0 C4 13.2 4 26.4 4 40 C2.68 40 1.36 40 0 40 C-0.66 37.03 -1.32 34.06 -2 31 C-5.85960322 31.56598422 -8.38299412 32.67104127 -11.625 34.8125 C-21.44520268 40.82339102 -30.40397381 43.38778679 -42 42 C-45.51829867 40.97585283 -48.74604766 39.67945927 -52 38 C-52 37.34 -52 36.68 -52 36 C-52.66 35.67 -53.32 35.34 -54 35 C-50.77272455 35.47228421 -47.79936673 36.06435407 -44.6875 37.0625 C-33.76953165 39.83825467 -23.85303063 36.82289836 -14 32 C-13.29488281 31.71125 -12.58976562 31.4225 -11.86328125 31.125 C-9.52053344 29.71051076 -9.05226261 28.49627666 -8 26 C-7.41412109 25.00226563 -7.41412109 25.00226563 -6.81640625 23.984375 C-2.53553741 16.35616012 -1.30239339 8.53438271 0 0 Z " fill="#2D2D2D" transform="translate(281,326)"/>
<path d="M0 0 C7.68829632 1.69068474 14.637177 6.11228466 21.125 10.4375 C22.445 10.4375 23.765 10.4375 25.125 10.4375 C25.785 7.7975 26.445 5.1575 27.125 2.4375 C28.445 2.4375 29.765 2.4375 31.125 2.4375 C31.125 14.9775 31.125 27.5175 31.125 40.4375 C29.805 40.4375 28.485 40.4375 27.125 40.4375 C26.90585937 39.39851563 26.68671875 38.35953125 26.4609375 37.2890625 C23.88474964 25.70803451 20.53890784 15.28935222 10.125 8.4375 C2.8203645 4.46452908 -4.54916973 4.22113005 -12.6953125 3.81640625 C-15.875 3.4375 -15.875 3.4375 -18.875 1.4375 C-13.43880091 -2.18663273 -6.28567065 -0.93616371 0 0 Z " fill="#4B4B4B" transform="translate(253.875,245.5625)"/>
<path d="M0 0 C0.66 0 1.32 0 2 0 C-0.15496465 7.54237626 -3.70201705 12.33949262 -10 17 C-11.98320018 18.03291676 -13.98347806 19.0337499 -16 20 C-21.24999304 23.12765543 -27.19581797 27.39163594 -30 33 C-30.04558104 34.89082053 -30.04558104 34.89082053 -29.87890625 37.05078125 C-29.83056641 37.89705078 -29.78222656 38.74332031 -29.73242188 39.61523438 C-29.62381319 41.33924116 -29.51450707 43.06320423 -29.40429688 44.78710938 C-28.26535582 64.77034786 -29.18837891 84.83639619 -29.79956055 104.82519531 C-29.91647934 108.65199374 -30.02686576 112.47895061 -30.13556576 116.30599022 C-30.22113456 119.28987165 -30.31040688 122.27363373 -30.40075874 125.25737381 C-30.44302337 126.66942417 -30.48409006 128.08151096 -30.5238781 129.49363327 C-30.57973181 131.45859549 -30.64120001 133.42339566 -30.70288086 135.38818359 C-30.73619003 136.49954681 -30.76949921 137.61091003 -30.80381775 138.75595093 C-31.20655119 145.41550876 -31.94624721 149.59499628 -36 155 C-36.66 155.99 -37.32 156.98 -38 158 C-37.36870244 151.30824587 -37.36870244 151.30824587 -35.4753418 149.7253418 C-33.17279968 147.03262872 -33.63073381 144.07982485 -33.70703125 140.70703125 C-33.71127609 140.00100266 -33.71552094 139.29497406 -33.71989441 138.56755066 C-33.73666966 136.31547697 -33.77431757 134.06430258 -33.8125 131.8125 C-33.82754843 130.28451815 -33.84123656 128.75652224 -33.85351562 127.22851562 C-33.88656911 123.48533128 -33.93834168 119.74281804 -34 116 C-34.66 116 -35.32 116 -36 116 C-36 110.72 -36 105.44 -36 100 C-35.67 100 -35.34 100 -35 100 C-34.67 104.29 -34.34 108.58 -34 113 C-33.01013874 105.29738216 -32.67752079 97.63419058 -32.4375 89.875 C-32.41665344 89.21726593 -32.39580688 88.55953186 -32.37432861 87.88186646 C-32.10342872 79.23488283 -31.9020621 70.58910423 -31.875 61.9375 C-31.86484863 60.56307739 -31.86484863 60.56307739 -31.85449219 59.16088867 C-31.85616189 54.47778552 -32.07384189 49.91917803 -32.61328125 45.265625 C-34.17650102 30.86807218 -34.17650102 30.86807218 -30.79296875 26.609375 C-27.98783806 24.0408216 -25.21569728 22.01945789 -22 20 C-21.16082031 19.31164062 -20.32164062 18.62328125 -19.45703125 17.9140625 C-16.26471111 15.42719944 -12.86970607 13.92093006 -9.20703125 12.24609375 C-6.71103436 11.05602775 -6.71103436 11.05602775 -5 8 C-4.34 8 -3.68 8 -3 8 C-2.690625 7.05125 -2.38125 6.1025 -2.0625 5.125 C-1 2 -1 2 0 0 Z " fill="#404040" transform="translate(392,157)"/>
<path d="M0 0 C1.66666667 0 3.33333333 0 5 0 C4.64418875 5.73035346 4.27138755 11.45925824 3.88305664 17.1875 C3.75342086 19.13478807 3.62836727 21.08238699 3.50805664 23.03027344 C3.33393781 25.83623775 3.14316451 28.64065731 2.94921875 31.4453125 C2.87401253 32.74409836 2.87401253 32.74409836 2.79728699 34.06912231 C2.43468357 39.04072249 1.62013564 42.62999916 -1 47 C-1.66 47 -2.32 47 -3 47 C-3.0825 47.86625 -3.165 48.7325 -3.25 49.625 C-4.23784644 54.07030896 -5.98463596 57.61009376 -9.8125 60.25 C-12 61 -12 61 -15.25 61.6875 C-21.14511598 63.75079059 -25.04851496 67.76819114 -29.12109375 72.42578125 C-33.07308453 76.84271212 -35.61437942 79.48979204 -41.6875 80 C-43.45824776 80.01740904 -45.22926998 80.01912826 -47 80 C-49.00440123 80.30575612 -51.00775284 80.62308838 -53 81 C-53 80.34 -53 79.68 -53 79 C-51.9378125 78.86464844 -50.875625 78.72929688 -49.78125 78.58984375 C-40.9249504 77.30386339 -35.10462652 75.94223807 -29 69 C-27.69159725 67.72494869 -26.37920838 66.45397252 -25.0625 65.1875 C-23.3167363 63.44968967 -22.10290197 62.20580394 -21 60 C-19.26166987 59.57416745 -17.5083239 59.20879946 -15.75 58.875 C-11.58672838 57.80182506 -9.33197391 56.99039712 -7 53.3125 C-6.28723138 51.89729274 -5.61912164 50.45860861 -5 49 C-4.69578125 48.34515625 -4.3915625 47.6903125 -4.078125 47.015625 C-2.0020646 42.11925614 -1.3544211 37.27965221 -1 32 C-1.66 32 -2.32 32 -3 32 C-2.73855267 27.9245422 -2.47190015 23.84946162 -2.20043945 19.7746582 C-2.10884098 18.38868421 -2.0186603 17.00261575 -1.92993164 15.61645508 C-1.8020798 13.62296625 -1.6686901 11.62983503 -1.53515625 9.63671875 C-1.456604 8.43748779 -1.37805176 7.23825684 -1.29711914 6.00268555 C-1 3 -1 3 0 0 Z " fill="#3D3D3D" transform="translate(471,32)"/>
<path d="M0 0 C0.6875 1.75 0.6875 1.75 1 4 C0.51700439 4.61077393 0.03400879 5.22154785 -0.46362305 5.85083008 C-5.51880674 12.92230347 -1.37900395 28.2933852 -0.6875 36.8125 C-0.55258209 38.51372186 -0.41806753 40.21497576 -0.28393555 41.91625977 C-0.00378189 45.46096369 0.27883865 49.00545807 0.56347656 52.54980469 C1.0036927 58.03536634 1.43623392 63.52151635 1.8671875 69.0078125 C2.57438072 78.00550678 3.28577128 87.00286163 4 96 C2.35 96 0.7 96 -1 96 C-3.07782804 80.72575342 -4.02395523 65.37662807 -5 50 C-4.01 50 -3.02 50 -2 50 C-2.09087891 49.04746338 -2.18175781 48.09492676 -2.27539062 47.11352539 C-2.61508662 43.54116403 -2.94920514 39.9682983 -3.28173828 36.39526367 C-3.42575163 34.85606061 -3.57122824 33.31699367 -3.71826172 31.77807617 C-5.96764041 8.20550557 -5.96764041 8.20550557 -2.5 3.4375 C-2.0359375 2.77621094 -1.571875 2.11492187 -1.09375 1.43359375 C-0.7328125 0.96050781 -0.371875 0.48742187 0 0 Z " fill="#3F3F3F" transform="translate(317,404)"/>
<path d="M0 0 C0 0.66 0 1.32 0 2 C-0.66644531 2.20753906 -1.33289063 2.41507812 -2.01953125 2.62890625 C-10.92194969 5.60467969 -19.74109168 9.79470119 -26 17 C-27.32422673 20.04645401 -27.32422673 20.04645401 -28.2890625 23.48046875 C-28.86527344 25.34928711 -28.86527344 25.34928711 -29.453125 27.25585938 C-29.84474304 28.56610985 -30.23535668 29.87666092 -30.625 31.1875 C-31.39956071 33.7673684 -32.18550816 36.34303344 -32.9765625 38.91796875 C-33.31768066 40.06031982 -33.65879883 41.2026709 -34.01025391 42.37963867 C-35 45 -35 45 -37 46 C-37.93779555 48.1164675 -37.93779555 48.1164675 -38.7265625 50.69140625 C-39.0359375 51.63564453 -39.3453125 52.57988281 -39.6640625 53.55273438 C-39.98117188 54.54595703 -40.29828125 55.53917969 -40.625 56.5625 C-40.94984375 57.55958984 -41.2746875 58.55667969 -41.609375 59.58398438 C-42.41298199 62.05389411 -43.20951542 64.5258654 -44 67 C-44.66 66.34 -45.32 65.68 -46 65 C-45.6528461 58.98741223 -43.68771859 53.50192507 -41.76171875 47.83203125 C-41.2786602 46.39617928 -41.2786602 46.39617928 -40.7858429 44.93132019 C-40.10567179 42.91738882 -39.42219256 40.90457202 -38.7355957 38.89282227 C-37.68878932 35.81628927 -36.66139196 32.73370726 -35.63476562 29.65039062 C-34.96992606 27.68970499 -34.30394906 25.72940459 -33.63671875 23.76953125 C-33.33239426 22.84968948 -33.02806976 21.92984772 -32.71452332 20.98213196 C-29.62468028 12.04916765 -24.62088626 8.86242263 -16.6875 4.1875 C-15.85798828 3.67251953 -15.02847656 3.15753906 -14.17382812 2.62695312 C-8.92962546 -0.46493274 -5.93927872 -1.69121162 0 0 Z " fill="#212121" transform="translate(101,392)"/>
<path d="M0 0 C1.32 0.33 2.64 0.66 4 1 C4.05082181 7.29879297 4.08578472 13.5975328 4.10986328 19.89648438 C4.11990416 22.03810604 4.13353954 24.17971405 4.15087891 26.32128906 C4.17521118 29.40433121 4.18650242 32.48719165 4.1953125 35.5703125 C4.20563507 36.52366486 4.21595764 37.47701721 4.22659302 38.45925903 C4.22741648 43.3679446 3.9967802 47.41696707 2 52 C0.00383446 53.99616554 -3.81701963 53.40983427 -6.5625 53.5625 C-7.27341797 53.60568359 -7.98433594 53.64886719 -8.71679688 53.69335938 C-10.47761912 53.79971777 -12.2387832 53.90038846 -14 54 C-14 52.68 -14 51.36 -14 50 C-13.31292969 49.9484375 -12.62585938 49.896875 -11.91796875 49.84375 C-11.01691406 49.7303125 -10.11585938 49.616875 -9.1875 49.5 C-8.29417969 49.4071875 -7.40085938 49.314375 -6.48046875 49.21875 C-3.2189855 47.61625744 -2.7710011 45.65124189 -1.61405945 42.32849121 C-0.57496936 38.38829921 -0.51937402 34.52526638 -0.48828125 30.46875 C-0.47033005 29.59222778 -0.45237885 28.71570557 -0.43388367 27.81262207 C-0.38015491 25.04179547 -0.34600627 22.27113735 -0.3125 19.5 C-0.27929379 17.60935174 -0.24480112 15.71872561 -0.20898438 13.828125 C-0.12445045 9.21887235 -0.05746209 4.6096664 0 0 Z " fill="#222222" transform="translate(141,312)"/>
<path d="M0 0 C1.65 0 3.3 0 5 0 C5.33 14.52 5.66 29.04 6 44 C6.66 44 7.32 44 8 44 C8.53251766 45.91345327 9.05059483 47.8309295 9.5625 49.75 C9.85253906 50.81734375 10.14257812 51.8846875 10.44140625 52.984375 C10.97098494 55.84335927 10.98370862 57.31597383 10 60 C-1.94935375 40.91780125 -0.80204351 21.68337849 0 0 Z " fill="#404040" transform="translate(207,3)"/>
<path d="M0 0 C0.66 0.33 1.32 0.66 2 1 C1.26652344 1.40605469 0.53304688 1.81210938 -0.22265625 2.23046875 C-3.63076783 4.57911235 -5.72546239 6.51621454 -8 10 C-9.05533561 15.94912858 -7.90995162 22.17446925 -7.26367188 28.12646484 C-6.84108722 32.73185505 -6.84449942 37.31605271 -6.875 41.9375 C-6.87781982 42.8646582 -6.88063965 43.79181641 -6.88354492 44.74707031 C-6.93761731 53.12618448 -7.17207138 61.50040645 -7.4375 69.875 C-7.47665527 71.14077881 -7.51581055 72.40655762 -7.55615234 73.71069336 C-8.01408308 86.84944541 -8.01408308 86.84944541 -9 93 C-9.99 93.495 -9.99 93.495 -11 94 C-11.04640755 83.82059381 -11.08191197 73.64121294 -11.10362434 63.46172237 C-11.11404691 58.73461601 -11.1281782 54.00758219 -11.15087891 49.28051758 C-11.17266177 44.71584424 -11.18458011 40.15124056 -11.18975449 35.58651924 C-11.19344048 33.84786445 -11.20063826 32.10921332 -11.21146011 30.3705883 C-11.22604744 27.92918634 -11.22797493 25.48806962 -11.22705078 23.04663086 C-11.23424133 22.33308945 -11.24143188 21.61954803 -11.24884033 20.88438416 C-11.2254746 15.15336085 -10.73510546 9.95121065 -6.8359375 5.56640625 C-6.02382813 4.90511719 -5.21171875 4.24382812 -4.375 3.5625 C-3.55773437 2.88316406 -2.74046875 2.20382813 -1.8984375 1.50390625 C-1.27195312 1.00761719 -0.64546875 0.51132813 0 0 Z " fill="#262626" transform="translate(368,177)"/>
<path d="M0 0 C0.66 0 1.32 0 2 0 C2.02527002 6.53278786 2.04283292 13.06556321 2.05493164 19.59838867 C2.05997317 21.82267732 2.06680623 24.04696263 2.07543945 26.27124023 C2.08751298 29.46078309 2.09322996 32.65028229 2.09765625 35.83984375 C2.10281754 36.84087631 2.10797882 37.84190887 2.11329651 38.87327576 C2.11337204 39.79415482 2.11344757 40.71503387 2.11352539 41.66381836 C2.115746 42.47878281 2.11796661 43.29374725 2.12025452 44.13340759 C2 46 2 46 1 47 C-0.68801985 47.09353163 -2.37995207 47.11744791 -4.07055664 47.11352539 C-5.15160172 47.11344986 -6.23264679 47.11337433 -7.34645081 47.11329651 C-9.110485 47.10555458 -9.110485 47.10555458 -10.91015625 47.09765625 C-12.10732773 47.0962413 -13.30449921 47.09482635 -14.53794861 47.09336853 C-18.37949066 47.08774979 -22.22097543 47.07519411 -26.0625 47.0625 C-28.65950437 47.05748741 -31.25650965 47.05292409 -33.85351562 47.04882812 C-40.23569679 47.03777427 -46.6178443 47.02101792 -53 47 C-53 46.01 -53 45.02 -53 44 C-35.51 44 -18.02 44 0 44 C0 29.48 0 14.96 0 0 Z " fill="#1C1C1C" transform="translate(141,261)"/>
<path d="M0 0 C3.13796086 1.56898043 3.51383648 4.21254693 4.8203125 7.40625 C5.08383514 8.04614868 5.34735779 8.68604736 5.61886597 9.34533691 C6.17500394 10.69915002 6.72790861 12.05429516 7.27783203 13.41064453 C8.12256833 15.49400282 8.97636506 17.57345378 9.83203125 19.65234375 C14 29.82338424 14 29.82338424 14 31 C10.04 31 6.08 31 2 31 C-2.4047619 7.21428571 -2.4047619 7.21428571 0 0 Z " fill="#383838" transform="translate(16,469)"/>
<path d="M0 0 C0.66 0 1.32 0 2 0 C1.67515625 1.68802734 1.67515625 1.68802734 1.34375 3.41015625 C-1.89657072 20.94171358 -1.40589616 36.56145184 3.25 53.75 C3.98212525 56.92254277 3.90582091 58.02373129 3 61 C2.03912864 59.10545176 1.08141031 57.20930419 0.125 55.3125 C-0.40867188 54.25675781 -0.94234375 53.20101562 -1.4921875 52.11328125 C-7.59119782 39.52024699 -7.25780685 26.69240821 -7 13 C-6.67 13 -6.34 13 -6 13 C-5.67 14.65 -5.34 16.3 -5 18 C-3.21871942 14.84735697 -2.51453338 12.00152969 -1.9375 8.4375 C-1.45238999 5.48273901 -0.94884315 2.84652944 0 0 Z " fill="#414141" transform="translate(197,285)"/>
<path d="M0 0 C0.73863281 0.11472656 1.47726562 0.22945313 2.23828125 0.34765625 C1.29991391 4.51817777 -0.0316926 6.6976699 -3.07421875 9.53515625 C-7.42121176 14.25781532 -8.35641177 19.39946129 -9.765625 25.47851562 C-12.12656656 35.45465106 -15.93830978 44.85539866 -19.76171875 54.34765625 C-21.02050982 50.57128304 -20.15484791 48.01639348 -19.1796875 44.30078125 C-19.00544754 43.61135437 -18.83120758 42.92192749 -18.65168762 42.21160889 C-18.09188066 40.00491763 -17.52059807 37.80137608 -16.94921875 35.59765625 C-16.5754407 34.12909216 -16.20238572 32.66034382 -15.83007812 31.19140625 C-10.95544339 12.04588461 -10.95544339 12.04588461 -6.94921875 5.91015625 C-6.28277344 4.85957031 -5.61632812 3.80898437 -4.9296875 2.7265625 C-2.76171875 0.34765625 -2.76171875 0.34765625 0 0 Z " fill="#292929" transform="translate(477.76171875,2.65234375)"/>
<path d="M0 0 C0.66 0 1.32 0 2 0 C2.0462645 12.48228829 2.08183918 24.96455632 2.10362434 37.44691277 C2.11407815 43.24247126 2.1282664 49.03797127 2.15087891 54.83349609 C2.17255044 60.42259423 2.18455658 66.01163596 2.18975449 71.60077286 C2.1934605 73.73710137 2.20069701 75.87342668 2.21146011 78.00973129 C2.22589944 80.99337272 2.22798112 83.97677869 2.22705078 86.96044922 C2.23424133 87.85092957 2.24143188 88.74140991 2.24884033 89.65887451 C2.22810432 95.77189568 2.22810432 95.77189568 0 98 C-0.78246682 95.23780671 -1.11678961 92.81762562 -1.08229065 89.95037842 C-1.07525116 89.15394928 -1.06821167 88.35752014 -1.06095886 87.53695679 C-1.04801285 86.67236847 -1.03506683 85.80778015 -1.02172852 84.91699219 C-1.0073172 83.54086258 -1.0073172 83.54086258 -0.99261475 82.13693237 C-0.95965379 79.10683447 -0.91931027 76.07688204 -0.87890625 73.046875 C-0.85460231 70.94509391 -0.83075888 68.84330745 -0.80735779 66.74151611 C-0.74454422 61.21111937 -0.67546976 55.6808178 -0.60510254 50.1505127 C-0.53439453 44.50663586 -0.46959231 38.86269159 -0.40429688 33.21875 C-0.27531966 22.14575921 -0.13972981 11.07285996 0 0 Z " fill="#212121" transform="translate(71,260)"/>
<path d="M0 0 C0.515625 0.2475 1.03125 0.495 1.5625 0.75 C-3.89115854 4.55487805 -3.89115854 4.55487805 -7.0625 5.6875 C-10.18955055 7.08644367 -11.34832699 9.04636434 -13.4375 11.75 C-14.51422004 12.55063798 -15.59832705 13.34138688 -16.6875 14.125 C-21.10735167 17.71612948 -23.2578008 22.5945789 -25.68457031 27.63232422 C-26.53740108 29.37152405 -27.48183198 31.06511573 -28.4375 32.75 C-29.9225 33.245 -29.9225 33.245 -31.4375 33.75 C-33.36768815 45.06877323 -33.99950049 56.29285489 -34.4375 67.75 C-34.7675 67.75 -35.0975 67.75 -35.4375 67.75 C-35.9325 65.275 -35.9325 65.275 -36.4375 62.75 C-36.7675 62.75 -37.0975 62.75 -37.4375 62.75 C-37.49619332 59.25007197 -37.53132709 55.7502728 -37.5625 52.25 C-37.57925781 51.26773438 -37.59601563 50.28546875 -37.61328125 49.2734375 C-37.65249874 43.39081335 -37.14182638 38.38635497 -35.4375 32.75 C-34.8084375 32.65074219 -34.179375 32.55148437 -33.53125 32.44921875 C-32.8403125 32.21847656 -32.149375 31.98773438 -31.4375 31.75 C-29.99821766 28.84195931 -29.99821766 28.84195931 -29.34375 26.83203125 C-26.59017822 20.50593747 -21.94596766 15.92207783 -17.125 11.125 C-16.48626953 10.47015625 -15.84753906 9.8153125 -15.18945312 9.140625 C-5.49505484 -0.56359537 -5.49505484 -0.56359537 0 0 Z " fill="#292929" transform="translate(228.4375,251.25)"/>
<path d="M0 0 C13.86 0 27.72 0 42 0 C42 0.99 42 1.98 42 3 C35.86040668 4.59933628 30.15053763 5.32378237 23.8125 5.25 C22.99676514 5.24613281 22.18103027 5.24226562 21.34057617 5.23828125 C14.10788191 5.1364422 7.1201404 4.30090656 0 3 C0 2.01 0 1.02 0 0 Z " fill="#2C2C2C" transform="translate(127,248)"/>
<path d="M0 0 C14.19 0 28.38 0 43 0 C43 0.99 43 1.98 43 3 C36.28236598 4.76200237 29.9706217 5.19271909 23.0625 5.1875 C21.80119263 5.1884668 21.80119263 5.1884668 20.5144043 5.18945312 C17.01763813 5.15836762 14.34877183 5.11625728 11 4 C9.10787263 3.77820215 7.21115528 3.59385985 5.3125 3.4375 C4.31863281 3.35371094 3.32476562 3.26992187 2.30078125 3.18359375 C1.16189453 3.09271484 1.16189453 3.09271484 0 3 C0 2.01 0 1.02 0 0 Z " fill="#2D2D2D" transform="translate(57,248)"/>
<path d="M0 0 C9.47469041 0.45117573 18.01275157 3.17454255 27 6 C27 6.66 27 7.32 27 8 C21.33525616 9.18015497 17.50152434 8.58154704 12 7 C7.2369592 6.00769983 2.84675593 5.67688294 -2 6 C-4.35318596 9.52977894 -4.8657526 12.78299147 -5.5625 16.875 C-5.81363654 18.28909191 -6.06493494 19.70315509 -6.31640625 21.1171875 C-6.54199219 22.39851563 -6.76757812 23.67984375 -7 25 C-7.3270826 26.66790463 -7.65725594 28.33524314 -8 30 C-8.33 30 -8.66 30 -9 30 C-9.09854426 24.67861016 -8.74282403 19.53377862 -8.125 14.25 C-8.04636719 13.49589844 -7.96773437 12.74179687 -7.88671875 11.96484375 C-7.46264212 8.2916877 -7.08380504 6.12570756 -5 3 C-1.375 2.3125 -1.375 2.3125 2 2 C1.34 1.34 0.68 0.68 0 0 Z " fill="#3F3F3F" transform="translate(230,406)"/>
<path d="M0 0 C-3.87633699 2.04584453 -7.81867587 3.77389365 -11.875 5.4375 C-15.33352905 6.8566016 -18.69928883 8.30856561 -22 10.0625 C-25.22223847 11.73726012 -28.47498897 12.84591392 -31.9375 13.9375 C-36.65919413 15.44796639 -40.73122813 17.32123696 -44.98046875 19.85546875 C-47 21 -47 21 -50.625 22.375 C-54.47462635 24.2285238 -56.74803695 26.4670445 -59.6171875 29.57421875 C-60.30167969 30.27998047 -60.30167969 30.27998047 -61 31 C-61.33 31 -61.66 31 -62 31 C-62 28.69 -62 26.38 -62 24 C-61.34 24.33 -60.68 24.66 -60 25 C-59.53851563 24.59007812 -59.07703125 24.18015625 -58.6015625 23.7578125 C-53.30857221 19.38534226 -48.78354489 17.80624099 -42 17 C-42 16.34 -42 15.68 -42 15 C-40.60201172 14.45472656 -40.60201172 14.45472656 -39.17578125 13.8984375 C-31.5368945 10.89287472 -24.08108858 7.71902459 -16.70703125 4.1015625 C-14 3 -14 3 -10 3 C-10 2.34 -10 1.68 -10 1 C-3.375 -1.125 -3.375 -1.125 0 0 Z " fill="#3D3D3D" transform="translate(418,114)"/>
<path d="M0 0 C10.98686663 0.55224991 21.96300859 1.24066099 32.9375 2 C34.7952002 2.1244751 34.7952002 2.1244751 36.69042969 2.25146484 C37.85348633 2.33348145 39.01654297 2.41549805 40.21484375 2.5 C41.25761475 2.5721875 42.30038574 2.644375 43.37475586 2.71875 C46 3 46 3 49 4 C49 4.66 49 5.32 49 6 C38.73064995 6.28703152 28.55948922 5.82035969 18.3125 5.125 C16.46833496 5.00729248 16.46833496 5.00729248 14.58691406 4.88720703 C13.41999023 4.80325684 12.25306641 4.71930664 11.05078125 4.6328125 C10.00575439 4.55949707 8.96072754 4.48618164 7.8840332 4.41064453 C4.97875886 3.99697557 2.66445567 3.20607164 0 2 C0 1.34 0 0.68 0 0 Z " fill="#262626" transform="translate(118,399)"/>
<path d="M0 0 C2.29708303 4.59416607 1.07751137 11.51476505 0.9777832 16.61010742 C0.95113615 18.23234764 0.93661882 19.85483687 0.93481445 21.47729492 C0.91204399 38.60943837 0.91204399 38.60943837 -6 46 C-6.65226562 46.79792969 -7.30453125 47.59585938 -7.9765625 48.41796875 C-8.52054687 49.00191406 -9.06453125 49.58585937 -9.625 50.1875 C-11.71540204 52.4943093 -13.58224737 54.74606169 -15.25 57.375 C-17 60 -17 60 -20 62 C-19.47317142 57.66141171 -18.02429737 55.3375006 -15.25 52 C-14.52941406 51.12859375 -13.80882812 50.2571875 -13.06640625 49.359375 C-11 47 -11 47 -8.1875 44.25 C-3.75037542 39.68610044 -2.62944543 35.31441852 -2.55859375 29.0625 C-2.53216797 27.75539063 -2.50574219 26.44828125 -2.47851562 25.1015625 C-2.46364081 23.73438756 -2.44997917 22.36719891 -2.4375 21 C-2.40595546 18.31202279 -2.36028169 15.62527291 -2.30859375 12.9375 C-2.29626709 11.75027344 -2.28394043 10.56304687 -2.27124023 9.33984375 C-1.99450815 5.93237755 -1.21627098 3.1828331 0 0 Z " fill="#3D3D3D" transform="translate(353,315)"/>
<path d="M0 0 C0.66 0 1.32 0 2 0 C1.73465737 8.490964 0.65717073 16.11669909 -1.54882812 24.28125 C-2.94504107 29.51576051 -3.74015604 34.59524565 -4 40 C-5.65 40 -7.3 40 -9 40 C-6.97218644 29.76385602 -4.92690712 19.53115006 -2.8125 9.3125 C-2.64588867 8.49354248 -2.47927734 7.67458496 -2.30761719 6.83081055 C-1.11546719 1.11546719 -1.11546719 1.11546719 0 0 Z " fill="#242424" transform="translate(212,460)"/>
<path d="M0 0 C0.33 0 0.66 0 1 0 C1 11.88 1 23.76 1 36 C-0.32 36 -1.64 36 -3 36 C-3.4988096 33.77714947 -3.99405539 31.55372856 -4.48046875 29.328125 C-4.87370211 27.56596648 -5.30334922 25.81188224 -5.75 24.0625 C-5.8325 23.381875 -5.915 22.70125 -6 22 C-5.34 21.34 -4.68 20.68 -4 20 C-3.60235737 18.01178687 -3.26224651 16.01055661 -3 14 C-2.34 14 -1.68 14 -1 14 C-0.67 9.38 -0.34 4.76 0 0 Z " fill="#525252" transform="translate(284,330)"/>
<path d="M0 0 C1.30249153 3.59855032 0.69931441 5.58099473 -0.75 9.0625 C-1.09546875 9.91972656 -1.4409375 10.77695313 -1.796875 11.66015625 C-2.99749571 13.99512964 -3.91894126 15.41275181 -6 17 C-7.91015625 17.4140625 -7.91015625 17.4140625 -10.0625 17.625 C-17.37775073 19.05004884 -22.30556495 24.88943598 -27.0234375 30.3359375 C-30.70060097 34.49338354 -32.97240827 36.44165862 -38.625 36.9375 C-40.41644821 36.97238216 -42.20822052 36.99454557 -44 37 C-46.00440123 37.30575612 -48.00775284 37.62308838 -50 38 C-50 37.34 -50 36.68 -50 36 C-48.40671875 35.79697266 -48.40671875 35.79697266 -46.78125 35.58984375 C-37.9249504 34.30386339 -32.10462652 32.94223807 -26 26 C-24.69159725 24.72494869 -23.37920838 23.45397252 -22.0625 22.1875 C-20.3167363 20.44968967 -19.10290197 19.20580394 -18 17 C-16.26166987 16.57416745 -14.5083239 16.20879946 -12.75 15.875 C-8.50859018 14.79126753 -6.29965571 13.9341216 -3.9375 10.1875 C-2.26566195 6.91045513 -0.97654482 3.55107206 0 0 Z " fill="#3E3E3E" transform="translate(468,75)"/>
<path d="M0 0 C0.99 0.495 0.99 0.495 2 1 C2.46204574 3.624299 2.80135241 6.16661805 3.0625 8.8125 C3.14483887 9.5864209 3.22717773 10.3603418 3.31201172 11.15771484 C3.5508325 13.43762573 3.7761488 15.71857885 4 18 C4.17208984 19.61841797 4.17208984 19.61841797 4.34765625 21.26953125 C5.11676033 29.18805358 5.09772191 37.0519512 5 45 C4.34 45 3.68 45 3 45 C1.12664552 29.97678833 -0.20743229 15.16560508 0 0 Z " fill="#242424" transform="translate(313,455)"/>
<path d="M0 0 C-0.60328125 0.42410156 -1.2065625 0.84820312 -1.828125 1.28515625 C-14.34469237 10.47070166 -16.49019459 24.43136306 -20.95117188 38.67382812 C-23.03292978 45.23998938 -25.33575022 51.647199 -28 58 C-29.10200006 54.7069978 -28.89788867 52.84464087 -27.76831055 49.58618164 C-27.47437912 48.72170914 -27.18044769 47.85723663 -26.87760925 46.96656799 C-26.55061539 46.04045212 -26.22362152 45.11433624 -25.88671875 44.16015625 C-25.55710648 43.20104843 -25.2274942 42.24194061 -24.88789368 41.25376892 C-23.8309612 38.18649907 -22.7592963 35.12460354 -21.6875 32.0625 C-20.9762721 30.00358018 -20.26597456 27.94433872 -19.55664062 25.88476562 C-11.59587587 2.84179008 -11.59587587 2.84179008 -5.4375 -0.3125 C-3 -1 -3 -1 0 0 Z " fill="#414141" transform="translate(87,403)"/>
<path d="M0 0 C0.66 0.33 1.32 0.66 2 1 C-0.11553957 3.32126099 -2.27195552 5.60039932 -4.4375 7.875 C-5.32598633 8.85146484 -5.32598633 8.85146484 -6.23242188 9.84765625 C-10.79933278 14.58552104 -14.49358231 16.25777614 -21 17 C-21.93972656 17.13664062 -22.87945312 17.27328125 -23.84765625 17.4140625 C-26.92382812 17.70703125 -26.92382812 17.70703125 -30 18 C-30 18.66 -30 19.32 -30 20 C-32.31 20.33 -34.62 20.66 -37 21 C-36.625 18.6875 -36.625 18.6875 -35 16 C-29.05119667 13.19052692 -22.48304721 12.52282639 -16 12 C-16 12.66 -16 13.32 -16 14 C-11.73236687 11.7140466 -8.52336376 8.76416143 -5.1875 5.3125 C-4.68541016 4.80138672 -4.18332031 4.29027344 -3.66601562 3.76367188 C-2.43936491 2.51365638 -1.21902509 1.2574532 0 0 Z " fill="#2A2A2A" transform="translate(448,93)"/>
<path d="M0 0 C0.99 0 1.98 0 3 0 C3 12.54 3 25.08 3 38 C2.34 38 1.68 38 1 38 C-0.58645357 34.82709287 -0.12078213 31.41174616 -0.09765625 27.9296875 C-0.0962413 27.13345978 -0.09482635 26.33723206 -0.09336853 25.51687622 C-0.08776345 22.9695462 -0.07521014 20.42230353 -0.0625 17.875 C-0.05748565 16.14974085 -0.05292263 14.42448033 -0.04882812 12.69921875 C-0.03779237 8.46611209 -0.02052436 4.23307086 0 0 Z " fill="#242424" transform="translate(207,3)"/>
<path d="M0 0 C1.32 0 2.64 0 4 0 C3.85946128 2.62538284 3.71281053 5.25017427 3.5625 7.875 C3.52318359 8.62136719 3.48386719 9.36773437 3.44335938 10.13671875 C3.11328125 15.7734375 3.11328125 15.7734375 2 18 C1.34 18 0.68 18 0 18 C-0.268125 18.928125 -0.53625 19.85625 -0.8125 20.8125 C-1.91148371 23.76240366 -2.62418561 25.05615186 -5 27 C-5.6875 25.4375 -5.6875 25.4375 -6 23 C-5.26635117 21.33261629 -4.53121973 19.66585664 -3.78588867 18.00366211 C-2.45999491 14.62323026 -1.91004669 11.13145372 -1.3125 7.5625 C-1.18294922 6.83095703 -1.05339844 6.09941406 -0.91992188 5.34570312 C-0.60570185 3.565123 -0.30175932 1.78273417 0 0 Z " fill="#222222" transform="translate(281,326)"/>
<path d="M0 0 C0.66 0 1.32 0 2 0 C2.05082181 6.29879297 2.08578472 12.5975328 2.10986328 18.89648438 C2.11990416 21.03810604 2.13353954 23.17971405 2.15087891 25.32128906 C2.17521118 28.40433121 2.18650242 31.48719165 2.1953125 34.5703125 C2.20563507 35.52366486 2.21595764 36.47701721 2.22659302 37.45925903 C2.22741015 42.33019496 2.10161396 46.49366349 0 51 C-2.125 51.875 -2.125 51.875 -4 52 C-2.125 48.125 -2.125 48.125 -1 47 C-0.87767356 45.52749355 -0.8222544 44.04934289 -0.79467773 42.57202148 C-0.77473251 41.63112167 -0.75478729 40.69022186 -0.73423767 39.72080994 C-0.71752518 38.69790359 -0.70081268 37.67499725 -0.68359375 36.62109375 C-0.66281265 35.57929459 -0.64203156 34.53749542 -0.62062073 33.46412659 C-0.55500943 30.12198753 -0.49618669 26.77976715 -0.4375 23.4375 C-0.39432578 21.17772582 -0.35071186 18.91795999 -0.30664062 16.65820312 C-0.19931633 11.10555579 -0.09757188 5.55282679 0 0 Z " fill="#3B3B3B" transform="translate(143,313)"/>
<path d="M0 0 C0.33 0 0.66 0 1 0 C1.02527002 6.53278786 1.04283292 13.06556321 1.05493164 19.59838867 C1.05997317 21.82267732 1.06680623 24.04696263 1.07543945 26.27124023 C1.08751298 29.46078309 1.09322996 32.65028229 1.09765625 35.83984375 C1.10281754 36.84087631 1.10797882 37.84190887 1.11329651 38.87327576 C1.11337204 39.79415482 1.11344757 40.71503387 1.11352539 41.66381836 C1.115746 42.47878281 1.11796661 43.29374725 1.12025452 44.13340759 C1 46 1 46 0 47 C-1.68801985 47.09353163 -3.37995207 47.11744791 -5.07055664 47.11352539 C-6.15160172 47.11344986 -7.23264679 47.11337433 -8.34645081 47.11329651 C-10.110485 47.10555458 -10.110485 47.10555458 -11.91015625 47.09765625 C-13.10732773 47.0962413 -14.30449921 47.09482635 -15.53794861 47.09336853 C-19.37949066 47.08774979 -23.22097543 47.07519411 -27.0625 47.0625 C-29.65950437 47.05748741 -32.25650965 47.05292409 -34.85351562 47.04882812 C-41.23569679 47.03777427 -47.6178443 47.02101792 -54 47 C-54 46.01 -54 45.02 -54 44 C-53.01 44 -52.02 44 -51 44 C-51 44.66 -51 45.32 -51 46 C-34.5 45.67 -18 45.34 -1 45 C-0.67 30.15 -0.34 15.3 0 0 Z " fill="#2C2C2C" transform="translate(142,261)"/>
<path d="M0 0 C0.99 0.33 1.98 0.66 3 1 C3.95162372 3.85487115 4.12163139 5.60454317 4.11352539 8.56323242 C4.11341209 9.94432442 4.11341209 9.94432442 4.11329651 11.35331726 C4.10813522 12.34402725 4.10297394 13.33473724 4.09765625 14.35546875 C4.0962413 15.37224197 4.09482635 16.3890152 4.09336853 17.43659973 C4.08776707 20.68692964 4.07521432 23.93719088 4.0625 27.1875 C4.05748519 29.38997296 4.05292225 31.59244701 4.04882812 33.79492188 C4.03779717 39.19663804 4.02105762 44.59831412 4 50 C3.67 50 3.34 50 3 50 C3 35.15 3 20.3 3 5 C2.34 5 1.68 5 1 5 C1 19.52 1 34.04 1 49 C0.67 49 0.34 49 0 49 C0 32.83 0 16.66 0 0 Z " fill="#464646" transform="translate(140,256)"/>
<path d="M0 0 C1.75094044 2.62641066 2.93144932 4.96751855 4.1640625 7.8515625 C4.76347656 9.25148438 4.76347656 9.25148438 5.375 10.6796875 C5.7875 11.65164063 6.2 12.62359375 6.625 13.625 C7.04523437 14.6046875 7.46546875 15.584375 7.8984375 16.59375 C11 23.86429586 11 23.86429586 11 25 C8.36 25 5.72 25 3 25 C2.86722656 24.10796875 2.73445313 23.2159375 2.59765625 22.296875 C2.42105469 21.12640625 2.24445312 19.9559375 2.0625 18.75 C1.88847656 17.58984375 1.71445312 16.4296875 1.53515625 15.234375 C1.07729369 12.1622777 1.07729369 12.1622777 0.4375 9.84375 C-0.33542655 6.58641669 -0.05556329 3.3337973 0 0 Z " fill="#505050" transform="translate(19,475)"/>
<path d="M0 0 C0.66 0 1.32 0 2 0 C2.76445235 3.07630421 3.07541605 5.98969369 3.140625 9.14453125 C3.36287573 20.89142564 3.36287573 20.89142564 9 31 C8.67 31.66 8.34 32.32 8 33 C2.02996273 26.63906743 -1.64283308 22.13962412 -1.625 13.125 C-1.3705489 8.6862419 -0.7891416 4.37371703 0 0 Z " fill="#373737" transform="translate(237,66)"/>
<path d="M0 0 C0 0.66 0 1.32 0 2 C-0.68964844 2.21914063 -1.37929687 2.43828125 -2.08984375 2.6640625 C-8.03272317 4.6694786 -12.907617 6.95914205 -17.9296875 10.73046875 C-20.28242689 12.1731863 -22.2858421 12.60753466 -25 13 C-24.62640494 10.52155588 -24.34105027 9.30285392 -22.43701172 7.61206055 C-20.26046352 6.28341844 -18.07987297 4.96875979 -15.875 3.6875 C-14.75351563 2.98657227 -14.75351563 2.98657227 -13.609375 2.27148438 C-8.56408913 -0.70382794 -5.69964081 -1.53451868 0 0 Z " fill="#1E1E1E" transform="translate(101,392)"/>
<path d="M0 0 C0.515625 0.2475 1.03125 0.495 1.5625 0.75 C-3.89115854 4.55487805 -3.89115854 4.55487805 -7.0625 5.6875 C-10.18955055 7.08644367 -11.34832699 9.04636434 -13.4375 11.75 C-14.51422004 12.55063798 -15.59832705 13.34138688 -16.6875 14.125 C-22.42468206 18.80435023 -25.24574754 26.23385081 -28.4375 32.75 C-29.4375 30.75 -29.4375 30.75 -28.6875 27.4375 C-26.34283869 20.52074913 -22.27127039 16.24639872 -17.1875 11.1875 C-16.54425781 10.52814453 -15.90101563 9.86878906 -15.23828125 9.18945312 C-5.49503668 -0.56359351 -5.49503668 -0.56359351 0 0 Z " fill="#3B3B3B" transform="translate(228.4375,251.25)"/>
<path d="M0 0 C4.6156169 1.41496154 8.85576843 3.29479279 13.1484375 5.4765625 C13.80582916 5.80667328 14.46322083 6.13678406 15.14053345 6.47689819 C17.22061317 7.52249397 19.29782644 8.5736447 21.375 9.625 C22.79278238 10.3389119 24.21074938 11.0524573 25.62890625 11.765625 C29.08808677 13.50618572 32.54470937 15.25173082 36 17 C36 17.66 36 18.32 36 19 C29.5811453 17.26375242 23.86215164 15.14819255 18 12 C18 11.34 18 10.68 18 10 C17.195625 9.7525 16.39125 9.505 15.5625 9.25 C2.5 4.66666667 2.5 4.66666667 0 0 Z " fill="#333333" transform="translate(246,125)"/>
<path d="M0 0 C0.33 0.99 0.66 1.98 1 3 C11.9716606 4.6472144 22.86431828 5.54388625 33.9375 6.125 C35.50719086 6.2117089 37.07685264 6.29894597 38.64648438 6.38671875 C42.43068368 6.59720564 46.21519846 6.8006481 50 7 C49.34 7.33 48.68 7.66 48 8 C48 8.66 48 9.32 48 10 C42.00292209 9.50040253 36.00746061 8.98520557 30.01293945 8.45581055 C27.97554499 8.27806215 25.93778022 8.1045047 23.8996582 7.93530273 C20.96196699 7.69067448 18.02595878 7.43076448 15.08984375 7.16796875 C14.18540024 7.09595749 13.28095673 7.02394623 12.34910583 6.94975281 C6.9817697 6.45157249 2.83448094 5.40428325 -2 3 C-1.34 2.67 -0.68 2.34 0 2 C0 1.34 0 0.68 0 0 Z " fill="#404040" transform="translate(117,398)"/>
<path d="M0 0 C3.16021824 0.46247096 6.0382808 1.01328109 9.0625 2.0625 C13.63509888 3.47734001 18.28370294 3.005133 23.01171875 2.77734375 C26.34253531 3.02552224 27.59311563 3.75708829 30 6 C20.49417332 8.87984404 10.68268916 7.48138795 2 3 C2 2.34 2 1.68 2 1 C1.34 0.67 0.68 0.34 0 0 Z " fill="#313131" transform="translate(227,361)"/>
<path d="M0 0 C7.08703739 0.54515672 13.32796106 2.60918605 20 5 C19.67 6.32 19.34 7.64 19 9 C11.95977516 7.40818446 5.722005 5.55792949 0 1 C0 0.67 0 0.34 0 0 Z " fill="#3A3A3A" transform="translate(250,172)"/>
<path d="M0 0 C0.33 0 0.66 0 1 0 C1.43264721 7.35500255 -0.18699995 13.89830033 -2 21 C-2.19722656 21.78890625 -2.39445313 22.5778125 -2.59765625 23.390625 C-2.73042969 23.92171875 -2.86320313 24.4528125 -3 25 C-3.66 25 -4.32 25 -5 25 C-5.33 28.63 -5.66 32.26 -6 36 C-6.33 36 -6.66 36 -7 36 C-7.18983464 30.31761643 -6.64557451 25.58405684 -5.125 20.125 C-4.75461419 18.72966864 -4.38612167 17.33383332 -4.01953125 15.9375 C-3.84244629 15.2671875 -3.66536133 14.596875 -3.48291016 13.90625 C-2.63840743 10.57264166 -2.00793526 7.2026337 -1.39453125 3.8203125 C-1 2 -1 2 0 0 Z " fill="#3B3B3B" transform="translate(215,462)"/>
<path d="M0 0 C2.80609561 0.06498327 5.57627891 0.19207705 8.375 0.375 C9.54675781 0.44074219 9.54675781 0.44074219 10.7421875 0.5078125 C14.01516475 0.70957137 16.87564402 0.95854801 20 2 C20 2.66 20 3.32 20 4 C8.62526092 4.13947228 -2.64906646 3.73570866 -14 3 C-14 2.67 -14 2.34 -14 2 C-13.07316406 1.93941406 -12.14632812 1.87882812 -11.19140625 1.81640625 C-9.39509766 1.69072266 -9.39509766 1.69072266 -7.5625 1.5625 C-5.77005859 1.44068359 -5.77005859 1.44068359 -3.94140625 1.31640625 C-1.11429756 1.32343886 -1.11429756 1.32343886 0 0 Z " fill="#2C2C2C" transform="translate(147,401)"/>
<path d="M0 0 C0.99 0.33 1.98 0.66 3 1 C3.35565306 4.11196424 3.05513543 5.87870206 1.75 8.75 C-2.60657063 12.31446688 -7.52702455 11.90534162 -13 12 C-13 10.68 -13 9.36 -13 8 C-12.31292969 7.92523438 -11.62585938 7.85046875 -10.91796875 7.7734375 C-8.15481839 7.37023101 -5.63987517 6.91821745 -3 6 C-0.77674321 3.06337328 -0.77674321 3.06337328 0 0 Z " fill="#2A2A2A" transform="translate(140,354)"/>
<path d="M0 0 C-0.99 0.33 -1.98 0.66 -3 1 C-2.67 1.99 -2.34 2.98 -2 4 C-4.60508636 3.88608368 -7.20845546 3.75934452 -9.8125 3.625 C-10.55048828 3.5940625 -11.28847656 3.563125 -12.04882812 3.53125 C-15.81893115 3.32653852 -17.79650741 3.13566173 -21 1 C-15.10966607 -2.92688929 -6.74602414 -1.19929318 0 0 Z " fill="#4C4C4C" transform="translate(256,246)"/>
<path d="M0 0 C0.99 0 1.98 0 3 0 C2.548712 5.22544001 0.59929428 8.61539745 -2.4375 12.75 C-2.84548828 13.32621094 -3.25347656 13.90242187 -3.67382812 14.49609375 C-5.3349881 16.82117574 -6.97653353 18.97653353 -9 21 C-8.54300722 15.97307937 -6.00758252 12.85103739 -3 9 C-3.99 9.33 -4.98 9.66 -6 10 C-4.63356852 6.01457486 -2.89890986 3.07460137 0 0 Z " fill="#242424" transform="translate(402,136)"/>
<path d="M0 0 C2 2 2 2 2.265625 3.99609375 C2.15780998 20.84219002 2.15780998 20.84219002 -2 25 C-2.22147651 7.92170022 -2.22147651 7.92170022 -1 1 C-0.67 0.67 -0.34 0.34 0 0 Z " fill="#222222" transform="translate(471,38)"/>
<path d="M0 0 C1.258125 -0.04125 2.51625 -0.0825 3.8125 -0.125 C4.52019531 -0.14820313 5.22789062 -0.17140625 5.95703125 -0.1953125 C8 0 8 0 11 2 C9.03177114 3.96822886 5.65191291 3.66248381 3 4 C2.34 7.3 1.68 10.6 1 14 C-0.32 14.33 -1.64 14.66 -3 15 C-2.01 10.05 -1.02 5.1 0 0 Z " fill="#1F1F1F" transform="translate(222,406)"/>
<path d="M0 0 C0.66 0 1.32 0 2 0 C-0.13091537 7.4582038 -3.63945696 12.51020491 -10 17 C-13.52873861 18.25599171 -16.26257815 19 -20 19 C-16.98697282 15.57926947 -13.3582217 14.15090334 -9.27734375 12.28125 C-6.71784646 11.06770829 -6.71784646 11.06770829 -5 8 C-4.34 8 -3.68 8 -3 8 C-2.690625 7.05125 -2.38125 6.1025 -2.0625 5.125 C-1 2 -1 2 0 0 Z " fill="#383838" transform="translate(392,157)"/>
<path d="M0 0 C0.99 0.66 1.98 1.32 3 2 C0.74141867 4.34546698 -1.53376648 6.67412027 -3.8125 9 C-4.45509766 9.66773437 -5.09769531 10.33546875 -5.75976562 11.0234375 C-6.69272461 11.97089844 -6.69272461 11.97089844 -7.64453125 12.9375 C-8.21534424 13.52402344 -8.78615723 14.11054687 -9.37426758 14.71484375 C-11 16 -11 16 -14 16 C-12.34136495 11.67495164 -9.128959 8.90581175 -5.875 5.75 C-5.31167969 5.19570312 -4.74835938 4.64140625 -4.16796875 4.0703125 C-2.78313972 2.70895515 -1.39216796 1.35385141 0 0 Z " fill="#171717" transform="translate(446,91)"/>
<path d="M0 0 C0.66 0 1.32 0 2 0 C5.48901845 7.18052459 6.54470737 13.0412201 6 21 C5.34 21 4.68 21 4 21 C3.32595716 18.43923903 2.660586 15.87673417 2 13.3125 C1.71382813 12.2306543 1.71382813 12.2306543 1.421875 11.12695312 C0.45134572 7.33149039 -0.24955239 3.95384561 0 0 Z " fill="#3B3B3B" transform="translate(277,265)"/>
<path d="M0 0 C0.66 0.33 1.32 0.66 2 1 C2.22519106 4.79086457 2.42729249 8.58261058 2.625 12.375 C2.68945312 13.45523437 2.75390625 14.53546875 2.8203125 15.6484375 C2.871875 16.6796875 2.9234375 17.7109375 2.9765625 18.7734375 C3.02893066 19.72653809 3.08129883 20.67963867 3.13525391 21.66162109 C3 24 3 24 1 26 C-2.33470226 7.00410678 -2.33470226 7.00410678 0 0 Z " fill="#242424" transform="translate(16,469)"/>
<path d="M0 0 C1.32 0 2.64 0 4 0 C4.08086147 1.79093191 4.13912702 3.58289628 4.1875 5.375 C4.22230469 6.37273437 4.25710938 7.37046875 4.29296875 8.3984375 C4.19628906 9.25695312 4.09960938 10.11546875 4 11 C1 13 1 13 -3 13 C-3 12.34 -3 11.68 -3 11 C-3.66 10.67 -4.32 10.34 -5 10 C-3.35 9.34 -1.7 8.68 0 8 C0 5.36 0 2.72 0 0 Z " fill="#262626" transform="translate(281,248)"/>
<path d="M0 0 C0.33 0.66 0.66 1.32 1 2 C-0.12845619 4.63604978 -1.3169002 7.14244268 -2.625 9.6875 C-2.96917969 10.38294922 -3.31335938 11.07839844 -3.66796875 11.79492188 C-6.06607435 16.53361395 -8.82172084 20.74556667 -12 25 C-12.33 24.34 -12.66 23.68 -13 23 C-11.1149686 17.95458594 -8.63133053 13.34048001 -5.9375 8.6875 C-5.58623047 8.06810547 -5.23496094 7.44871094 -4.87304688 6.81054688 C-3.41176127 4.26641825 -2.08407976 2.08407976 0 0 Z " fill="#3E3E3E" transform="translate(332,377)"/>
<path d="M0 0 C0.33 0 0.66 0 1 0 C1.33 1.65 1.66 3.3 2 5 C2.33 5 2.66 5 3 5 C3.22527296 8.45745022 3.42733544 11.91587025 3.625 15.375 C3.68945312 16.35984375 3.75390625 17.3446875 3.8203125 18.359375 C3.871875 19.30039062 3.9234375 20.24140625 3.9765625 21.2109375 C4.02893066 22.08024902 4.08129883 22.94956055 4.13525391 23.84521484 C4 26 4 26 2 28 C0.33042768 21.48603871 -0.26029841 15.64517871 -0.125 8.9375 C-0.11597656 8.07189453 -0.10695312 7.20628906 -0.09765625 6.31445312 C-0.07439723 4.20951221 -0.03854008 2.10471658 0 0 Z " fill="#494949" transform="translate(190,298)"/>
<path d="M0 0 C1 2 1 2 0.37915039 4.43017578 C0.03875732 5.4251709 -0.30163574 6.42016602 -0.65234375 7.4453125 C-1.01650391 8.52167969 -1.38066406 9.59804688 -1.75585938 10.70703125 C-2.14580078 11.83496094 -2.53574219 12.96289062 -2.9375 14.125 C-3.32357422 15.26066406 -3.70964844 16.39632813 -4.10742188 17.56640625 C-5.06497179 20.37994797 -6.02942729 23.19092948 -7 26 C-7.814285 23.01194843 -8.01283126 20.94033232 -7.5 17.875 C-6.661088 14.212826 -6.661088 14.212826 -8 12 C-6.6875 9.375 -6.6875 9.375 -5 7 C-4.34 7 -3.68 7 -3 7 C-2.01 4.69 -1.02 2.38 0 0 Z " fill="#2C2C2C" transform="translate(73,411)"/>
<path d="M0 0 C1.8515625 0.23828125 1.8515625 0.23828125 4 1 C5.98195837 3.75271996 7.14623891 6.72544796 8 10 C7.25 13.5625 7.25 13.5625 6 16 C5.34 16 4.68 16 4 16 C3.79503906 15.01257813 3.59007812 14.02515625 3.37890625 13.0078125 C3.10949219 11.72648437 2.84007812 10.44515625 2.5625 9.125 C2.29566406 7.84882812 2.02882813 6.57265625 1.75390625 5.2578125 C1.1652174 2.13539756 1.1652174 2.13539756 0 0 Z " fill="#3E3E3E" transform="translate(416,76)"/>
<path d="M0 0 C1.32 0 2.64 0 4 0 C3.8863485 2.62594784 3.75960946 5.25011547 3.625 7.875 C3.5940625 8.62136719 3.563125 9.36773437 3.53125 10.13671875 C3.2265625 15.7734375 3.2265625 15.7734375 1 18 C1 15.36 1 12.72 1 10 C0.34 10 -0.32 10 -1 10 C-1.33 10.99 -1.66 11.98 -2 13 C-1.85851011 11.3954444 -1.71164314 9.79136233 -1.5625 8.1875 C-1.48128906 7.29417969 -1.40007812 6.40085937 -1.31640625 5.48046875 C-1 3 -1 3 0 0 Z " fill="#323232" transform="translate(281,326)"/>
<path d="M0 0 C0.66 0.33 1.32 0.66 2 1 C1.66666667 3.33333333 1.33333333 5.66666667 1 8 C0.855625 9.27875 0.71125 10.5575 0.5625 11.875 C0.376875 12.90625 0.19125 13.9375 0 15 C-0.99 15.495 -0.99 15.495 -2 16 C-4.51277322 11.67244613 -3.79167169 8.6146047 -2.703125 3.98828125 C-2 2 -2 2 0 0 Z " fill="#292929" transform="translate(54,459)"/>
<path d="M0 0 C4.8299908 -0.32915493 7.62695363 0.48162328 11.8125 2.875 C12.76769531 3.40867188 13.72289062 3.94234375 14.70703125 4.4921875 C17 6 17 6 18 8 C11.53287812 6.83805848 5.90377651 4.8751252 0 2 C0 1.34 0 0.68 0 0 Z " fill="#353535" transform="translate(253,247)"/>
<path d="M0 0 C0.33 0 0.66 0 1 0 C1.33 4.29 1.66 8.58 2 13 C2.33 10.03 2.66 7.06 3 4 C3.33 4 3.66 4 4 4 C4 14.23 4 24.46 4 35 C3.67 35 3.34 35 3 35 C2.67 28.73 2.34 22.46 2 16 C1.34 16 0.68 16 0 16 C0 10.72 0 5.44 0 0 Z " fill="#464646" transform="translate(356,257)"/>
<path d="M0 0 C-0.28101563 0.55558594 -0.56203125 1.11117187 -0.8515625 1.68359375 C-1.63798193 3.26980709 -2.40265323 4.86693707 -3.1484375 6.47265625 C-3.55320312 7.32730469 -3.95796875 8.18195313 -4.375 9.0625 C-4.77460938 9.91972656 -5.17421875 10.77695313 -5.5859375 11.66015625 C-7.10049655 14.16629126 -8.56294095 15.41850423 -11 17 C-11.33 16.01 -11.66 15.02 -12 14 C-10.81162371 11.67019563 -9.59829172 9.56160782 -8.1875 7.375 C-7.81818359 6.776875 -7.44886719 6.17875 -7.06835938 5.5625 C-3.56348098 0 -3.56348098 0 0 0 Z " fill="#1B1B1B" transform="translate(399,145)"/>
<path d="M0 0 C0.721875 0.144375 1.44375 0.28875 2.1875 0.4375 C1.9375 2.3125 1.9375 2.3125 1.1875 4.4375 C-0.14583333 5.10416667 -1.47916667 5.77083333 -2.8125 6.4375 C-3.3075 7.283125 -3.8025 8.12875 -4.3125 9 C-5.8125 11.4375 -5.8125 11.4375 -8 12.25 C-8.598125 12.311875 -9.19625 12.37375 -9.8125 12.4375 C-8.14011413 7.4203424 -5.65200998 0.87920155 0 0 Z " fill="#252525" transform="translate(477.8125,2.5625)"/>
<path d="M0 0 C1.99197816 2.98796724 2.9492249 5.48014588 4.0625 8.875 C4.40410156 9.90367187 4.74570313 10.93234375 5.09765625 11.9921875 C5.89670667 14.65568891 6.51054224 17.26509169 7 20 C4.02662226 17.46388369 2.7631147 14.69417057 1.25 11.125 C0.80140625 10.09632813 0.3528125 9.06765625 -0.109375 8.0078125 C-1.05535828 4.81304441 -0.95265968 3.14842406 0 0 Z " fill="#343434" transform="translate(194,326)"/>
<path d="M0 0 C0.66 0 1.32 0 2 0 C2.54330269 6.65545792 1.77304004 10.45834744 -2 16 C-2.99 16 -3.98 16 -5 16 C-3.22666667 10.42666667 -3.22666667 10.42666667 -1.9375 8 C-0.71479283 5.39155804 -0.3872708 2.83998588 0 0 Z " fill="#1B1B1B" transform="translate(468,64)"/>
<path d="M0 0 C0.66 0.33 1.32 0.66 2 1 C0.79683817 6.11343777 -0.55324121 8.94498966 -4 13 C-4.70693079 14.23911465 -5.39395755 15.48975906 -6.0625 16.75 C-8 20 -8 20 -11 21 C-9.64586345 17.20164698 -7.90567492 14.28875472 -5.5 11.0625 C-2.91690469 7.46979572 -1.03384021 4.3651031 0 0 Z " fill="#3F3F3F" transform="translate(405,136)"/>
<path d="M0 0 C0.33 0.99 0.66 1.98 1 3 C-1.05248576 7.10497152 -3.53101734 10.78306089 -6.125 14.5625 C-8.4126828 17.93625443 -9.97766189 21.01288139 -11 25 C-12.22331431 21.19507067 -11.58750144 18.8020197 -10.08984375 15.08203125 C-8.59152612 12.21965385 -6.6121402 10.03739052 -4.4296875 7.67578125 C-2.4436673 5.34790511 -1.22383916 2.78763363 0 0 Z " fill="#404040" transform="translate(480,3)"/>
<path d="M0 0 C6.30367803 0.58367389 11.98660063 2.04071619 18 4 C18 4.66 18 5.32 18 6 C16.52031676 5.85950482 15.04125484 5.71245174 13.5625 5.5625 C12.73878906 5.48128906 11.91507813 5.40007812 11.06640625 5.31640625 C9 5 9 5 8 4 C6.48530552 3.76807135 4.96245438 3.58784762 3.4375 3.4375 C2.61121094 3.35371094 1.78492188 3.26992188 0.93359375 3.18359375 C0.29550781 3.12300781 -0.34257812 3.06242187 -1 3 C-0.67 2.01 -0.34 1.02 0 0 Z " fill="#2A2A2A" transform="translate(236,407)"/>
<path d="M0 0 C0.33 0 0.66 0 1 0 C1.29136943 8.07740804 0.95156113 16.12147544 -1 24 C-1.66 24.33 -2.32 24.66 -3 25 C-2.67 21.37 -2.34 17.74 -2 14 C-2.66 14 -3.32 14 -4 14 C-4 12.35 -4 10.7 -4 9 C-3.34 9.66 -2.68 10.32 -2 11 C-1.34 7.37 -0.68 3.74 0 0 Z " fill="#363636" transform="translate(472,50)"/>
<path d="M0 0 C0.33 0 0.66 0 1 0 C0.58846263 4.97093824 0.20399168 9.44508386 -2 14 C-2.99 13.67 -3.98 13.34 -5 13 C-4.55005243 11.20620902 -4.08975857 9.41501072 -3.625 7.625 C-3.36976562 6.62726563 -3.11453125 5.62953125 -2.8515625 4.6015625 C-2 2 -2 2 0 0 Z " fill="#242424" transform="translate(66,424)"/>
<path d="M0 0 C3.3 0.33 6.6 0.66 10 1 C10.33 2.32 10.66 3.64 11 5 C4.375 5.125 4.375 5.125 1 4 C0.67 2.68 0.34 1.36 0 0 Z " fill="#484848" transform="translate(89,361)"/>
<path d="M0 0 C0.66 0.33 1.32 0.66 2 1 C1.67 1.99 1.34 2.98 1 4 C1.65562315 6.82521817 2.53344455 9.54345581 3.40625 12.30859375 C4.00689652 15.03126119 3.92938425 16.41362146 3 19 C2.81824219 18.36191406 2.63648438 17.72382813 2.44921875 17.06640625 C2.19785156 16.24011719 1.94648437 15.41382813 1.6875 14.5625 C1.44386719 13.73878906 1.20023438 12.91507812 0.94921875 12.06640625 C0.47935547 11.04353516 0.47935547 11.04353516 0 10 C-0.99 9.67 -1.98 9.34 -3 9 C-2.01 6.03 -1.02 3.06 0 0 Z " fill="#3F3F3F" transform="translate(55,468)"/>
<path d="M0 0 C0.66 0.33 1.32 0.66 2 1 C0.35 9.25 -1.3 17.5 -3 26 C-3.33 26 -3.66 26 -4 26 C-4.39403062 18.25073118 -2.93379502 11.48468848 -1 4 C-0.66615328 2.66679512 -0.33257355 1.33352305 0 0 Z " fill="#424242" transform="translate(220,436)"/>
<path d="M0 0 C0.33 0.66 0.66 1.32 1 2 C1.66 2 2.32 2 3 2 C1.23536928 8.10737442 -0.69557475 14.07433507 -3 20 C-4.04940487 16.85178538 -3.98606526 16.0650509 -3.22265625 12.98828125 C-3.03896484 12.23095703 -2.85527344 11.47363281 -2.66601562 10.69335938 C-2.46685547 9.90767578 -2.26769531 9.12199219 -2.0625 8.3125 C-1.86720703 7.51521484 -1.67191406 6.71792969 -1.47070312 5.89648438 C-0.98771618 3.92919611 -0.4948037 1.96434946 0 0 Z " fill="#393939" transform="translate(461,37)"/>
<path d="M0 0 C0.33 0 0.66 0 1 0 C0.85761163 2.04190981 0.71092972 4.08352045 0.5625 6.125 C0.48128906 7.26195312 0.40007812 8.39890625 0.31640625 9.5703125 C0.02269035 12.7540478 -0.43124313 15.85510907 -1 19 C-3.91628528 14.62557207 -2.8495014 11.02686606 -2 6 C-0.9375 2.375 -0.9375 2.375 0 0 Z " fill="#1D1D1D" transform="translate(218,429)"/>
<path d="M0 0 C0.66 0.99 1.32 1.98 2 3 C-0.64 3.66 -3.28 4.32 -6 5 C-6 4.34 -6 3.68 -6 3 C-7.32 3.33 -8.64 3.66 -10 4 C-10.33 3.34 -10.66 2.68 -11 2 C-7.24455129 0.60262373 -4.02603178 -0.55917108 0 0 Z " fill="#343434" transform="translate(236,246)"/>
<path d="M0 0 C4.96916636 0.51405169 9.29026351 1.23384882 14 3 C14 3.66 14 4.32 14 5 C4.82713348 4.64989059 4.82713348 4.64989059 1.375 1.9375 C0.92125 1.298125 0.4675 0.65875 0 0 Z " fill="#323232" transform="translate(250,172)"/>
<path d="M0 0 C0.33 0 0.66 0 1 0 C1.68914081 13.97424423 1.68914081 13.97424423 -0.875 17.6875 C-1.57625 18.450625 -2.2775 19.21375 -3 20 C-3.66 20.99 -4.32 21.98 -5 23 C-4.37017995 16.32390746 -4.37017995 16.32390746 -2.5 14.6875 C-0.21167501 12.11313438 -0.4795686 9.68728573 -0.3125 6.3125 C-0.24675781 5.13300781 -0.18101562 3.95351563 -0.11328125 2.73828125 C-0.07589844 1.83464844 -0.03851563 0.93101562 0 0 Z " fill="#3B3B3B" transform="translate(359,292)"/>
<path d="M0 0 C2 0 2 0 3.5 1.1875 C6.38303776 4.67117062 7 7.50716998 7 12 C3.71534104 9.20803989 1.98678042 5.76803183 0 2 C0 1.34 0 0.68 0 0 Z " fill="#3C3C3C" transform="translate(330,100)"/>
<path d="M0 0 C2 2 2 2 2.125 5.125 C2.08375 6.07375 2.0425 7.0225 2 8 C0.35 8 -1.3 8 -3 8 C-1.125 1.125 -1.125 1.125 0 0 Z " fill="#2C2C2C" transform="translate(206,492)"/>
<path d="M0 0 C0.66 0 1.32 0 2 0 C1.67 3.3 1.34 6.6 1 10 C0.01 10.33 -0.98 10.66 -2 11 C-1.85957123 9.35369672 -1.71250671 7.70795821 -1.5625 6.0625 C-1.48128906 5.14597656 -1.40007812 4.22945313 -1.31640625 3.28515625 C-1 1 -1 1 0 0 Z " fill="#1E1E1E" transform="translate(212,460)"/>
<path d="M0 0 C3.94727588 -0.17942163 6.5980513 -0.09350689 10 2 C6.5980513 4.09350689 3.94727588 4.17942163 0 4 C0 2.68 0 1.36 0 0 Z " fill="#343434" transform="translate(57,362)"/>
<path d="M0 0 C1.9375 0.8125 1.9375 0.8125 4 2 C4.33 2.99 4.66 3.98 5 5 C6.63044124 6.65637688 6.63044124 6.65637688 8.5625 8.1875 C9.20316406 8.71730469 9.84382812 9.24710937 10.50390625 9.79296875 C10.99761719 10.19128906 11.49132812 10.58960938 12 11 C11.01 11.495 11.01 11.495 10 12 C1.18451025 4.88610478 1.18451025 4.88610478 0 0 Z " fill="#474747" transform="translate(202,347)"/>
<path d="M0 0 C0.66 0.33 1.32 0.66 2 1 C2 1.66 2 2.32 2 3 C2.66 3 3.32 3 4 3 C5.25664978 5.90600261 6 7.79604584 6 11 C5.34 11 4.68 11 4 11 C2.35 7.7 0.7 4.4 -1 1 C-0.67 0.67 -0.34 0.34 0 0 Z " fill="#3A3A3A" transform="translate(338,112)"/>
<path d="M0 0 C0.33 0 0.66 0 1 0 C0.53411505 5.70709064 -0.93757784 9.15939723 -4 14 C-4.625 12.125 -4.625 12.125 -5 10 C-4.34 9.34 -3.68 8.68 -3 8 C-2.60235737 6.01178687 -2.26224651 4.01055661 -2 2 C-1.34 2 -0.68 2 0 2 C0 1.34 0 0.68 0 0 Z " fill="#434343" transform="translate(283,342)"/>
<path d="M0 0 C1 2 1 2 0.25 5.5625 C-0.1625 6.696875 -0.575 7.83125 -1 9 C-1.99 9.33 -2.98 9.66 -4 10 C-3.51421457 6.87709365 -3.0013988 4.00419641 -2 1 C-1.34 0.67 -0.68 0.34 0 0 Z " fill="#252525" transform="translate(198,275)"/>
<path d="M0 0 C0.66 0.33 1.32 0.66 2 1 C2.125 7.625 2.125 7.625 1 11 C0.34 11 -0.32 11 -1 11 C-1.0270043 9.54176788 -1.04639787 8.08339325 -1.0625 6.625 C-1.07410156 5.81289062 -1.08570313 5.00078125 -1.09765625 4.1640625 C-1 2 -1 2 0 0 Z " fill="#1F1F1F" transform="translate(237,75)"/>
<path d="M0 0 C1.12377697 3.30435084 0.89554742 5.0506862 -0.4375 8.25 C-0.72496094 8.95640625 -1.01242187 9.6628125 -1.30859375 10.390625 C-1.53675781 10.92171875 -1.76492188 11.4528125 -2 12 C-2.66 12 -3.32 12 -4 12 C-4.33 12.99 -4.66 13.98 -5 15 C-5.66 14.67 -6.32 14.34 -7 14 C-6.66226562 13.49210937 -6.32453125 12.98421875 -5.9765625 12.4609375 C-3.34589186 8.40088512 -1.29585335 4.712194 0 0 Z " fill="#373737" transform="translate(468,75)"/>
<path d="M0 0 C0.99 0.33 1.98 0.66 3 1 C3.33 3.31 3.66 5.62 4 8 C2.68 8 1.36 8 0 8 C0 5.36 0 2.72 0 0 Z " fill="#404040" transform="translate(281,358)"/>
<path d="M0 0 C0.99 0 1.98 0 3 0 C2.38461538 5.53846154 2.38461538 5.53846154 0.4375 7.875 C-0.036875 8.24625 -0.51125 8.6175 -1 9 C-1 1 -1 1 0 0 Z " fill="#2B2B2B" transform="translate(402,136)"/>
<path d="M0 0 C4.48525648 0.656379 8.66914029 1.70074209 13 3 C12.34 3.66 11.68 4.32 11 5 C7.81180248 4.66083005 5.04218951 4.01406317 2 3 C2 2.34 2 1.68 2 1 C1.34 0.67 0.68 0.34 0 0 Z " fill="#3C3C3C" transform="translate(227,361)"/>
<path d="M0 0 C-0.66 1.98 -1.32 3.96 -2 6 C-3.65 6.33 -5.3 6.66 -7 7 C-6.39816251 4.97954558 -5.72693904 2.97888961 -5 1 C-3 0 -3 0 0 0 Z " fill="#272727" transform="translate(467,79)"/>
<path d="M0 0 C2.97 0 5.94 0 9 0 C9 0.99 9 1.98 9 3 C5.625 3.1875 5.625 3.1875 2 3 C1.34 2.01 0.68 1.02 0 0 Z " fill="#3A3A3A" transform="translate(160,362)"/>
<path d="M0 0 C0.33 0.66 0.66 1.32 1 2 C-1.17508418 6.69360269 -1.17508418 6.69360269 -4.1875 7.8125 C-4.785625 7.874375 -5.38375 7.93625 -6 8 C-4.73058503 4.08597051 -3.48832306 2.20927127 0 0 Z " fill="#1F1F1F" transform="translate(474,7)"/>
<path d="M0 0 C2.31 0.33 4.62 0.66 7 1 C7 1.66 7 2.32 7 3 C4.69 3.33 2.38 3.66 0 4 C0 2.68 0 1.36 0 0 Z " fill="#242424" transform="translate(94,391)"/>
<path d="M0 0 C1.9375 1.0625 1.9375 1.0625 4 3 C4.75 6.6875 4.75 6.6875 5 10 C0.76169024 7.17446016 1.02284652 4.87819112 0 0 Z " fill="#303030" transform="translate(213,53)"/>
<path d="M0 0 C0.66 0.33 1.32 0.66 2 1 C1.67 3.97 1.34 6.94 1 10 C0.01 10 -0.98 10 -2 10 C-1.54177532 6.53058454 -1.10868317 3.32604951 0 0 Z " fill="#1F1F1F" transform="translate(466,19)"/>
<path d="M0 0 C0.66 0.33 1.32 0.66 2 1 C2 1.33 2 1.66 2 2 C3.32 2.33 4.64 2.66 6 3 C1.545 4.485 1.545 4.485 -3 6 C-2.625 3.5625 -2.625 3.5625 -2 1 C-1.34 0.67 -0.68 0.34 0 0 Z " fill="#292929" transform="translate(392,118)"/>
<path d="M0 0 C1.485 0.99 1.485 0.99 3 2 C3.29296875 4.3828125 3.29296875 4.3828125 3.1875 7.125 C3.16042969 8.03507812 3.13335937 8.94515625 3.10546875 9.8828125 C3.07066406 10.58148438 3.03585937 11.28015625 3 12 C0.97649676 8.96474514 0.67875982 7.80573798 0.375 4.3125 C0.30023438 3.50425781 0.22546875 2.69601563 0.1484375 1.86328125 C0.09945313 1.24839844 0.05046875 0.63351563 0 0 Z " fill="#252525" transform="translate(418,80)"/>
<path d="M0 0 C0.66 0 1.32 0 2 0 C2.66 2.97 3.32 5.94 4 9 C2.35 7.68 0.7 6.36 -1 5 C-0.67 3.35 -0.34 1.7 0 0 Z " fill="#3E3E3E" transform="translate(213,47)"/>
<path d="M0 0 C0.33 0 0.66 0 1 0 C1 3.63 1 7.26 1 11 C0.01 10.67 -0.98 10.34 -2 10 C-1.34 6.7 -0.68 3.4 0 0 Z " fill="#2D2D2D" transform="translate(316,473)"/>
<path d="M0 0 C0 3.20395416 -0.74335022 5.09399739 -2 8 C-2.99 7.67 -3.98 7.34 -5 7 C-3.75023244 3.34683329 -3.32901247 2.21934164 0 0 Z " fill="#181818" transform="translate(331,372)"/>
<path d="M0 0 C0 3.39593478 -0.52165948 4.06619881 -2.5 6.6875 C-2.9640625 7.31011719 -3.428125 7.93273437 -3.90625 8.57421875 C-4.2671875 9.04472656 -4.628125 9.51523437 -5 10 C-5.66 9.67 -6.32 9.34 -7 9 C-5.44499019 5.18315774 -2.96404505 2.80804268 0 0 Z " fill="#171717" transform="translate(344,355)"/>
<path d="M0 0 C1.485 0.99 1.485 0.99 3 2 C3.1875 5.625 3.1875 5.625 3 9 C2.34 9 1.68 9 1 9 C0.67 6.03 0.34 3.06 0 0 Z " fill="#282828" transform="translate(280,277)"/>
<path d="M0 0 C0.33 0.66 0.66 1.32 1 2 C0.00390625 4.3828125 0.00390625 4.3828125 -1.4375 7.125 C-1.91058594 8.03507812 -2.38367188 8.94515625 -2.87109375 9.8828125 C-3.24363281 10.58148438 -3.61617187 11.28015625 -4 12 C-5 10 -5 10 -4.25 7.6875 C-2.99826674 4.99627348 -1.57860798 2.51142179 0 0 Z " fill="#434343" transform="translate(204,272)"/>
<path d="M0 0 C0.33 0 0.66 0 1 0 C1.1875 2.875 1.1875 2.875 1 6 C-2 8 -2 8 -6 8 C-6 7.34 -6 6.68 -6 6 C-5.38125 5.938125 -4.7625 5.87625 -4.125 5.8125 C-1.72238859 5.171081 -1.72238859 5.171081 -0.75 2.4375 C-0.5025 1.633125 -0.255 0.82875 0 0 Z " fill="#373737" transform="translate(284,253)"/>
<path d="M0 0 C0.99 0.33 1.98 0.66 3 1 C3 3.97 3 6.94 3 10 C0.70366176 6.55549263 0.45983515 4.06187717 0 0 Z " fill="#292929" transform="translate(53,477)"/>
<path d="M0 0 C2.4294516 3.6441774 2.16179575 5.71241272 2 10 C-0.77867692 7.22132308 -0.65193902 4.8286708 -1 1 C-0.67 0.67 -0.34 0.34 0 0 Z " fill="#2B2B2B" transform="translate(194,326)"/>
<path d="M0 0 C0.99 0 1.98 0 3 0 C3 0.99 3 1.98 3 3 C3.66 3 4.32 3 5 3 C5.33 4.65 5.66 6.3 6 8 C1.125 3.375 1.125 3.375 0 0 Z " fill="#3A3A3A" transform="translate(247,101)"/>
<path d="M0 0 C0.99 0.33 1.98 0.66 3 1 C3.33 3.97 3.66 6.94 4 10 C1.04816899 7.04816899 0.91336012 4.04488053 0 0 Z " fill="#2D2D2D" transform="translate(209,42)"/>
<path d="M0 0 C0.99 0.33 1.98 0.66 3 1 C3 1.66 3 2.32 3 3 C-3.75 4.125 -3.75 4.125 -6 3 C-6 2.34 -6 1.68 -6 1 C-3.03 1.495 -3.03 1.495 0 2 C0 1.34 0 0.68 0 0 Z " fill="#373737" transform="translate(254,411)"/>
<path d="M0 0 C3.36720387 1.39332574 4.9859524 2.9789286 7 6 C6.01 6.33 5.02 6.66 4 7 C2.02 3.535 2.02 3.535 0 0 Z " fill="#D6D6D6" transform="translate(389,53)"/>
<path d="M0 0 C0.99 0 1.98 0 3 0 C3 3.63 3 7.26 3 11 C2.67 11 2.34 11 2 11 C1.855625 9.9275 1.71125 8.855 1.5625 7.75 C1.16250558 5.08337051 0.72408076 2.58600271 0 0 Z " fill="#343434" transform="translate(207,3)"/>
<path d="M0 0 C0.33 0.66 0.66 1.32 1 2 C0.06553465 4.03144641 -0.93224776 6.03533587 -2 8 C-2.66 7.01 -3.32 6.02 -4 5 C-2.68 3.35 -1.36 1.7 0 0 Z " fill="#181818" transform="translate(316,399)"/>
<path d="M0 0 C0.625 1.875 0.625 1.875 1 4 C0.34 4.66 -0.32 5.32 -1 6 C-1.99 6 -2.98 6 -4 6 C-2.84826645 3.53199953 -1.95216435 1.95216435 0 0 Z " fill="#3F3F3F" transform="translate(143,359)"/>
<path d="M0 0 C0.93423645 3.01031744 1.04449911 3.86650268 0 7 C-0.66 7 -1.32 7 -2 7 C-2.6875 5.1875 -2.6875 5.1875 -3 3 C-1.5625 1.25 -1.5625 1.25 0 0 Z " fill="#1C1C1C" transform="translate(355,304)"/>
<path d="M0 0 C1.093125 0.0825 2.18625 0.165 3.3125 0.25 C0.02786341 2.43975773 -2.89446275 3.24806563 -6.6875 4.25 C-4.79150483 0.68106792 -4.16790733 0.28256999 0 0 Z " fill="#181818" transform="translate(421.6875,106.75)"/>
<path d="M0 0 C0.99 0.33 1.98 0.66 3 1 C2.34 2.65 1.68 4.3 1 6 C0.01 6 -0.98 6 -2 6 C-1.34 4.02 -0.68 2.04 0 0 Z " fill="#212121" transform="translate(465,74)"/>
</svg>
